<?xml version="1.0" standalone="no"?>
<!DOCTYPE svg PUBLIC "-//W3C//DTD SVG 20010904//EN"
 "http://www.w3.org/TR/2001/REC-SVG-20010904/DTD/svg10.dtd">
<svg version="1.0" xmlns="http://www.w3.org/2000/svg"
 width="568.000000pt" height="213.000000pt" viewBox="0 0 568.000000 213.000000"
 preserveAspectRatio="xMidYMid meet">

<g transform="translate(0.000000,213.000000) scale(0.100000,-0.100000)"
fill="#000000" stroke="none">
<path d="M651 1769 c-133 -23 -279 -127 -326 -231 -49 -109 -42 -198 21 -268
l36 -39 -26 -54 c-34 -73 -45 -127 -46 -221 0 -143 48 -200 171 -200 52 0 77
6 122 28 97 49 158 115 326 350 204 285 288 364 360 341 23 -7 35 8 26 35 -4
11 -21 23 -42 29 -88 25 -165 -49 -372 -358 -219 -326 -300 -400 -434 -401
-68 0 -98 22 -116 86 -22 79 -8 160 49 276 32 65 33 67 64 60 52 -12 149 -8
153 6 4 9 -11 12 -54 12 -63 0 -103 8 -103 20 0 18 131 137 179 164 59 32 137
40 164 17 24 -19 21 -78 -4 -126 -72 -134 -229 -237 -313 -205 -19 7 -26 15
-22 25 7 18 -5 20 -22 3 -17 -17 -15 -54 4 -72 23 -24 91 -20 153 9 69 32 188
152 224 224 28 56 35 118 17 151 -11 21 -60 40 -105 40 -90 0 -224 -73 -293
-160 l-39 -49 -24 25 c-33 35 -33 136 0 211 74 168 343 271 568 218 34 -8 127
-44 206 -79 176 -79 262 -106 336 -106 99 0 159 56 127 119 -9 17 -22 31 -28
31 -9 0 -9 -3 0 -12 24 -24 14 -67 -20 -89 -61 -38 -152 -16 -400 95 -79 35
-168 71 -198 81 -66 20 -243 28 -319 14z"/>
<path d="M3594 1666 c-222 -51 -472 -233 -557 -406 -99 -200 -77 -359 58 -425
54 -27 59 -27 188 -23 114 4 144 9 219 35 48 17 122 52 165 78 94 58 231 193
261 255 27 58 43 137 35 184 -3 22 1 51 11 76 37 94 7 170 -86 210 -66 29
-203 36 -294 16z m261 -35 c63 -28 95 -73 95 -130 0 -26 -2 -50 -5 -53 -3 -3
-24 14 -48 37 -46 46 -123 80 -206 91 -55 7 -161 -3 -161 -15 0 -5 39 -11 88
-13 64 -3 99 -10 132 -27 60 -31 117 -87 131 -128 10 -30 8 -37 -14 -67 -14
-18 -68 -68 -121 -111 -52 -44 -94 -81 -91 -83 5 -6 152 95 198 137 l40 36 -7
-30 c-17 -69 -53 -124 -140 -211 -145 -144 -295 -219 -461 -231 -190 -13 -269
67 -237 241 23 123 136 307 244 398 153 129 269 176 433 177 67 0 100 -4 130
-18z"/>
<path d="M1424 1501 c-53 -32 -159 -186 -310 -450 -82 -144 -86 -155 -69 -167
23 -17 26 -16 89 69 29 40 76 93 102 119 47 45 195 150 202 143 2 -2 -8 -22
-23 -44 -14 -23 -39 -68 -55 -100 -50 -99 -35 -181 34 -181 35 0 65 18 129 79
l37 35 0 -51 c0 -63 17 -83 71 -83 46 0 87 19 147 67 41 34 42 34 42 11 0 -29
44 -73 81 -82 63 -14 198 59 297 163 57 60 62 60 32 2 -38 -76 -36 -151 5
-151 6 0 40 37 75 82 64 83 248 273 257 265 2 -3 -12 -30 -32 -62 -60 -93 -85
-155 -85 -211 0 -57 12 -74 53 -74 36 0 74 25 155 104 54 52 103 116 88 116
-2 0 -35 -32 -73 -71 -70 -73 -145 -125 -163 -114 -34 21 10 125 104 245 72
91 81 123 35 128 -37 4 -125 -58 -256 -183 -62 -59 -113 -104 -113 -101 0 14
51 106 94 171 48 70 54 97 24 103 -11 2 -44 -29 -94 -90 -197 -237 -349 -342
-408 -282 -16 16 -21 61 -10 100 4 15 14 21 39 22 72 3 212 80 246 136 36 59
13 116 -46 116 -72 0 -214 -116 -275 -224 -32 -57 -96 -114 -167 -150 -44 -22
-62 -20 -74 8 -16 34 12 90 106 214 64 85 75 105 65 117 -7 8 -20 15 -30 15
-25 0 -90 -74 -139 -158 -62 -106 -198 -210 -222 -170 -19 30 13 97 105 223
37 50 65 97 64 105 -4 17 -30 24 -64 16 -19 -5 -189 -115 -287 -186 -19 -14
-20 -14 -3 19 10 18 59 87 110 154 50 67 106 143 124 169 48 70 41 103 -14 69z
m736 -281 c0 -11 -18 -40 -41 -65 -59 -64 -199 -130 -199 -94 0 18 122 139
160 160 48 25 80 25 80 -1z"/>
<path d="M5270 1493 c-47 -39 -134 -158 -219 -302 -72 -119 -130 -190 -201
-243 -51 -38 -77 -43 -85 -18 -12 38 24 114 105 220 45 57 79 111 78 120 -2 9
-16 16 -33 18 -41 4 -95 -34 -241 -167 -65 -60 -120 -108 -122 -106 -6 5 39
87 85 157 24 38 43 76 41 85 -8 43 -38 19 -166 -131 -165 -193 -221 -238 -252
-201 -22 26 -3 77 70 189 39 59 70 114 70 122 0 8 -13 17 -30 21 -16 3 -30 12
-30 19 0 18 -32 34 -68 34 -51 0 -150 -58 -226 -134 -112 -110 -154 -218 -106
-266 55 -55 107 -43 200 46 l60 57 0 -40 c0 -70 62 -103 128 -69 25 13 128
112 167 161 l17 20 -7 -20 c-48 -135 -48 -135 -37 -160 6 -14 18 -25 26 -25 8
0 38 30 68 67 104 131 251 283 263 271 2 -2 -14 -33 -37 -68 -97 -152 -105
-270 -19 -270 28 0 90 39 125 79 29 33 40 25 17 -13 -25 -40 -27 -62 -5 -70 9
-3 17 -6 19 -6 2 0 27 33 56 73 62 85 143 165 219 217 64 43 104 65 97 53 -2
-4 -23 -38 -45 -75 -58 -95 -77 -157 -62 -202 13 -39 41 -53 85 -42 44 11 225
179 210 195 -3 2 -38 -27 -78 -66 -103 -100 -167 -128 -167 -73 0 36 28 90
101 192 72 101 81 131 41 136 -31 5 -89 -27 -219 -118 -62 -43 -113 -76 -113
-72 0 12 68 110 150 217 42 55 90 119 105 143 25 38 27 45 13 58 -13 14 -19
12 -48 -13z m-940 -244 c0 -20 -143 -211 -200 -269 -88 -88 -150 -102 -158
-37 -11 90 222 317 326 317 17 0 32 -5 32 -11z"/>
<path d="M2087 1395 c-37 -25 -67 -50 -67 -55 0 -15 7 -13 72 26 l61 35 36
-35 c39 -38 71 -47 71 -20 0 25 -61 94 -84 94 -12 0 -52 -20 -89 -45z"/>
<path d="M1807 1383 c-15 -14 -6 -43 18 -59 23 -15 27 -15 50 0 27 18 32 35
13 54 -13 13 -70 17 -81 5z"/>
<path d="M1834 791 c-41 -25 -49 -38 -34 -56 19 -23 26 -19 60 30 34 49 25 57
-26 26z"/>
<path d="M1400 431 c0 -32 -3 -79 -6 -105 l-7 -46 67 0 c37 0 66 4 66 10 0 6
-22 10 -50 10 l-50 0 0 95 c0 57 -4 95 -10 95 -6 0 -10 -26 -10 -59z"/>
<path d="M1642 438 c-11 -29 -29 -77 -41 -105 -17 -44 -18 -53 -6 -53 8 0 17
11 21 25 6 23 11 25 59 25 48 0 53 -2 59 -25 4 -14 13 -25 21 -25 12 0 11 9
-6 53 -12 28 -30 76 -41 105 -12 28 -26 52 -33 52 -7 0 -21 -24 -33 -52z m67
-75 c1 -8 -12 -13 -34 -13 -40 0 -40 0 -18 59 l17 44 17 -39 c10 -21 18 -45
18 -51z"/>
<path d="M1868 461 c-28 -25 -33 -36 -33 -76 0 -40 5 -51 33 -76 44 -39 90
-39 134 0 18 16 30 33 25 37 -4 4 -17 -2 -30 -14 -30 -29 -89 -30 -117 -2 -12
12 -20 33 -20 55 0 48 29 75 80 75 29 0 43 -5 52 -20 13 -20 38 -28 38 -11 0
5 -14 21 -31 35 -42 36 -89 35 -131 -3z"/>
<path d="M2130 385 l0 -105 60 0 c33 0 60 4 60 10 0 6 -22 10 -50 10 l-50 0 0
35 c0 35 0 35 45 35 33 0 45 4 45 15 0 11 -12 15 -45 15 -45 0 -45 0 -45 35
l0 35 50 0 c28 0 50 5 50 10 0 6 -27 10 -60 10 l-60 0 0 -105z"/>
<path d="M2486 474 c-18 -17 -20 -42 -7 -63 7 -10 3 -23 -10 -39 -24 -31 -24
-47 1 -72 22 -22 69 -26 100 -10 13 7 21 7 25 0 3 -5 13 -10 22 -10 15 0 15 2
1 18 -11 11 -13 24 -8 37 13 31 11 45 -5 45 -8 0 -15 -9 -15 -20 0 -25 -12
-25 -35 0 -17 19 -17 20 9 41 32 25 33 53 4 73 -29 20 -62 20 -82 0z m73 -18
c10 -12 8 -19 -8 -35 -26 -26 -33 -26 -49 0 -24 37 29 69 57 35z m-19 -112
c21 -21 22 -27 10 -34 -19 -12 -27 -12 -51 0 -19 10 -26 40 -12 53 12 13 30 7
53 -19z"/>
<path d="M2830 385 c0 -59 4 -105 9 -105 6 0 11 19 13 43 3 42 3 42 46 45 56
4 54 22 -4 22 l-45 0 3 38 c3 37 3 37 51 40 65 4 50 22 -19 22 l-54 0 0 -105z"/>
<path d="M3076 458 c-42 -102 -66 -162 -66 -170 0 -18 21 -6 30 17 8 22 15 25
58 25 42 0 50 -3 60 -25 13 -29 36 -34 27 -6 -19 62 -75 186 -84 189 -6 2 -18
-11 -25 -30z m47 -65 l17 -43 -41 0 c-29 0 -39 4 -35 13 2 6 10 29 17 50 14
42 19 40 42 -20z"/>
<path d="M3280 395 c0 -52 -1 -98 -2 -102 -2 -5 21 -9 51 -11 39 -2 58 1 72
14 21 19 25 64 8 81 -8 8 -8 17 0 31 15 29 14 39 -9 62 -15 15 -33 20 -70 20
l-50 0 0 -95z m103 54 c18 -29 1 -49 -43 -49 -39 0 -40 1 -40 36 0 34 1 35 36
32 21 -2 42 -10 47 -19z m13 -101 c8 -28 -18 -48 -63 -48 -31 0 -33 2 -33 35
0 35 0 35 44 35 37 0 46 -4 52 -22z"/>
<path d="M3520 385 c0 -63 4 -105 10 -105 6 0 10 18 10 40 0 36 3 40 24 40 18
0 31 -10 47 -40 13 -22 29 -40 36 -40 17 0 17 3 -7 42 -19 34 -19 34 0 51 13
11 20 29 20 51 0 45 -29 66 -92 66 l-48 0 0 -105z m104 69 c36 -36 9 -74 -53
-74 -30 0 -31 1 -31 45 0 45 0 45 34 45 19 0 42 -7 50 -16z"/>
<path d="M3760 385 c0 -87 3 -105 15 -105 12 0 15 18 15 105 0 87 -3 105 -15
105 -12 0 -15 -18 -15 -105z"/>
<path d="M3915 457 c-48 -48 -49 -95 -1 -143 43 -43 90 -46 135 -8 31 26 40
44 21 44 -5 0 -19 -9 -30 -20 -26 -26 -90 -27 -113 -2 -23 26 -22 94 1 115 26
24 87 22 112 -3 21 -21 40 -26 40 -12 0 20 -51 54 -89 59 -36 5 -44 2 -76 -30z"/>
<path d="M4192 474 c-25 -17 -29 -56 -8 -73 7 -6 30 -17 51 -24 51 -18 67 -43
41 -63 -28 -20 -43 -18 -72 11 -30 30 -34 31 -34 6 0 -47 92 -69 130 -31 37
37 19 72 -49 95 -54 18 -68 36 -45 60 21 21 50 19 74 -5 24 -24 30 -25 30 -6
0 20 -39 46 -70 46 -14 0 -36 -7 -48 -16z"/>
<path d="M4420 370 c0 -6 52 -10 135 -10 83 0 135 4 135 10 0 6 -52 10 -135
10 -83 0 -135 -4 -135 -10z"/>
<path d="M1052 363 c37 -2 100 -2 140 0 40 1 10 3 -67 3 -77 0 -110 -1 -73 -3z"/>
</g>
</svg>
