<?xml version="1.0" encoding="UTF-8"?>
<svg version="1.1" xmlns="http://www.w3.org/2000/svg" width="500" height="500">
<path d="M0 0 C0.76054688 0.00515625 1.52109375 0.0103125 2.3046875 0.015625 C12.20159296 0.53848038 21.91695326 5.99239599 30.75 10.125 C46.26162889 17.54250859 46.26162889 17.54250859 63 17 C63.98120464 13.94736336 63.98120464 12.05263664 63 9 C64.875 9.25 64.875 9.25 67 10 C68.5106655 12.08615712 69.02066389 13.35941938 68.9375 15.9375 C67.49145449 19.11880012 65.71750418 20.80286896 63 23 C60.32519798 23.96590073 57.81286399 24.47556773 55 25 C54.94972656 25.66773438 54.89945312 26.33546875 54.84765625 27.0234375 C53.63522806 31.28090422 51.14642832 34.17607975 48.4375 37.625 C47.3469965 39.04376398 46.25715567 40.46303754 45.16796875 41.8828125 C44.63091309 42.57793945 44.09385742 43.27306641 43.54052734 43.98925781 C41.39363313 46.7914481 39.31900376 49.63979731 37.25 52.5 C36.29867187 53.81484375 36.29867187 53.81484375 35.328125 55.15625 C34.67070312 56.06890625 34.67070312 56.06890625 34 57 C34.70576172 56.45859375 34.70576172 56.45859375 35.42578125 55.90625 C36.04839844 55.4421875 36.67101562 54.978125 37.3125 54.5 C37.92738281 54.0359375 38.54226562 53.571875 39.17578125 53.09375 C41 52 41 52 44 52 C44 51.34 44 50.68 44 50 C47 48 47 48 50 48 C50 47.34 50 46.68 50 46 C53.90028225 43.39981184 57.47434569 43.84914486 62 44 C62.50130606 49.26371362 61.31168629 51.9090934 58 56 C57.34 56 56.68 56 56 56 C55.773125 56.66 55.54625 57.32 55.3125 58 C54.19677922 60.55021893 53.00835793 62.61934519 51.5 64.9375 C49.41120578 68.18468158 48.03057221 71.25246468 47 75 C47.53109375 74.73445313 48.0621875 74.46890625 48.609375 74.1953125 C52.07291667 72.46354167 55.53645833 70.73177083 59 69 C59 68.34 59 67.68 59 67 C59.66 67 60.32 67 61 67 C61 66.34 61 65.68 61 65 C61.66 65 62.32 65 63 65 C63.268125 64.29875 63.53625 63.5975 63.8125 62.875 C65.0681449 59.8350176 66.50235123 56.9272226 68 54 C68.66 54 69.32 54 70 54 C70.37125 52.8553125 70.37125 52.8553125 70.75 51.6875 C72.16192497 48.65186132 73.05377656 47.55495126 76 46 C79.25 45.8125 79.25 45.8125 82 46 C82.75390625 48.171875 82.75390625 48.171875 83 51 C81.33984375 53.578125 81.33984375 53.578125 78.9375 56.25 C70.26634361 65.88904097 70.26634361 65.88904097 67 78 C76.23987656 73.91830696 82.59622961 70.25195797 87 61 C87.66 61 88.32 61 89 61 C89.66 59.35 90.32 57.7 91 56 C91.66 56 92.32 56 93 56 C93 55.34 93 54.68 93 54 C93.66 54 94.32 54 95 54 C95 53.34 95 52.68 95 52 C95.66 52 96.32 52 97 52 C97 51.34 97 50.68 97 50 C101.26370646 46.62747809 105.88163949 43.60346109 111.4375 43.5 C115 44 115 44 118 46 C118.56737589 53.14893617 118.56737589 53.14893617 116 57 C115.34 57 114.68 57 114 57 C114 57.66 114 58.32 114 59 C107.71080587 64.68790167 100.03447301 66.8889329 92 69 C91.67 71.64 91.34 74.28 91 77 C98.04996326 77.91956043 102.36246327 75.03057533 108 71 C113.20042521 67.10799535 113.20042521 67.10799535 117 62 C117.66 62 118.32 62 119 62 C119.2371875 61.46890625 119.474375 60.9378125 119.71875 60.390625 C121.37378384 57.30257405 123.40548128 54.5471528 125.5 51.75 C126.10521484 50.91855469 126.10521484 50.91855469 126.72265625 50.0703125 C127.76450171 48.67430835 128.87745412 47.33197608 130 46 C130.66 46 131.32 46 132 46 C132 45.34 132 44.68 132 44 C133.66611905 43.957279 135.33382885 43.95936168 137 44 C138 45 138 45 138.1875 47.375 C138 50 138 50 136 53 C135.34 53 134.68 53 134 53 C133.690625 53.928125 133.38125 54.85625 133.0625 55.8125 C132.375 57.875 131.6875 59.9375 131 62 C131.83144531 61.13375 131.83144531 61.13375 132.6796875 60.25 C133.40414062 59.5075 134.12859375 58.765 134.875 58 C135.59429687 57.2575 136.31359375 56.515 137.0546875 55.75 C139 54 139 54 141 54 C141 53.34 141 52.68 141 52 C142.7385796 50.57831868 144.54223981 49.23550882 146.375 47.9375 C147.37273437 47.22464844 148.37046875 46.51179688 149.3984375 45.77734375 C153.26087767 43.13858958 155.31472762 42.80062671 160 43 C161 44 161 44 161.2421875 46.29296875 C160.95528797 49.4997651 160.09871155 50.80522528 158.125 53.3125 C157.59132812 54.00988281 157.05765625 54.70726562 156.5078125 55.42578125 C156.01023438 55.94527344 155.51265625 56.46476562 155 57 C154.34 57 153.68 57 153 57 C152.62875 58.0209375 152.62875 58.0209375 152.25 59.0625 C151.26116692 61.38625775 150.22967929 63.35263296 148.9375 65.5 C147.28585924 68.30594731 146.39647436 70.72908654 146 74 C151.37010147 74 155.1323798 69.44787847 159 66 C161.14693728 63.74339598 163.06393633 61.44555411 165 59 C165.66 59.33 166.32 59.66 167 60 C165.68210992 65.1949388 163.57366509 67.91625381 159.75 71.625 C158.35007813 73.00558594 158.35007813 73.00558594 156.921875 74.4140625 C149.75208582 80.75951763 149.75208582 80.75951763 144.8125 81.4375 C141.61625768 80.94030675 140.93899056 80.49617176 139 78 C136.98154618 69.75406852 140.98736964 62.95044901 145 56 C144.21625 56.825 143.4325 57.65 142.625 58.5 C140 61 140 61 138 61 C138 61.66 138 62.32 138 63 C137.34 63 136.68 63 136 63 C135.76152344 63.54527344 135.52304688 64.09054688 135.27734375 64.65234375 C133.67836648 67.59113683 131.69644514 69.98704897 129.5625 72.5625 C128.78003906 73.51253906 127.99757812 74.46257812 127.19140625 75.44140625 C123.47732314 79.77781345 123.47732314 79.77781345 122 81 C121.01 81 120.02 81 119 81 C119 80.34 119 79.68 119 79 C118.34 79 117.68 79 117 79 C116.875 72.375 116.875 72.375 118 69 C117.34 69 116.68 69 116 69 C116 69.66 116 70.32 116 71 C113.96840865 72.59433816 111.94804137 74.05787606 109.8125 75.5 C109.23435547 75.90347656 108.65621094 76.30695313 108.06054688 76.72265625 C102.09021655 80.81081464 97.2223207 82.95030536 90 82 C86.07986796 80.29559476 84.74226007 78.79844086 83 75 C82.53851563 75.42152344 82.07703125 75.84304688 81.6015625 76.27734375 C76.97559787 80.16278835 73.29232235 81.97264205 67.20703125 82.234375 C65 82 65 82 62.4375 80.375 C60.91387067 77.85769937 60.32352873 75.91175861 60 73 C59.34 73 58.68 73 58 73 C58 73.66 58 74.32 58 75 C54.5517483 77.88812959 51.14001717 79.82792194 46.6875 80.5 C43.70959151 79.94597051 42.76418479 79.4141476 41 77 C39.53892259 74.07784517 39.70642714 72.288016 40 69 C41.16535004 65.59046058 42.54188348 62.29378106 44 59 C44.66 59 45.32 59 46 59 C46.33 57.35 46.66 55.7 47 54 C44.87057725 55.59856666 42.74649666 57.20347458 40.625 58.8125 C40.02171875 59.26431641 39.4184375 59.71613281 38.796875 60.18164062 C35.99768823 62.31213278 33.9679069 64.04813965 32 67 C31.34 67 30.68 67 30 67 C30 67.66 30 68.32 30 69 C29.34 69 28.68 69 28 69 C28 69.66 28 70.32 28 71 C27.34 71 26.68 71 26 71 C25.34 72.98 24.68 74.96 24 77 C23.34 77 22.68 77 22 77 C21.01 78.98 21.01 78.98 20 81 C18.35 81 16.7 81 15 81 C14.3988302 75.23056443 16.308263 71.94938045 19.1875 67.1875 C20.01313892 65.77480859 20.83866043 64.36204856 21.6640625 62.94921875 C22.0652832 62.27294434 22.46650391 61.59666992 22.87988281 60.89990234 C24.31957494 58.45794851 25.69628249 55.98367288 27.0625 53.5 C27.44535156 52.8090625 27.82820313 52.118125 28.22265625 51.40625 C28.47917969 50.9421875 28.73570313 50.478125 29 50 C29.66 50 30.32 50 31 50 C31.99 47.03 31.99 47.03 33 44 C33.66 44 34.32 44 35 44 C35.08378906 43.46890625 35.16757813 42.9378125 35.25390625 42.390625 C36.2787853 39.10671935 38.03011125 36.60590938 39.9375 33.75 C40.64777344 32.67234375 41.35804687 31.5946875 42.08984375 30.484375 C42.72019531 29.66453125 43.35054688 28.8446875 44 28 C44.66 28 45.32 28 46 28 C46 27.34 46 26.68 46 26 C46.66 26 47.32 26 48 26 C48 25.34 48 24.68 48 24 C47.48203857 23.78384033 46.96407715 23.56768066 46.43041992 23.3449707 C44.01537191 22.33590892 41.6012745 21.32460446 39.1875 20.3125 C38.31472412 19.94672852 37.44194824 19.58095703 36.54272461 19.20410156 C32.00982917 17.29613443 27.51336251 15.34413737 23.0625 13.25 C21.37916518 12.4906976 19.6917109 11.7404529 18 11 C17.11054687 10.60683594 16.22109375 10.21367187 15.3046875 9.80859375 C5.03221313 5.7919723 -8.55956014 4.70123136 -18.9765625 9.00390625 C-19.64429687 9.33261719 -20.31203125 9.66132813 -21 10 C-21.87398437 10.42152344 -22.74796875 10.84304687 -23.6484375 11.27734375 C-25.38733888 12.13682939 -27.11767695 13.01402126 -28.8359375 13.9140625 C-31 15 -31 15 -34 16 C-34 16.66 -34 17.32 -34 18 C-34.763125 18.721875 -35.52625 19.44375 -36.3125 20.1875 C-40.90666326 24.99534527 -42.64087974 30.41612866 -43 37 C-42.16830035 40.33499305 -42.16830035 40.33499305 -41 43 C-37.87802522 41.6910428 -37.87802522 41.6910428 -36 39 C-35.34 39 -34.68 39 -34 39 C-34 38.34 -34 37.68 -34 37 C-26.9710881 30.79362034 -19.48875935 27.44989831 -10.1875 26.6875 C-5.87794589 27.11000531 -3.0793646 27.9206354 0 31 C1.85963271 36.7219468 0.22348309 41.6315142 -2 47 C-3.49223827 49.63363681 -5.02561616 51.67123957 -7 54 C-7.66 54 -8.32 54 -9 54 C-9 54.66 -9 55.32 -9 56 C-9.66 56 -10.32 56 -11 56 C-11 56.66 -11 57.32 -11 58 C-11.66 58 -12.32 58 -13 58 C-13 58.66 -13 59.32 -13 60 C-18.89345906 64.7698463 -25.19440382 68.78212387 -33 68 C-36.0625 67 -36.0625 67 -38 65 C-38.3125 61.3125 -38.3125 61.3125 -38 58 C-36.02 57.505 -36.02 57.505 -34 57 C-33.67 58.32 -33.34 59.64 -33 61 C-26.80086093 60.5649727 -23.26184853 59.26234609 -18 56 C-17.34 56 -16.68 56 -16 56 C-16 55.34 -16 54.68 -16 54 C-14.34997172 52.64613064 -12.6825613 51.31321858 -11 50 C-10.505 49.01 -10.505 49.01 -10 48 C-9.34 48 -8.68 48 -8 48 C-5.34349136 41.19179489 -5.34349136 41.19179489 -5 34 C-6.20661577 32.56566519 -6.20661577 32.56566519 -9.75 32.875 C-12.94588316 32.90948795 -15.88691725 33.22172931 -19 34 C-19 34.66 -19 35.32 -19 36 C-21.87771795 37.91847864 -24.88626628 39.50079488 -28 41 C-28 41.66 -28 42.32 -28 43 C-28.66 43 -29.32 43 -30 43 C-30 43.66 -30 44.32 -30 45 C-30.66 45 -31.32 45 -32 45 C-32 45.99 -32 46.98 -32 48 C-27.71 48.66 -23.42 49.32 -19 50 C-19.33 50.99 -19.66 51.98 -20 53 C-25.28 53 -30.56 53 -36 53 C-36.969375 54.918125 -37.93875 56.83625 -38.9375 58.8125 C-39.48277344 59.89144531 -40.02804688 60.97039062 -40.58984375 62.08203125 C-42.67466673 66.39605554 -43.184632 69.61403073 -43.25 74.375 C-43.27578125 75.49648438 -43.3015625 76.61796875 -43.328125 77.7734375 C-42.96212409 81.37244646 -42.28426542 83.2069895 -40 86 C-36.05407914 87.49569191 -31.95431908 87.19086382 -27.875 86.375 C-24.77840004 84.89401741 -22.21593554 83.12773355 -19.515625 81.0234375 C-18 80 -18 80 -16 80 C-16 79.34 -16 78.68 -16 78 C-15.34 78 -14.68 78 -14 78 C-13.71125 77.401875 -13.4225 76.80375 -13.125 76.1875 C-12 74 -12 74 -10 71 C-9.34 71 -8.68 71 -8 71 C-7.73960938 70.10796875 -7.47921875 69.2159375 -7.2109375 68.296875 C-6.01623363 65.04419737 -4.73283943 62.97151421 -2.625 60.25 C0.55504491 56.03110194 3.51450747 51.73450934 6.39501953 47.30566406 C19.47411688 27.22537848 19.47411688 27.22537848 27 24 C27 23.34 27 22.68 27 22 C31.08988344 19.95505828 33.57876359 19.94274781 38 21 C39.485 21.495 39.485 21.495 41 22 C41 23.98 41 25.96 41 28 C39.865625 28.020625 38.73125 28.04125 37.5625 28.0625 C31.16007965 28.86847845 26.32245319 33.08565947 22.390625 38.01953125 C21.24727446 39.67066395 20.12186784 41.33419623 19 43 C18.34 43 17.68 43 17 43 C16.01 45.97 16.01 45.97 15 49 C14.34 49 13.68 49 13 49 C12.66548828 50.01320313 12.66548828 50.01320313 12.32421875 51.046875 C10.61949593 54.84855774 8.3107291 57.93312559 5.8125 61.25 C5.31637207 61.91459229 4.82024414 62.57918457 4.30908203 63.26391602 C3.32174411 64.58363307 2.33189987 65.90147937 1.33935547 67.21728516 C0.2244693 68.70122588 -0.8725016 70.19860558 -1.96484375 71.69921875 C-8.36923688 80.33384761 -17.21624447 89.51144103 -28 92 C-35.04641874 92.6562841 -39.95313948 92.03514539 -45.75 87.6875 C-50.50451558 81.26890396 -49.50514483 72.52359651 -49 65 C-47.98025441 59.1958316 -46.49810221 53.83071257 -43 49 C-43.61875 48.401875 -44.2375 47.80375 -44.875 47.1875 C-48.9485658 42.99412344 -49.95078114 39.71406835 -50.0546875 33.984375 C-49.65566223 26.80192013 -48.78730266 20.63895219 -44 15 C-41.83203125 13.76171875 -41.83203125 13.76171875 -40 13 C-40 12.34 -40 11.68 -40 11 C-39.34 11 -38.68 11 -38 11 C-38 10.34 -38 9.68 -38 9 C-26.01751868 0.28546813 -14.35666701 -0.35981622 0 0 Z M106 51 C106 51.66 106 52.32 106 53 C105.41734375 53.25652344 104.8346875 53.51304687 104.234375 53.77734375 C101.80289161 55.10785826 100.18264447 56.58443013 98.25 58.5625 C97.63640625 59.18253906 97.0228125 59.80257812 96.390625 60.44140625 C94.88904074 61.77622963 94.88904074 61.77622963 95 63 C100.07612318 63.61528766 102.82982006 61.61658349 107 59 C107 58.34 107 57.68 107 57 C107.598125 56.773125 108.19625 56.54625 108.8125 56.3125 C111.56351888 54.66188867 112.52484637 52.8027919 114 50 C110.59745511 48.7848054 109.06748874 49.13759612 106 51 Z " fill="#242424" transform="translate(75,181)"/>
<path d="M0 0 C-0.49789058 4.58059334 -1.50629867 7.23797716 -4.3125 10.875 C-5.02019531 11.80699219 -5.72789062 12.73898438 -6.45703125 13.69921875 C-6.85486816 14.21403809 -7.25270508 14.72885742 -7.66259766 15.25927734 C-9.75303176 17.98012349 -11.79915954 20.73387377 -13.85229492 23.48291016 C-16.22747686 26.66084658 -18.6138 29.830331 -21 33 C-20.44570313 32.6390625 -19.89140625 32.278125 -19.3203125 31.90625 C-18.59585938 31.4421875 -17.87140625 30.978125 -17.125 30.5 C-16.40570313 30.0359375 -15.68640625 29.571875 -14.9453125 29.09375 C-13 28 -13 28 -11 28 C-11 27.34 -11 26.68 -11 26 C-8 24 -8 24 -5 24 C-5 23.34 -5 22.68 -5 22 C-1.09971775 19.39981184 2.47434569 19.84914486 7 20 C7.33 21.65 7.66 23.3 8 25 C7.34 25 6.68 25 6 25 C5.62875 26.06541016 5.62875 26.06541016 5.25 27.15234375 C3.85250908 30.33600274 2.09601688 32.79221298 0 35.5625 C-3.95286325 40.80149706 -6.10795789 44.45835788 -7 51 C-0.90363923 47.70796518 4.34737669 44.19362659 8.6875 38.6875 C9.450625 37.800625 10.21375 36.91375 11 36 C11.99 36 12.98 36 14 36 C14 37.32 14 38.64 14 40 C13.34 40 12.68 40 12 40 C11.73832031 40.5878125 11.47664062 41.175625 11.20703125 41.78125 C9.17901178 45.50913045 6.06537819 48.1157273 3 51 C1.824375 52.175625 1.824375 52.175625 0.625 53.375 C-3.0533963 55.65210247 -6.70523763 56.04218824 -11 56 C-13 55 -13 55 -13.7734375 53.28515625 C-15.61041786 46.49787168 -14.25134313 42.11956621 -11 36 C-9.75402838 33.89690025 -8.45253264 31.9712943 -7 30 C-17.38223799 36.10004733 -17.38223799 36.10004733 -25 45 C-25.66 45 -26.32 45 -27 45 C-27.28875 45.763125 -27.5775 46.52625 -27.875 47.3125 C-29 50 -29 50 -31 53 C-31.66 53 -32.32 53 -33 53 C-33.66 54.32 -34.32 55.64 -35 57 C-36.65 56.67 -38.3 56.34 -40 56 C-40.33 55.01 -40.66 54.02 -41 53 C-41.86625 53.66 -42.7325 54.32 -43.625 55 C-47.24699556 57.14636774 -48.88546618 57.73147268 -53 57 C-55.90279939 54.67776049 -55.99900483 53.00838787 -56.4375 49.3125 C-56.30065684 45.02206452 -54.77980351 41.67919171 -52.875 37.8828125 C-51.85951902 36.04374842 -51.85951902 36.04374842 -52 34 C-57.47483231 38.99952533 -61.79450091 44.60674396 -66.08203125 50.62109375 C-66.71496094 51.40613281 -67.34789062 52.19117188 -68 53 C-68.66 53 -69.32 53 -70 53 C-70.66 54.32 -71.32 55.64 -72 57 C-75.875 56.125 -75.875 56.125 -77 55 C-77.07179964 53.48071962 -77.08392007 51.95832518 -77.0625 50.4375 C-77.05347656 49.61121094 -77.04445313 48.78492188 -77.03515625 47.93359375 C-77.02355469 47.29550781 -77.01195312 46.65742188 -77 46 C-77.33 46.33 -77.66 46.66 -78 47 C-78.66 47 -79.32 47 -80 47 C-80.226875 47.5775 -80.45375 48.155 -80.6875 48.75 C-82.78402193 52.34403759 -85.11414559 54.43184785 -89.15234375 55.6484375 C-91.56024443 56.07312547 -93.56786162 56.26876892 -96 56 C-99.32375203 53.50718598 -100.68934755 51.93195734 -102 48 C-102.47050781 48.48210937 -102.94101562 48.96421875 -103.42578125 49.4609375 C-104.04839844 50.09257812 -104.67101562 50.72421875 -105.3125 51.375 C-105.92738281 52.00148438 -106.54226563 52.62796875 -107.17578125 53.2734375 C-110.14490788 56.08361731 -111.74751397 56.97149351 -115.875 57.4375 C-119.25646168 57.33767825 -120.04403368 56.96972685 -123 54.9375 C-125.60084558 51.11750805 -125.74839443 49.56520602 -125 45 C-123.09082912 40.38851004 -120.76628245 36.14942367 -118 32 C-117.34 32 -116.68 32 -116 32 C-116 31.34 -116 30.68 -116 30 C-115.34 30 -114.68 30 -114 30 C-114 29.34 -114 28.68 -114 28 C-113.34 28 -112.68 28 -112 28 C-112 27.34 -112 26.68 -112 26 C-110.390625 24.5625 -110.390625 24.5625 -108.25 23 C-107.55390625 22.484375 -106.8578125 21.96875 -106.140625 21.4375 C-102.62029389 19.07348203 -99.7316151 17.74272231 -95.5 17.25 C-94.37078125 17.10304687 -94.37078125 17.10304687 -93.21875 16.953125 C-90.61228369 17.00819119 -89.18367935 17.60167902 -87 19 C-86.505 19.99 -86.505 19.99 -86 21 C-84.35636866 21.72159424 -82.68949614 22.39351421 -81 23 C-81.47746441 27.92656457 -82.81862105 30.58064085 -85.875 34.4375 C-89.99399404 39.87043838 -93 43.98936049 -93 51 C-88.52167812 49.46457536 -84.19572974 47.39145948 -82 43 C-81.34 43 -80.68 43 -80 43 C-79.731875 42.4225 -79.46375 41.845 -79.1875 41.25 C-77.97070811 38.94449957 -76.69666121 36.97943808 -75 35 C-74.34 35 -73.68 35 -73 35 C-72.71125 34.401875 -72.4225 33.80375 -72.125 33.1875 C-71 31 -71 31 -69 28 C-68.34 28 -67.68 28 -67 28 C-66.731875 27.4225 -66.46375 26.845 -66.1875 26.25 C-64.93472464 23.87632037 -63.86872235 21.93793429 -62 20 C-59.3125 19.75 -59.3125 19.75 -57 20 C-56.25390625 22.10546875 -56.25390625 22.10546875 -56 25 C-57.65234375 28.11328125 -57.65234375 28.11328125 -59.9375 31.3125 C-60.68902344 32.38113281 -61.44054687 33.44976562 -62.21484375 34.55078125 C-62.80394531 35.35902344 -63.39304687 36.16726562 -64 37 C-61.24065426 34.82643716 -58.53004721 32.61212436 -55.87890625 30.30859375 C-55.33556641 29.83873047 -54.79222656 29.36886719 -54.23242188 28.88476562 C-53.11943027 27.9201729 -52.01003789 26.95141143 -50.90429688 25.97851562 C-47.48507233 23.03676859 -44.23210733 20.70451771 -40 19 C-36.125 19.3125 -36.125 19.3125 -33 20 C-33 21.65 -33 23.3 -33 25 C-33.66 25 -34.32 25 -35 25 C-35.37511719 26.09054688 -35.37511719 26.09054688 -35.7578125 27.203125 C-37.10415097 30.23450343 -38.70881052 32.24866422 -40.875 34.75 C-45.03834171 39.81413746 -49 45.23245091 -49 52 C-39.41161583 46.06433361 -33.01367244 40.18907624 -28 30 C-27.34 30 -26.68 30 -26 30 C-25.88785156 29.43410156 -25.77570313 28.86820313 -25.66015625 28.28515625 C-22.73202116 18.14930403 -13.84165598 6.91910822 -6 0 C-3.50907189 -1.24546405 -2.58919267 -0.7767578 0 0 Z M-112.89453125 37.57421875 C-116.22892333 41.41588384 -118.80546901 44.7142609 -119.25 49.9375 C-119.1675 50.618125 -119.085 51.29875 -119 52 C-116.79561167 52.87754191 -116.79561167 52.87754191 -114 53 C-110.66892836 51.30755015 -110.66892836 51.30755015 -108 49 C-108 48.34 -108 47.68 -108 47 C-107.34 47 -106.68 47 -106 47 C-102.36366461 43.52001493 -102.36366461 43.52001493 -101 39 C-100.34 39 -99.68 39 -99 39 C-97.40651139 37.05385473 -97.40651139 37.05385473 -95.875 34.625 C-95.33617187 33.81289062 -94.79734375 33.00078125 -94.2421875 32.1640625 C-92.8340587 30.12677974 -92.8340587 30.12677974 -93 28 C-92.34 28 -91.68 28 -91 28 C-90.34 26.35 -89.68 24.7 -89 23 C-98.61359629 22.20605848 -106.7368794 31.12287921 -112.89453125 37.57421875 Z M-66 39 C-65 41 -65 41 -65 41 Z " fill="#242424" transform="translate(468,205)"/>
<path d="M0 0 C0.83128418 0.00088623 1.66256836 0.00177246 2.51904297 0.00268555 C8.61093925 0.12004361 14.53226156 0.69691113 19.625 4.375 C20.12 5.86 20.12 5.86 20.625 7.375 C21.285 7.375 21.945 7.375 22.625 7.375 C24.63498858 11.52060144 24.94670051 14.79076771 24.625 19.375 C24.295 20.32375 23.965 21.2725 23.625 22.25 C22.70149142 25.13596431 22.56767264 26.62933466 22.6875 29.5625 C22.8582022 38.79593728 19.77706966 47.43464286 13.625 54.375 C12.965 54.375 12.305 54.375 11.625 54.375 C11.625 55.035 11.625 55.695 11.625 56.375 C10.965 56.375 10.305 56.375 9.625 56.375 C9.625 57.035 9.625 57.695 9.625 58.375 C8.965 58.375 8.305 58.375 7.625 58.375 C7.625 59.035 7.625 59.695 7.625 60.375 C5.975 61.035 4.325 61.695 2.625 62.375 C2.625 63.035 2.625 63.695 2.625 64.375 C-8.68283673 73.01319568 -22.10471337 78.09893791 -36.375 78.375 C-37.32375 78.40207031 -38.2725 78.42914063 -39.25 78.45703125 C-47.32314067 78.5776896 -53.81298735 78.62461012 -60.375 73.375 C-65.74037457 67.71154907 -66.85268514 62.03601659 -66.6875 54.4375 C-65.73558558 45.10873865 -62.21409282 35.7656232 -56.375 28.375 C-55.715 28.375 -55.055 28.375 -54.375 28.375 C-54.148125 27.818125 -53.92125 27.26125 -53.6875 26.6875 C-51.99949964 23.71340412 -49.90823483 21.65491135 -47.375 19.375 C-46.715 19.375 -46.055 19.375 -45.375 19.375 C-45.375 18.715 -45.375 18.055 -45.375 17.375 C-42.99008245 15.66500201 -40.62043802 14.09659916 -38.125 12.5625 C-37.39861328 12.11326172 -36.67222656 11.66402344 -35.92382812 11.20117188 C-24.62428827 4.35386936 -13.28771171 -0.02545539 0 0 Z M-29.375 13.375 C-30.48746094 14.06722656 -31.59992188 14.75945312 -32.74609375 15.47265625 C-33.61363281 16.10042969 -34.48117187 16.72820312 -35.375 17.375 C-35.375 18.035 -35.375 18.695 -35.375 19.375 C-36.035 19.375 -36.695 19.375 -37.375 19.375 C-37.375 20.035 -37.375 20.695 -37.375 21.375 C-37.95507812 21.6121875 -38.53515625 21.849375 -39.1328125 22.09375 C-48.89537398 27.67235656 -55.52965546 42.16074059 -58.6796875 52.484375 C-60.04264138 58.15058776 -60.39152052 62.93366249 -57.75 68.25 C-55.06724878 71.77993582 -53.46054804 72.7550327 -49.375 74.375 C-46.56380521 74.68892618 -44.05121527 74.85265739 -41.25 74.8125 C-40.50081299 74.80420166 -39.75162598 74.79590332 -38.97973633 74.78735352 C-22.38421766 74.28811995 -8.00352238 64.64370875 3.625 53.375 C9.80153829 46.20290202 9.80153829 46.20290202 12.625 37.375 C10.08826712 38.7303326 10.08826712 38.7303326 7.625 40.375 C7.625 41.035 7.625 41.695 7.625 42.375 C6.92375 42.6225 6.2225 42.87 5.5 43.125 C2.47945734 44.3323291 2.47945734 44.3323291 -0.5 46.5 C-3.375 48.375 -3.375 48.375 -6.375 48.375 C-5.715 47.92125 -5.055 47.4675 -4.375 47 C-3.715 46.46375 -3.055 45.9275 -2.375 45.375 C-2.375 44.715 -2.375 44.055 -2.375 43.375 C-1.715 43.375 -1.055 43.375 -0.375 43.375 C-0.375 42.715 -0.375 42.055 -0.375 41.375 C0.17542969 41.13394531 0.72585938 40.89289063 1.29296875 40.64453125 C4.16359432 39.08179539 6.46107036 37.19488153 8.9375 35.0625 C9.84113281 34.30324219 10.74476563 33.54398438 11.67578125 32.76171875 C13.92224876 30.55145523 13.92224876 30.55145523 13.51171875 27.76953125 C10.81152053 20.47780655 6.41890432 17.51546038 -0.375 14.375 C-3.93586658 13.18804447 -7.34831024 13.02404582 -11.0625 12.8125 C-11.76439453 12.76931641 -12.46628906 12.72613281 -13.18945312 12.68164062 C-14.91775206 12.5758264 -16.6463511 12.47493419 -18.375 12.375 C-18.375 11.715 -18.375 11.055 -18.375 10.375 C4.02094649 9.57139165 4.02094649 9.57139165 12.625 14.375 C13.615 14.705 14.605 15.035 15.625 15.375 C15.625 16.035 15.625 16.695 15.625 17.375 C16.285 17.375 16.945 17.375 17.625 17.375 C17.625 18.035 17.625 18.695 17.625 19.375 C18.285 19.375 18.945 19.375 19.625 19.375 C19.5886004 14.12164892 19.5886004 14.12164892 17.28125 9.578125 C3.92941512 -2.68128703 -16.07589571 5.05187282 -29.375 13.375 Z " fill="#272727" transform="translate(326.375,189.625)"/>
<path d="M0 0 C1 1 1 1 1.2421875 3.29296875 C0.95528797 6.4997651 0.09871155 7.80522528 -1.875 10.3125 C-2.40867187 11.00988281 -2.94234375 11.70726562 -3.4921875 12.42578125 C-3.98976563 12.94527344 -4.48734375 13.46476563 -5 14 C-5.66 14 -6.32 14 -7 14 C-7.2475 14.680625 -7.495 15.36125 -7.75 16.0625 C-8.73883308 18.38625775 -9.77032071 20.35263296 -11.0625 22.5 C-12.71414076 25.30594731 -13.60352564 27.72908654 -14 31 C-8.62989853 31 -4.8676202 26.44787847 -1 23 C1.14693728 20.74339598 3.06393633 18.44555411 5 16 C5.66 16.33 6.32 16.66 7 17 C5.68210992 22.1949388 3.57366509 24.91625381 -0.25 28.625 C-1.18328125 29.54539063 -2.1165625 30.46578125 -3.078125 31.4140625 C-10.24791418 37.75951763 -10.24791418 37.75951763 -15.1875 38.4375 C-18.38374232 37.94030675 -19.06100944 37.49617176 -21 35 C-23.01845382 26.75406852 -19.01263036 19.95044901 -15 13 C-15.78375 13.825 -16.5675 14.65 -17.375 15.5 C-20 18 -20 18 -22 18 C-22 18.66 -22 19.32 -22 20 C-22.66 20 -23.32 20 -24 20 C-24.23847656 20.54527344 -24.47695312 21.09054688 -24.72265625 21.65234375 C-26.32163352 24.59113683 -28.30355486 26.98704897 -30.4375 29.5625 C-31.21996094 30.51253906 -32.00242188 31.46257812 -32.80859375 32.44140625 C-36.52267686 36.77781345 -36.52267686 36.77781345 -38 38 C-38.99 38 -39.98 38 -41 38 C-41 37.34 -41 36.68 -41 36 C-41.66 36 -42.32 36 -43 36 C-43.125 29.375 -43.125 29.375 -42 26 C-42.66 26 -43.32 26 -44 26 C-44 26.66 -44 27.32 -44 28 C-46.03159135 29.59433816 -48.05195863 31.05787606 -50.1875 32.5 C-50.76564453 32.90347656 -51.34378906 33.30695313 -51.93945312 33.72265625 C-57.90978345 37.81081464 -62.7776793 39.95030536 -70 39 C-73.92013204 37.29559476 -75.25773993 35.79844086 -77 32 C-77.51949219 32.44472656 -78.03898438 32.88945312 -78.57421875 33.34765625 C-84.34133791 38.02744425 -84.34133791 38.02744425 -88 37.875 C-88.99 37.441875 -88.99 37.441875 -90 37 C-90 36.01 -90 35.02 -90 34 C-89.41992188 33.72027344 -88.83984375 33.44054687 -88.2421875 33.15234375 C-81.11417779 29.49423976 -76.43134158 25.29359582 -73 18 C-72.34 18 -71.68 18 -71 18 C-70.34 16.35 -69.68 14.7 -69 13 C-68.34 13 -67.68 13 -67 13 C-67 12.34 -67 11.68 -67 11 C-66.34 11 -65.68 11 -65 11 C-65 10.34 -65 9.68 -65 9 C-64.34 9 -63.68 9 -63 9 C-63 8.34 -63 7.68 -63 7 C-58.73629354 3.62747809 -54.11836051 0.60346109 -48.5625 0.5 C-45 1 -45 1 -42 3 C-41.43262411 10.14893617 -41.43262411 10.14893617 -44 14 C-44.66 14 -45.32 14 -46 14 C-46 14.66 -46 15.32 -46 16 C-52.28919413 21.68790167 -59.96552699 23.8889329 -68 26 C-68.33 28.64 -68.66 31.28 -69 34 C-61.95003674 34.91956043 -57.63753673 32.03057533 -52 28 C-46.79957479 24.10799535 -46.79957479 24.10799535 -43 19 C-42.34 19 -41.68 19 -41 19 C-40.7628125 18.46890625 -40.525625 17.9378125 -40.28125 17.390625 C-38.62621616 14.30257405 -36.59451872 11.5471528 -34.5 8.75 C-34.09652344 8.19570312 -33.69304687 7.64140625 -33.27734375 7.0703125 C-32.23549829 5.67430835 -31.12254588 4.33197608 -30 3 C-29.34 3 -28.68 3 -28 3 C-28 2.34 -28 1.68 -28 1 C-26.33388095 0.957279 -24.66617115 0.95936168 -23 1 C-22 2 -22 2 -21.8125 4.375 C-22 7 -22 7 -24 10 C-24.66 10 -25.32 10 -26 10 C-26.309375 10.928125 -26.61875 11.85625 -26.9375 12.8125 C-27.625 14.875 -28.3125 16.9375 -29 19 C-28.44570312 18.4225 -27.89140625 17.845 -27.3203125 17.25 C-26.59585938 16.5075 -25.87140625 15.765 -25.125 15 C-24.40570313 14.2575 -23.68640625 13.515 -22.9453125 12.75 C-21 11 -21 11 -19 11 C-19 10.34 -19 9.68 -19 9 C-17.2614204 7.57831868 -15.45776019 6.23550882 -13.625 4.9375 C-12.62726563 4.22464844 -11.62953125 3.51179687 -10.6015625 2.77734375 C-6.73912233 0.13858958 -4.68527238 -0.19937329 0 0 Z M-54 8 C-54 8.66 -54 9.32 -54 10 C-54.58265625 10.25652344 -55.1653125 10.51304687 -55.765625 10.77734375 C-58.19710839 12.10785826 -59.81735553 13.58443013 -61.75 15.5625 C-62.36359375 16.18253906 -62.9771875 16.80257812 -63.609375 17.44140625 C-65.11095926 18.77622963 -65.11095926 18.77622963 -65 20 C-59.92387682 20.61528766 -57.17017994 18.61658349 -53 16 C-53 15.34 -53 14.68 -53 14 C-52.401875 13.773125 -51.80375 13.54625 -51.1875 13.3125 C-48.43648112 11.66188867 -47.47515363 9.8027919 -46 7 C-49.40254489 5.7848054 -50.93251126 6.13759612 -54 8 Z " fill="#252525" transform="translate(235,224)"/>
<path d="M0 0 C0.99 0.33 1.98 0.66 3 1 C3 2.32 3 3.64 3 5 C1.1015625 6.703125 1.1015625 6.703125 -1.375 8.25 C-2.18710937 8.77078125 -2.99921875 9.2915625 -3.8359375 9.828125 C-6 11 -6 11 -8 11 C-8 11.66 -8 12.32 -8 13 C-8.66 13 -9.32 13 -10 13 C-10 13.66 -10 14.32 -10 15 C-10.7321875 15.57492188 -11.464375 16.14984375 -12.21875 16.7421875 C-21.10476029 23.95583069 -28.76948825 37.84744124 -31 49 C-31.54393462 54.60446925 -31.41428702 58.30535534 -28 63 C-28 63.66 -28 64.32 -28 65 C-22.9781656 66.97343652 -18.44415968 67.4086274 -13.125 67.625 C-12.34125 67.66367187 -11.5575 67.70234375 -10.75 67.7421875 C-8.83368633 67.83566622 -6.91687681 67.91888495 -5 68 C-5.495 69.485 -5.495 69.485 -6 71 C-12.37260066 73.12420022 -20.53004241 72.52234296 -27 71 C-32.26591588 68.10890893 -35.66348859 64.80667396 -38.25 59.375 C-41.11742251 46.47159869 -37.1266541 34.74524723 -30.3671875 23.73046875 C-29.91601562 23.15941406 -29.46484375 22.58835938 -29 22 C-28.34 22 -27.68 22 -27 22 C-26.773125 21.443125 -26.54625 20.88625 -26.3125 20.3125 C-24.62449964 17.33840412 -22.53323483 15.27991135 -20 13 C-19.34 13 -18.68 13 -18 13 C-18 12.34 -18 11.68 -18 11 C-16.56298828 9.87084961 -16.56298828 9.87084961 -14.5703125 8.65234375 C-13.85746094 8.21212891 -13.14460938 7.77191406 -12.41015625 7.31835938 C-11.27900391 6.63483398 -11.27900391 6.63483398 -10.125 5.9375 C-9.37863281 5.47794922 -8.63226563 5.01839844 -7.86328125 4.54492188 C-2.46056548 1.23028274 -2.46056548 1.23028274 0 0 Z " fill="#212121" transform="translate(299,196)"/>
<path d="M0 0 C0.99 0.66 1.98 1.32 3 2 C3.56737589 9.14893617 3.56737589 9.14893617 1 13 C0.34 13 -0.32 13 -1 13 C-1 13.66 -1 14.32 -1 15 C-7.28919413 20.68790167 -14.96552699 22.8889329 -23 25 C-23.33 27.64 -23.66 30.28 -24 33 C-15.25260514 34.14096455 -9.16145768 28.70269914 -2.5 23.625 C-1.8709375 23.12226563 -1.241875 22.61953125 -0.59375 22.1015625 C1 21 1 21 3 21 C3 22.32 3 23.64 3 25 C2.34 25 1.68 25 1 25 C1 25.66 1 26.32 1 27 C-1.03159135 28.59433816 -3.05195863 30.05787606 -5.1875 31.5 C-5.76564453 31.90347656 -6.34378906 32.30695313 -6.93945312 32.72265625 C-12.90978345 36.81081464 -17.7776793 38.95030536 -25 38 C-28.92013204 36.29559476 -30.25773993 34.79844086 -32 31 C-32.51949219 31.44472656 -33.03898438 31.88945312 -33.57421875 32.34765625 C-39.34133791 37.02744425 -39.34133791 37.02744425 -43 36.875 C-43.99 36.441875 -43.99 36.441875 -45 36 C-45 35.01 -45 34.02 -45 33 C-44.41992188 32.72027344 -43.83984375 32.44054687 -43.2421875 32.15234375 C-36.11417779 28.49423976 -31.43134158 24.29359582 -28 17 C-27.34 17 -26.68 17 -26 17 C-25.34 15.35 -24.68 13.7 -24 12 C-23.34 12 -22.68 12 -22 12 C-22 11.34 -22 10.68 -22 10 C-21.34 10 -20.68 10 -20 10 C-20 9.34 -20 8.68 -20 8 C-19.34 8 -18.68 8 -18 8 C-18 7.34 -18 6.68 -18 6 C-12.26663564 1.46500278 -7.29924513 -1.02445546 0 0 Z M-9 7 C-9 7.66 -9 8.32 -9 9 C-9.58265625 9.25652344 -10.1653125 9.51304687 -10.765625 9.77734375 C-13.19710839 11.10785826 -14.81735553 12.58443013 -16.75 14.5625 C-17.36359375 15.18253906 -17.9771875 15.80257812 -18.609375 16.44140625 C-20.11095926 17.77622963 -20.11095926 17.77622963 -20 19 C-14.92387682 19.61528766 -12.17017994 17.61658349 -8 15 C-8 14.34 -8 13.68 -8 13 C-7.401875 12.773125 -6.80375 12.54625 -6.1875 12.3125 C-3.43648112 10.66188867 -2.47515363 8.8027919 -1 6 C-4.40254489 4.7848054 -5.93251126 5.13759612 -9 7 Z " fill="#292929" transform="translate(190,225)"/>
<path d="M0 0 C0.33 1.65 0.66 3.3 1 5 C0.34 5 -0.32 5 -1 5 C-1.2475 5.71027344 -1.495 6.42054688 -1.75 7.15234375 C-3.14749092 10.33600274 -4.90398312 12.79221298 -7 15.5625 C-10.95286325 20.80149706 -13.10795789 24.45835788 -14 31 C-7.90363923 27.70796518 -2.65262331 24.19362659 1.6875 18.6875 C2.450625 17.800625 3.21375 16.91375 4 16 C4.99 16 5.98 16 7 16 C7 17.32 7 18.64 7 20 C6.34 20 5.68 20 5 20 C4.60748047 20.88171875 4.60748047 20.88171875 4.20703125 21.78125 C2.17901178 25.50913045 -0.93462181 28.1157273 -4 31 C-5.175625 32.175625 -5.175625 32.175625 -6.375 33.375 C-10.0533963 35.65210247 -13.70523763 36.04218824 -18 36 C-20 35 -20 35 -20.7734375 33.28515625 C-22.61041786 26.49787168 -21.25134313 22.11956621 -18 16 C-16.75402838 13.89690025 -15.45253264 11.9712943 -14 10 C-17.96 11.98 -17.96 11.98 -22 14 C-22 12.33333333 -22 10.66666667 -22 9 C-20.68 8.67 -19.36 8.34 -18 8 C-18 7.34 -18 6.68 -18 6 C-15 4 -15 4 -12 4 C-12 3.34 -12 2.68 -12 2 C-8.09971775 -0.60018816 -4.52565431 -0.15085514 0 0 Z " fill="#232323" transform="translate(475,225)"/>
<path d="M0 0 C0.12375 0.804375 0.2475 1.60875 0.375 2.4375 C0.58125 3.283125 0.7875 4.12875 1 5 C1.66 5.33 2.32 5.66 3 6 C2.01 6 1.02 6 0 6 C0 5.34 0 4.68 0 4 C-11.41886571 7.83807386 -21.99744271 15.22183053 -28.4375 25.625 C-29.91807941 28.82305152 -30.41798607 30.55161496 -30 34 C-28.02 34.33 -26.04 34.66 -24 35 C-24 36.32 -24 37.64 -24 39 C-31.12208505 39.60356653 -31.12208505 39.60356653 -35 36.9375 C-37.60084558 33.11750805 -37.74839443 31.56520602 -37 27 C-35.09082912 22.38851004 -32.76628245 18.14942367 -30 14 C-29.34 14 -28.68 14 -28 14 C-28 13.34 -28 12.68 -28 12 C-27.34 12 -26.68 12 -26 12 C-26 11.34 -26 10.68 -26 10 C-25.34 10 -24.68 10 -24 10 C-24 9.34 -24 8.68 -24 8 C-22.390625 6.5625 -22.390625 6.5625 -20.25 5 C-19.55390625 4.484375 -18.8578125 3.96875 -18.140625 3.4375 C-12.18067493 -0.56480224 -7.08655103 -1.51854665 0 0 Z " fill="#1F1F1F" transform="translate(380,223)"/>
<path d="M0 0 C2.72916681 2.72916681 2.79290703 4.13426465 3 8 C1.77806933 14.68208933 -0.61887492 19.83251914 -5 25 C-5.66 25 -6.32 25 -7 25 C-7 25.66 -7 26.32 -7 27 C-7.66 27 -8.32 27 -9 27 C-9 27.66 -9 28.32 -9 29 C-9.66 29 -10.32 29 -11 29 C-11 29.66 -11 30.32 -11 31 C-16.89345906 35.7698463 -23.19440382 39.78212387 -31 39 C-34.0625 38 -34.0625 38 -36 36 C-36.3125 32.3125 -36.3125 32.3125 -36 29 C-34.68 28.67 -33.36 28.34 -32 28 C-31.67 29.32 -31.34 30.64 -31 32 C-24.80086093 31.5649727 -21.26184853 30.26234609 -16 27 C-15.34 27 -14.68 27 -14 27 C-14 26.34 -14 25.68 -14 25 C-12.34997172 23.64613064 -10.6825613 22.31321858 -9 21 C-8.67 20.34 -8.34 19.68 -8 19 C-7.34 19 -6.68 19 -6 19 C-3.34349136 12.19179489 -3.34349136 12.19179489 -3 5 C-4.21397319 3.55817493 -4.21397319 3.55817493 -7.8125 3.875 C-10.68917975 3.90598757 -13.24772999 4.08257666 -16 5 C-17.32 3.35 -18.64 1.7 -20 0 C-13.06301531 -1.94722377 -6.74237625 -3.46750779 0 0 Z " fill="#323232" transform="translate(73,210)"/>
<path d="M0 0 C2.41700572 1.69474754 4.31397216 3.57598017 6 6 C6.375 8.875 6.375 8.875 6 11 C2.625 10.6875 2.625 10.6875 -1 10 C-1.66 9.01 -2.32 8.02 -3 7 C-5.99005594 7.42715085 -7.95991797 7.97555974 -10.5625 9.5625 C-13 11 -13 11 -17 11 C-15.58590577 7.60470083 -13.97643772 5.94087183 -11 3.8125 C-9.948125 3.04873047 -9.948125 3.04873047 -8.875 2.26953125 C-5.72548178 0.13704496 -3.81886673 -0.60754698 0 0 Z " fill="#2C2C2C" transform="translate(193,211)"/>
<path d="M0 0 C2.5625 0.1875 2.5625 0.1875 4.5625 2.1875 C4.84884574 4.19192018 5.13173296 6.19851294 5.31640625 8.21484375 C5.52297055 10.3961702 5.52297055 10.3961702 6.5625 13.1875 C2.9325 13.1875 -0.6975 13.1875 -4.4375 13.1875 C-5.46613219 8.04433904 -5.10355317 6.00054249 -3.4375 1.1875 C-2.4375 0.1875 -2.4375 0.1875 0 0 Z M-1.4375 3.1875 C-0.7775 3.8475 -0.1175 4.5075 0.5625 5.1875 C0.5625 4.5275 0.5625 3.8675 0.5625 3.1875 C-0.0975 3.1875 -0.7575 3.1875 -1.4375 3.1875 Z M-1.4375 9.1875 C-1.4375 9.8475 -1.4375 10.5075 -1.4375 11.1875 C-0.7775 10.8575 -0.1175 10.5275 0.5625 10.1875 C-0.0975 9.8575 -0.7575 9.5275 -1.4375 9.1875 Z " fill="#424242" transform="translate(245.4375,279.8125)"/>
<path d="M0 0 C2.375 2 2.375 2 4 4 C3.67 4.66 3.34 5.32 3 6 C2.01 6 1.02 6 0 6 C0 5.34 0 4.68 0 4 C-1.98 4 -3.96 4 -6 4 C-5.34 5.98 -4.68 7.96 -4 10 C-3.4225 9.67 -2.845 9.34 -2.25 9 C0 8 0 8 4 8 C2.125 11.875 2.125 11.875 1 13 C-6.25717501 13.58525605 -6.25717501 13.58525605 -9.0625 11.375 C-10.33302894 8.15632669 -9.98013473 6.29045231 -9 3 C-6.6975944 -0.63537727 -4.0732876 -0.58189823 0 0 Z " fill="#606060" transform="translate(215,280)"/>
<path d="M0 0 C1.875 1.3125 1.875 1.3125 3 3 C3 3.99 3 4.98 3 6 C2.01 6 1.02 6 0 6 C0 5.34 0 4.68 0 4 C-1.98 4 -3.96 4 -6 4 C-5.34 5.98 -4.68 7.96 -4 10 C-3.4225 9.67 -2.845 9.34 -2.25 9 C0 8 0 8 4 8 C3 10.5 3 10.5 1 13 C-1.7792211 13.70059532 -4.21062815 13.62760867 -7 13 C-9.45636081 10.92744557 -9.88864581 9.63630966 -10.4375 6.5 C-9.40858438 0.62048215 -5.51867775 -0.82193073 0 0 Z " fill="#848484" transform="translate(330,280)"/>
<path d="M0 0 C6.625 -0.25 6.625 -0.25 10 2 C10.1875 4.375 10.1875 4.375 10 7 C10 8.32 10 9.64 10 11 C10 11.66 10 12.32 10 13 C8.68 13 7.36 13 6 13 C5.34 12.01 4.68 11.02 4 10 C3.67 10.99 3.34 11.98 3 13 C2.01 13 1.02 13 0 13 C0 8.71 0 4.42 0 0 Z M3 3 C3 3.99 3 4.98 3 6 C4.32 5.67 5.64 5.34 7 5 C6.67 4.34 6.34 3.68 6 3 C5.01 3 4.02 3 3 3 Z " fill="#868686" transform="translate(300,280)"/>
<path d="M0 0 C6 0 6 0 9 2 C9.125 4.375 9.125 4.375 9 7 C9.20625 7.721875 9.4125 8.44375 9.625 9.1875 C9.74875 9.785625 9.8725 10.38375 10 11 C8 13 8 13 6.0546875 13.1953125 C4.03645833 13.13020833 2.01822917 13.06510417 0 13 C0 8.71 0 4.42 0 0 Z M3 3 C3 3.66 3 4.32 3 5 C3.99 5 4.98 5 6 5 C6 4.34 6 3.68 6 3 C5.01 3 4.02 3 3 3 Z M3 8 C3 8.99 3 9.98 3 11 C3.99 10.67 4.98 10.34 6 10 C6 9.34 6 8.68 6 8 C5.01 8 4.02 8 3 8 Z " fill="#232323" transform="translate(287,280)"/>
<path d="M0 0 C0.66 0.66 1.32 1.32 2 2 C1.66666667 3.33333333 1.33333333 4.66666667 1 6 C1.66 6.66 2.32 7.32 3 8 C2.625 10.625 2.625 10.625 2 13 C-0.64 13 -3.28 13 -6 13 C-7.0625 11.125 -7.0625 11.125 -8 9 C-7.67 8.34 -7.34 7.68 -7 7 C-6.960008 5.00039988 -6.95653201 2.99952758 -7 1 C-4.48718205 -0.25640898 -2.78302919 -0.20872719 0 0 Z M-4 3 C-4 3.66 -4 4.32 -4 5 C-3.01 5 -2.02 5 -1 5 C-1 4.34 -1 3.68 -1 3 C-1.99 3 -2.98 3 -4 3 Z M-4 8 C-3.67 8.99 -3.34 9.98 -3 11 C-2.34 11 -1.68 11 -1 11 C-1.33 10.01 -1.66 9.02 -2 8 C-2.66 8 -3.32 8 -4 8 Z " fill="#4C4C4C" transform="translate(344,280)"/>
<path d="M0 0 C0 1.32 0 2.64 0 4 C-0.66 4 -1.32 4 -2 4 C-2 4.66 -2 5.32 -2 6 C-4.03062341 7.6203364 -6.04722813 9.10101986 -8.1875 10.5625 C-9.0547168 11.1802832 -9.0547168 11.1802832 -9.93945312 11.81054688 C-13.25237632 14.09777407 -15.97484092 15.56792078 -20 16 C-20 14.68 -20 13.36 -20 12 C-18.05859375 10.5078125 -18.05859375 10.5078125 -15.4375 9.125 C-11.28599529 6.81991523 -7.89515163 4.38110353 -4.47265625 1.1015625 C-3 0 -3 0 0 0 Z " fill="#3E3E3E" transform="translate(193,246)"/>
<path d="M0 0 C0.99 0 1.98 0 3 0 C3.83790789 1.78953185 4.67019396 3.58169695 5.5 5.375 C5.9640625 6.37273437 6.428125 7.37046875 6.90625 8.3984375 C8 11 8 11 8 13 C6.68 13 5.36 13 4 13 C4 12.34 4 11.68 4 11 C2.35 11 0.7 11 -1 11 C-1 11.66 -1 12.32 -1 13 C-1.99 13 -2.98 13 -4 13 C-3.27991594 8.39146203 -1.68704061 4.32762591 0 0 Z M1 6 C2 8 2 8 2 8 Z " fill="#525252" transform="translate(196,280)"/>
<path d="M0 0 C0.99 0 1.98 0 3 0 C3.67595315 1.41225926 4.34040059 2.83002905 5 4.25 C5.37125 5.03890625 5.7425 5.8278125 6.125 6.640625 C7 9 7 9 7 13 C6.01 13 5.02 13 4 13 C4 12.34 4 11.68 4 11 C2.35 11 0.7 11 -1 11 C-1 11.66 -1 12.32 -1 13 C-1.99 13 -2.98 13 -4 13 C-3.40895235 8.15340923 -2.02055843 4.39251833 0 0 Z M1 5 C2 8 2 8 2 8 Z " fill="#404040" transform="translate(276,280)"/>
<path d="M0 0 C0.66 0.33 1.32 0.66 2 1 C0.70527917 6.25687856 -1.75885386 9.26398026 -5.625 12.875 C-6.140625 13.37257812 -6.65625 13.87015625 -7.1875 14.3828125 C-8.44935632 15.5979334 -9.72346286 16.80031125 -11 18 C-13.475 17.01 -13.475 17.01 -16 16 C-13.61292343 13.54472124 -11.27958729 11.21506715 -8.5625 9.125 C-5.2865342 6.40834544 -2.68658136 3.28667685 0 0 Z " fill="#4E4E4E" transform="translate(240,240)"/>
<path d="M0 0 C0.25 7.625 0.25 7.625 -2 11 C-2.66 11 -3.32 11 -4 11 C-4 11.66 -4 12.32 -4 13 C-5.75 14.2890625 -5.75 14.2890625 -8 15.625 C-8.7425 16.07101563 -9.485 16.51703125 -10.25 16.9765625 C-10.8275 17.31429687 -11.405 17.65203125 -12 18 C-12.66 17.34 -13.32 16.68 -14 16 C-13.67 15.01 -13.34 14.02 -13 13 C-12.34 13 -11.68 13 -11 13 C-11 12.34 -11 11.68 -11 11 C-10.21625 10.38125 -9.4325 9.7625 -8.625 9.125 C-6.05442968 7.04406212 -5.31367025 5.90884126 -4 3 C-1.32142857 0 -1.32142857 0 0 0 Z " fill="#353535" transform="translate(193,227)"/>
<path d="M0 0 C2.64 0 5.28 0 8 0 C8 0.99 8 1.98 8 3 C6.35 3 4.7 3 3 3 C3 3.66 3 4.32 3 5 C4.65 5 6.3 5 8 5 C8 5.99 8 6.98 8 8 C6.35 8 4.7 8 3 8 C3 8.99 3 9.98 3 11 C4.65 11 6.3 11 8 11 C8 11.66 8 12.32 8 13 C5.36 13 2.72 13 0 13 C0 8.71 0 4.42 0 0 Z " fill="#5F5F5F" transform="translate(222,280)"/>
<path d="M0 0 C3.0625 0.25 3.0625 0.25 6.0625 2.25 C5.875 4.625 5.875 4.625 5.0625 7.25 C2.75 8.6875 2.75 8.6875 0.0625 9.25 C-2.1875 8.6875 -2.1875 8.6875 -3.9375 7.25 C-4.8125 4.75 -4.8125 4.75 -4.9375 2.25 C-2.9375 0.25 -2.9375 0.25 0 0 Z " fill="#2C2C2C" transform="translate(161.9375,214.75)"/>
<path d="M0 0 C0.99 0 1.98 0 3 0 C3 1.32 3 2.64 3 4 C2.34 4 1.68 4 1 4 C0.7421875 4.58265625 0.484375 5.1653125 0.21875 5.765625 C-1.09834017 8.1802903 -2.55088384 9.81740177 -4.5 11.75 C-5.41265625 12.67039063 -5.41265625 12.67039063 -6.34375 13.609375 C-8 15 -8 15 -10 15 C-10.33 13.68 -10.66 12.36 -11 11 C-9.6696875 9.948125 -9.6696875 9.948125 -8.3125 8.875 C-6.00887019 6.97885188 -4.14493508 5.03949746 -2.3125 2.6875 C-1.1678125 1.3571875 -1.1678125 1.3571875 0 0 Z " fill="#373737" transform="translate(479,241)"/>
<path d="M0 0 C2.31 0 4.62 0 7 0 C7 0.99 7 1.98 7 3 C5.68 3 4.36 3 3 3 C3 3.66 3 4.32 3 5 C4.32 5 5.64 5 7 5 C7 6.32 7 7.64 7 9 C5.68 9 4.36 9 3 9 C3 10.32 3 11.64 3 13 C2.01 13 1.02 13 0 13 C0 8.71 0 4.42 0 0 Z " fill="#545454" transform="translate(262,280)"/>
<path d="M0 0 C0.66 0 1.32 0 2 0 C2.8125 1.625 2.8125 1.625 3 4 C0.57858445 7.36307715 -1.5471426 9.69809507 -5 12 C-5.99 12 -6.98 12 -8 12 C-8.33 10.68 -8.66 9.36 -9 8 C-8.43410156 7.59007812 -7.86820312 7.18015625 -7.28515625 6.7578125 C-6.18494141 5.94957031 -6.18494141 5.94957031 -5.0625 5.125 C-4.33160156 4.59132812 -3.60070312 4.05765625 -2.84765625 3.5078125 C-0.88901765 2.11987896 -0.88901765 2.11987896 0 0 Z " fill="#474747" transform="translate(386,248)"/>
<path d="M0 0 C-1.75 3.875 -1.75 3.875 -4 5 C-5.66444461 5.0955931 -7.33281963 5.12984645 -9 5.125 C-9.886875 5.12757813 -10.77375 5.13015625 -11.6875 5.1328125 C-14 5 -14 5 -16 4 C-16 3.01 -16 2.02 -16 1 C-13.70952777 0.63818911 -11.41757055 0.28576776 -9.125 -0.0625 C-7.84882812 -0.25972656 -6.57265625 -0.45695312 -5.2578125 -0.66015625 C-2 -1 -2 -1 0 0 Z " fill="#434343" transform="translate(51,268)"/>
<path d="M0 0 C-0.6433848 1.313702 -1.28978215 2.62592898 -1.9375 3.9375 C-2.29714844 4.66839844 -2.65679687 5.39929688 -3.02734375 6.15234375 C-4 8 -4 8 -5 9 C-6.66617115 9.04063832 -8.33388095 9.042721 -10 9 C-10.33 7.35 -10.66 5.7 -11 4 C-7.20307814 1.17438373 -4.81430721 -0.56638908 0 0 Z " fill="#3F3F3F" transform="translate(167,266)"/>
<path d="M0 0 C0.33 0.66 0.66 1.32 1 2 C-0.32 3.32 -1.64 4.64 -3 6 C-2.34 6.33 -1.68 6.66 -1 7 C-2.62255228 8.48185125 -4.24811888 9.96040256 -5.875 11.4375 C-6.77992188 12.26121094 -7.68484375 13.08492187 -8.6171875 13.93359375 C-11 16 -11 16 -13 17 C-13.66 16.34 -14.32 15.68 -15 15 C-10.44384499 9.40243813 -5.73849846 4.42684167 0 0 Z " fill="#3D3D3D" transform="translate(424,226)"/>
<path d="M0 0 C0 0.33 0 0.66 0 1 C-1.08667969 1.29003906 -1.08667969 1.29003906 -2.1953125 1.5859375 C-7.18045615 2.92860286 -12.12594691 4.28749486 -17 6 C-17.33 4.35 -17.66 2.7 -18 1 C-11.29295907 -2.229316 -7.10480445 -2.02370454 0 0 Z " fill="#404040" transform="translate(319,194)"/>
<path d="M0 0 C5.61 0 11.22 0 17 0 C17.33 0.99 17.66 1.98 18 3 C12.06 3 6.12 3 0 3 C0 2.01 0 1.02 0 0 Z " fill="#616161" transform="translate(356,286)"/>
<path d="M0 0 C0 3.57811631 -0.86465142 4.26675381 -3 7 C-3.33 7.99 -3.66 8.98 -4 10 C-7 12 -7 12 -9.6875 11.625 C-10.450625 11.41875 -11.21375 11.2125 -12 11 C-12 10.01 -12 9.02 -12 8 C-11.38511719 7.67386719 -10.77023438 7.34773438 -10.13671875 7.01171875 C-8.92435547 6.35623047 -8.92435547 6.35623047 -7.6875 5.6875 C-6.88699219 5.25824219 -6.08648437 4.82898438 -5.26171875 4.38671875 C-3.16212728 3.09940446 -1.64552279 1.81593292 0 0 Z " fill="#474747" transform="translate(157,250)"/>
<path d="M0 0 C0.66 0 1.32 0 2 0 C2 0.99 2 1.98 2 3 C4.34533951 3.76956136 4.34533951 3.76956136 7 4 C8.8354799 2.66621425 8.8354799 2.66621425 10 1 C10.99 1.33 11.98 1.66 13 2 C12 4.5 12 4.5 10 7 C7.11459721 7.60776378 5.00185496 7.33353944 2 7 C0 5 0 5 -0.125 2.375 C-0.08375 1.59125 -0.0425 0.8075 0 0 Z " fill="#484848" transform="translate(321,286)"/>
<path d="M0 0 C0.66 1.32 1.32 2.64 2 4 C3.32 4 4.64 4 6 4 C6.66 3.01 7.32 2.02 8 1 C7.979375 2.093125 7.95875 3.18625 7.9375 4.3125 C7.81455548 7.94384191 7.81455548 7.94384191 9 11 C7.68 11 6.36 11 5 11 C4.34 10.01 3.68 9.02 3 8 C2.67 8.66 2.34 9.32 2 10 C1.34 10 0.68 10 0 10 C0 6.7 0 3.4 0 0 Z " fill="#333333" transform="translate(301,282)"/>
<path d="M0 0 C0.99 0.33 1.98 0.66 3 1 C3 4.3 3 7.6 3 11 C4.65 11 6.3 11 8 11 C8 11.66 8 12.32 8 13 C5.36 13 2.72 13 0 13 C0 8.71 0 4.42 0 0 Z " fill="#5A5A5A" transform="translate(181,280)"/>
<path d="M0 0 C0 0.99 0 1.98 0 3 C0.66 3.33 1.32 3.66 2 4 C-1.63 5.98 -5.26 7.96 -9 10 C-9 8.33333333 -9 6.66666667 -9 5 C-7.68 4.67 -6.36 4.34 -5 4 C-5 3.34 -5 2.68 -5 2 C-2 0 -2 0 0 0 Z " fill="#434343" transform="translate(462,229)"/>
<path d="M0 0 C4.95 0 9.9 0 15 0 C15 0.66 15 1.32 15 2 C11.85069107 3.04976964 9.61185544 3.10131595 6.3125 3.0625 C5.31863281 3.05347656 4.32476562 3.04445313 3.30078125 3.03515625 C2.16189453 3.01775391 2.16189453 3.01775391 1 3 C0.67 2.01 0.34 1.02 0 0 Z " fill="#1B1B1B" transform="translate(278,265)"/>
<path d="M0 0 C1.2065625 0.0309375 1.2065625 0.0309375 2.4375 0.0625 C2.1075 1.7125 1.7775 3.3625 1.4375 5.0625 C1.1075 4.4025 0.7775 3.7425 0.4375 3.0625 C-0.5525 3.0625 -1.5425 3.0625 -2.5625 3.0625 C-2.5625 4.7125 -2.5625 6.3625 -2.5625 8.0625 C-1.9025 8.3925 -1.2425 8.7225 -0.5625 9.0625 C-0.8925 10.3825 -1.2225 11.7025 -1.5625 13.0625 C-2.5525 13.0625 -3.5425 13.0625 -4.5625 13.0625 C-5.93132012 8.54539361 -5.08632612 5.46466435 -3.5625 1.0625 C-2.5625 0.0625 -2.5625 0.0625 0 0 Z " fill="#696969" transform="translate(245.5625,279.9375)"/>
<path d="M0 0 C1.75570313 0.01353516 1.75570313 0.01353516 3.546875 0.02734375 C4.43890625 0.03894531 5.3309375 0.05054688 6.25 0.0625 C5.12890625 1.54296875 5.12890625 1.54296875 3.25 3.0625 C0.40234375 3.42578125 0.40234375 3.42578125 -2.8125 3.375 C-3.87597656 3.37113281 -4.93945312 3.36726562 -6.03515625 3.36328125 C-8.75 3.0625 -8.75 3.0625 -10.75 1.0625 C-7.14006828 -0.07230527 -3.7657673 -0.03765767 0 0 Z " fill="#1C1C1C" transform="translate(321.75,190.9375)"/>
<path d="M0 0 C0.99 0 1.98 0 3 0 C3 4.29 3 8.58 3 13 C2.01 13 1.02 13 0 13 C0 8.71 0 4.42 0 0 Z " fill="#666666" transform="translate(314,280)"/>
<path d="M0 0 C2 2 2 2 2 5 C0.35 5.33 -1.3 5.66 -3 6 C-2.34 5.67 -1.68 5.34 -1 5 C-1 4.34 -1 3.68 -1 3 C-1.99 3 -2.98 3 -4 3 C-4.33 4.32 -4.66 5.64 -5 7 C-5.66 7 -6.32 7 -7 7 C-7 5.02 -7 3.04 -7 1 C-4.48718205 -0.25640898 -2.78302919 -0.20872719 0 0 Z " fill="#676767" transform="translate(344,280)"/>
<path d="M0 0 C5.94 0 11.88 0 18 0 C18 0.66 18 1.32 18 2 C12.06 2 6.12 2 0 2 C0 1.34 0 0.68 0 0 Z " fill="#666666" transform="translate(152,287)"/>
<path d="M0 0 C3 3.75 3 3.75 3 6 C1.68 6 0.36 6 -1 6 C-1 5.34 -1 4.68 -1 4 C-2.65 4 -4.3 4 -6 4 C-6 4.66 -6 5.32 -6 6 C-6.99 6 -7.98 6 -9 6 C-8.67 4.35 -8.34 2.7 -8 1 C-7.67 1.66 -7.34 2.32 -7 3 C-4.69 3 -2.38 3 0 3 C0 2.01 0 1.02 0 0 Z " fill="#6E6E6E" transform="translate(201,287)"/>
<path d="M0 0 C0 2 0 4 0 6 C-2.25 7.75 -2.25 7.75 -5 9 C-7.3125 8.6875 -7.3125 8.6875 -9 8 C-7.625 6.5 -7.625 6.5 -6 5 C-5.34 5 -4.68 5 -4 5 C-4 4.34 -4 3.68 -4 3 C-3.34 3 -2.68 3 -2 3 C-2 2.34 -2 1.68 -2 1 C-1.34 0.67 -0.68 0.34 0 0 Z " fill="#4E4E4E" transform="translate(328,230)"/>
<path d="M0 0 C0.99 0.33 1.98 0.66 3 1 C2.3125 2.9375 2.3125 2.9375 1 5 C-1.4375 5.875 -1.4375 5.875 -4 6 C-4.99 5.34 -5.98 4.68 -7 4 C-5.824375 3.566875 -5.824375 3.566875 -4.625 3.125 C-1.90328368 2.15087746 -1.90328368 2.15087746 0 0 Z " fill="#535353" transform="translate(216,287)"/>
<path d="M0 0 C0 3.57575896 -1.08840607 5.05295935 -3 8 C-5.86724686 7.42655063 -6.8614515 7.1385485 -9 5 C-8.43410156 4.72285156 -7.86820312 4.44570312 -7.28515625 4.16015625 C-6.55167969 3.79792969 -5.81820312 3.43570313 -5.0625 3.0625 C-3.96615234 2.52302734 -3.96615234 2.52302734 -2.84765625 1.97265625 C-1.03750973 1.13628173 -1.03750973 1.13628173 0 0 Z " fill="#474747" transform="translate(131,251)"/>
<path d="M0 0 C0.33 0.99 0.66 1.98 1 3 C-1.31 5.31 -3.62 7.62 -6 10 C-6.33 9.01 -6.66 8.02 -7 7 C-4.69 4.69 -2.38 2.38 0 0 Z " fill="#343434" transform="translate(236,247)"/>
<path d="M0 0 C0.33 1.32 0.66 2.64 1 4 C1.66 4 2.32 4 3 4 C3 4.66 3 5.32 3 6 C0.36 6 -2.28 6 -5 6 C-5 5.34 -5 4.68 -5 4 C-4.360625 3.71125 -3.72125 3.4225 -3.0625 3.125 C-0.84793921 2.17176549 -0.84793921 2.17176549 0 0 Z " fill="#2B2B2B" transform="translate(249,287)"/>
<path d="M0 0 C2.31 0 4.62 0 7 0 C7.33 1.32 7.66 2.64 8 4 C5 4 5 4 3 3 C3.33 2.34 3.66 1.68 4 1 C3.01 1 2.02 1 1 1 C0.67 1.99 0.34 2.98 0 4 C0 2.68 0 1.36 0 0 Z " fill="#6A6A6A" transform="translate(289,287)"/>
<path d="M0 0 C0 1.32 0 2.64 0 4 C-0.66 4 -1.32 4 -2 4 C-2.33 4.99 -2.66 5.98 -3 7 C-3.33 6.01 -3.66 5.02 -4 4 C-4.66 3.67 -5.32 3.34 -6 3 C-3.375 0 -3.375 0 0 0 Z " fill="#5C5C5C" transform="translate(482,241)"/>
<path d="M0 0 C2.875 -0.125 2.875 -0.125 6 0 C6.66 0.66 7.32 1.32 8 2 C6.35 2.33 4.7 2.66 3 3 C3 3.66 3 4.32 3 5 C3.99 5.33 4.98 5.66 6 6 C4.68 6 3.36 6 2 6 C2 4.35 2 2.7 2 1 C1.34 0.67 0.68 0.34 0 0 Z " fill="#808080" transform="translate(287,280)"/>
<path d="M0 0 C0.33 0.99 0.66 1.98 1 3 C2.65 2.67 4.3 2.34 6 2 C6 2.99 6 3.98 6 5 C3.69 5 1.38 5 -1 5 C-0.67 3.35 -0.34 1.7 0 0 Z " fill="#020202" transform="translate(195,285)"/>
<path d="M0 0 C0.99 0 1.98 0 3 0 C3.33 1.32 3.66 2.64 4 4 C3.01 4.495 3.01 4.495 2 5 C1.01 6.485 1.01 6.485 0 8 C-1.125 6.25 -1.125 6.25 -2 4 C-1.125 1.75 -1.125 1.75 0 0 Z " fill="#515151" transform="translate(276,280)"/>
<path d="M0 0 C0 1.32 0 2.64 0 4 C-1.65 4.33 -3.3 4.66 -5 5 C-5 3.68 -5 2.36 -5 1 C-3 0 -3 0 0 0 Z " fill="#454545" transform="translate(178,257)"/>
<path d="M0 0 C1.4540625 0.0309375 1.4540625 0.0309375 2.9375 0.0625 C2.9375 0.3925 2.9375 0.7225 2.9375 1.0625 C1.57625 1.43375 1.57625 1.43375 0.1875 1.8125 C-3.16601489 3.10231342 -4.73958236 4.38221042 -7.0625 7.0625 C-7.7225 6.7325 -8.3825 6.4025 -9.0625 6.0625 C-3.0625 0.0625 -3.0625 0.0625 0 0 Z " fill="#484848" transform="translate(154.0625,226.9375)"/>
<path d="M0 0 C0.33 0.99 0.66 1.98 1 3 C2.65 3 4.3 3 6 3 C6 3.66 6 4.32 6 5 C3.69 5 1.38 5 -1 5 C-0.67 3.35 -0.34 1.7 0 0 Z " fill="#1A1A1A" transform="translate(224,288)"/>
<path d="M0 0 C1.65 0 3.3 0 5 0 C4.67 1.65 4.34 3.3 4 5 C3.01 5 2.02 5 1 5 C0.67 3.35 0.34 1.7 0 0 Z " fill="#565656" transform="translate(240,288)"/>
<path d="M0 0 C2.31 0 4.62 0 7 0 C7.33 1.65 7.66 3.3 8 5 C7.01 5 6.02 5 5 5 C4.67 4.01 4.34 3.02 4 2 C1.99983534 0.79117904 1.99983534 0.79117904 0 0 Z " fill="#4B4B4B" transform="translate(325,281)"/>
<path d="M0 0 C1.32 0.66 2.64 1.32 4 2 C2.625 4 2.625 4 1 6 C0.34 6 -0.32 6 -1 6 C-1.625 4.125 -1.625 4.125 -2 2 C-1.34 1.34 -0.68 0.68 0 0 Z " fill="#6C6C6C" transform="translate(470,250)"/>
<path d="M0 0 C0.721875 0.12375 1.44375 0.2475 2.1875 0.375 C1.0428125 1.2721875 1.0428125 1.2721875 -0.125 2.1875 C-2.1608575 3.84459332 -4.0103279 5.47797674 -5.8125 7.375 C-6.4725 7.045 -7.1325 6.715 -7.8125 6.375 C-3.50480769 0.46730769 -3.50480769 0.46730769 0 0 Z " fill="#535353" transform="translate(408.8125,224.625)"/>
<path d="M0 0 C0 2.31 0 4.62 0 7 C-0.33 6.01 -0.66 5.02 -1 4 C-1.66 4 -2.32 4 -3 4 C-3.33 4.99 -3.66 5.98 -4 7 C-4.1875 4.625 -4.1875 4.625 -4 2 C-1 0 -1 0 0 0 Z " fill="#757575" transform="translate(324,282)"/>
<path d="M0 0 C1.33333333 2.66666667 2.66666667 5.33333333 4 8 C1.5625 7.625 1.5625 7.625 -1 7 C-1.33 6.34 -1.66 5.68 -2 5 C-1.34 5 -0.68 5 0 5 C0 3.35 0 1.7 0 0 Z " fill="#787878" transform="translate(208,285)"/>
</svg>
