<?xml version="1.0" standalone="no"?>
<!DOCTYPE svg PUBLIC "-//W3C//DTD SVG 20010904//EN"
 "http://www.w3.org/TR/2001/REC-SVG-20010904/DTD/svg10.dtd">
<svg version="1.0" xmlns="http://www.w3.org/2000/svg"
 width="989.000000pt" height="678.000000pt" viewBox="0 0 989.000000 678.000000"
 preserveAspectRatio="xMidYMid meet">

<g transform="translate(0.000000,678.000000) scale(0.100000,-0.100000)"
fill="#000000" stroke="none">
<path d="M8092 5208 c-27 -35 -73 -141 -64 -150 24 -24 372 -32 372 -9 0 4
-12 7 -27 6 -16 0 -27 5 -26 11 3 14 -69 33 -117 31 -54 -2 -68 8 -95 68 -14
30 -27 55 -29 55 -2 0 -8 -6 -14 -12z"/>
<path d="M9479 5116 c-73 -29 -122 -58 -122 -71 0 -5 22 -18 49 -28 43 -16 58
-17 131 -7 61 9 91 9 114 1 47 -16 101 -13 128 8 23 18 23 18 5 45 -21 33 -51
46 -103 46 -21 0 -55 7 -74 15 -48 20 -62 19 -128 -9z"/>
<path d="M8850 5079 c-51 -15 -104 -19 -247 -21 -101 -2 -183 -6 -183 -10 0
-3 28 -9 63 -13 34 -3 91 -13 126 -22 44 -10 80 -13 115 -8 28 4 111 9 184 11
83 2 139 7 148 15 9 7 49 11 109 10 105 -2 129 4 93 23 -16 8 -53 11 -111 8
-63 -3 -100 0 -136 12 -60 20 -78 19 -161 -5z"/>
<path d="M6140 4630 c8 -5 11 -10 5 -10 -5 0 -2 -5 8 -11 22 -13 32 -6 24 16
-4 8 -17 15 -29 15 -19 0 -20 -2 -8 -10z"/>
<path d="M3108 4606 c-10 -7 -18 -21 -18 -29 0 -26 32 -57 58 -57 13 0 30 -7
38 -15 33 -32 40 -18 25 48 -14 60 -62 84 -103 53z"/>
<path d="M1974 4545 c-16 -40 38 -63 67 -28 17 20 16 25 -8 34 -30 12 -53 10
-59 -6z"/>
<path d="M8383 4534 c-10 -26 11 -49 46 -52 38 -4 41 15 8 46 -28 26 -45 28
-54 6z"/>
<path d="M4301 4463 c12 -14 12 -16 0 -8 -11 6 -13 4 -8 -9 22 -56 20 -63 -18
-76 -31 -10 -39 -10 -52 3 -12 12 -13 19 -3 37 6 12 9 24 7 27 -9 8 -29 -38
-23 -53 3 -8 1 -14 -4 -14 -6 0 -10 -9 -10 -19 0 -11 -6 -26 -13 -33 -22 -23
-47 -67 -47 -83 0 -8 -3 -15 -7 -15 -16 1 -64 50 -58 59 3 6 -4 9 -15 8 -13
-1 -19 -6 -15 -15 3 -8 0 -32 -5 -53 -10 -35 -8 -46 18 -98 16 -33 37 -67 46
-77 13 -12 17 -27 13 -50 -4 -22 -1 -37 9 -45 7 -6 18 -28 24 -49 5 -20 18
-47 29 -59 11 -12 17 -30 14 -42 -6 -21 38 -70 45 -50 6 18 -18 80 -37 93 -9
7 -18 24 -19 38 -1 14 -8 70 -15 125 -9 64 -10 107 -5 118 6 11 7 30 3 44 -4
16 -1 29 5 33 9 6 9 13 0 30 -9 16 -9 25 -1 33 8 8 11 8 11 -2 0 -7 5 -9 10
-6 6 3 10 15 10 25 0 11 5 17 13 15 6 -3 35 13 64 34 28 22 54 37 57 34 3 -4
6 -2 6 4 0 5 22 9 51 8 l51 -2 -33 31 c-34 31 -96 76 -106 76 -3 0 1 -8 8 -17z"/>
<path d="M8825 4390 c-7 -12 12 -40 26 -40 5 0 9 11 9 25 0 25 -23 35 -35 15z"/>
<path d="M4017 4375 c-17 -17 -32 -54 -24 -61 3 -3 15 11 27 31 24 39 22 56
-3 30z"/>
<path d="M313 4345 c-18 -20 -16 -25 12 -25 18 0 25 5 25 20 0 23 -19 26 -37
5z"/>
<path d="M5817 4326 c-9 -10 -17 -22 -17 -27 0 -13 49 -31 74 -27 19 3 18 5
-10 37 -28 31 -31 32 -47 17z"/>
<path d="M9028 4263 c-4 -16 26 -53 42 -53 16 0 18 15 4 41 -16 32 -41 38 -46
12z"/>
<path d="M3999 4253 c-13 -16 -12 -17 4 -4 16 13 21 21 13 21 -2 0 -10 -8 -17
-17z"/>
<path d="M8453 4240 c-10 -27 -9 -32 11 -45 29 -20 56 -10 56 20 0 25 -24 55
-44 55 -6 0 -17 -14 -23 -30z"/>
<path d="M1238 4227 c-6 -16 1 -37 13 -37 12 0 12 37 0 44 -5 3 -11 0 -13 -7z"/>
<path d="M2046 4211 c-4 -6 -14 -11 -23 -11 -26 0 -102 -53 -107 -75 -3 -11
-21 -36 -39 -55 l-34 -35 49 -47 c48 -47 71 -53 67 -20 -1 10 -1 36 0 60 1 45
10 53 73 66 23 5 26 11 30 58 4 52 -3 80 -16 59z"/>
<path d="M8640 4200 c0 -11 40 -34 47 -26 3 3 3 12 0 21 -7 16 -47 21 -47 5z"/>
<path d="M2262 4172 c-60 -50 -33 -83 34 -41 39 24 41 30 17 52 -17 14 -21 13
-51 -11z"/>
<path d="M1250 4166 c0 -36 19 -64 39 -59 13 3 24 -2 33 -16 7 -12 19 -21 26
-21 7 0 11 -4 8 -9 -3 -5 1 -12 10 -15 13 -5 14 -9 4 -21 -10 -13 -9 -19 5
-35 22 -24 35 -26 35 -5 0 9 7 18 15 21 8 4 15 12 15 20 0 8 5 23 12 33 19 31
3 46 -73 65 -41 10 -81 24 -89 31 -29 23 -40 26 -40 11z m170 -131 c0 -9 -6
-12 -15 -9 -8 4 -12 10 -9 15 8 14 24 10 24 -6z"/>
<path d="M9850 4155 c-12 -14 -11 -18 1 -26 19 -12 26 -11 35 2 3 6 0 17 -8
25 -13 13 -16 13 -28 -1z"/>
<path d="M8013 4147 c-58 -17 -62 -24 -19 -42 34 -15 40 -15 62 0 25 16 33 56
12 54 -7 -1 -32 -6 -55 -12z"/>
<path d="M5900 4108 c-41 -52 -24 -88 44 -94 17 -1 54 -6 83 -9 47 -7 52 -6
64 16 6 13 17 27 23 31 19 12 -26 37 -68 38 -28 0 -45 7 -62 25 -30 33 -54 31
-84 -7z"/>
<path d="M7796 4114 c-8 -8 -20 -39 -27 -69 -12 -54 -35 -89 -73 -110 -15 -8
-16 -17 -11 -49 4 -21 16 -46 27 -55 10 -9 36 -33 58 -53 37 -34 76 -55 86
-46 5 6 -32 152 -46 177 -5 11 -10 29 -10 41 0 24 45 99 64 106 10 4 12 14 7
32 -9 32 -54 48 -75 26z"/>
<path d="M8233 4080 c-16 -7 -23 -18 -23 -37 0 -33 25 -57 91 -89 25 -12 60
-34 77 -49 l32 -27 0 32 c0 21 -4 29 -12 24 -7 -5 -9 -2 -6 8 4 10 -4 23 -23
37 -18 14 -29 31 -29 47 0 17 -8 27 -24 34 -13 5 -27 14 -31 19 -7 13 -22 13
-52 1z"/>
<path d="M8610 4050 c0 -5 4 -10 9 -10 6 0 13 5 16 10 3 6 -1 10 -9 10 -9 0
-16 -4 -16 -10z"/>
<path d="M2836 3991 c-3 -5 4 -27 17 -50 15 -29 29 -41 44 -41 22 0 43 26 43
54 0 27 -90 60 -104 37z"/>
<path d="M6172 3912 c-23 -48 -49 -116 -58 -152 -9 -36 -18 -67 -21 -70 -3 -3
-2 49 2 115 4 66 4 117 1 114 -11 -10 -66 -241 -66 -275 0 -47 -11 -49 -47 -7
-31 37 -32 37 -18 7 8 -17 24 -39 35 -49 22 -20 25 -46 10 -75 -7 -13 -7 -21
0 -25 5 -3 10 -14 10 -25 0 -36 58 -145 94 -178 36 -32 43 -55 27 -81 -18 -29
-56 -4 -79 51 -12 30 -22 59 -22 66 0 6 -5 12 -11 12 -18 0 -4 -118 16 -141
10 -10 34 -21 54 -25 55 -9 93 -25 121 -50 14 -13 43 -30 64 -39 21 -9 45 -23
53 -31 11 -10 26 -13 50 -8 l34 6 -14 -34 c-14 -33 -58 -88 -71 -88 -3 0 -6
15 -7 33 0 17 -3 26 -6 19 -4 -10 -10 -9 -25 5 -19 17 -20 17 -39 -7 -15 -19
-19 -38 -17 -79 l3 -54 -55 -39 c-30 -22 -71 -50 -90 -64 -71 -49 -141 -101
-165 -122 -14 -12 -25 -19 -25 -16 0 4 -6 2 -12 -4 -16 -12 -165 -92 -173 -92
-3 0 -5 8 -3 18 2 11 -2 16 -12 13 -8 -2 -28 -7 -45 -10 -26 -6 -30 -11 -31
-41 0 -33 -5 -38 -95 -92 -174 -106 -195 -115 -184 -75 6 22 6 22 -10 2 -14
-18 -14 -21 0 -31 8 -6 16 -26 18 -44 2 -28 8 -35 37 -46 l35 -13 -30 2 c-21
1 -30 -3 -30 -13 0 -25 51 -24 87 3 18 13 41 27 51 30 10 4 15 11 12 17 -8 13
-81 13 -106 -1 -11 -6 -25 -8 -32 -6 -7 2 12 17 41 33 30 16 69 39 87 50 18
12 42 25 54 29 33 10 25 -13 -11 -31 -18 -9 -34 -18 -36 -19 -5 -5 111 -155
120 -155 5 0 6 -4 3 -10 -3 -5 3 -15 15 -22 11 -7 20 -18 20 -25 0 -7 5 -13
10 -13 14 0 12 26 -2 42 -7 8 -26 38 -42 67 -21 39 -25 56 -17 64 6 6 11 19
11 28 0 9 6 22 14 28 19 16 8 61 -15 61 -26 0 -24 15 6 34 30 20 35 20 35 1 0
-20 8 -19 57 5 50 24 58 34 37 51 -13 11 -12 15 13 35 15 13 52 38 81 56 29
18 97 61 150 96 53 34 104 65 112 69 8 4 33 20 55 37 22 17 56 40 75 50 19 11
54 32 78 47 67 45 83 46 124 5 31 -31 42 -36 79 -35 24 1 49 5 54 8 6 3 3 -1
-7 -10 -17 -16 -17 -17 -1 -24 10 -3 19 -2 21 3 4 13 41 3 72 -18 14 -10 34
-19 45 -21 30 -3 75 11 75 25 0 18 -109 49 -125 36 -10 -8 -17 -6 -27 9 -8 12
-18 18 -23 13 -4 -4 -5 3 -2 16 4 19 3 21 -9 11 -11 -9 -14 -8 -14 4 0 8 -7
18 -16 21 -22 9 -32 -3 -14 -14 13 -9 7 -14 -12 -11 -4 0 -5 -6 -1 -15 5 -13
1 -12 -30 2 -39 19 -55 43 -35 55 6 4 35 11 63 15 27 3 60 10 72 15 12 4 25 4
28 0 6 -10 44 -3 62 11 6 5 40 16 75 24 35 8 69 22 76 32 7 9 15 16 17 15 13
-7 35 -2 35 8 0 6 -9 9 -20 6 -11 -3 -18 -2 -15 3 2 4 22 10 43 13 22 4 48 17
62 32 30 32 21 42 -13 15 -26 -21 -42 -21 -126 -4 -20 4 -22 7 -10 15 7 5 28
9 44 9 17 0 41 7 55 15 30 17 44 19 35 5 -3 -5 1 -10 10 -10 10 0 13 5 9 12
-5 8 0 9 14 6 12 -4 20 -2 16 3 -3 5 0 9 5 9 15 0 51 37 43 44 -3 4 -15 -2
-26 -13 -12 -10 -37 -21 -56 -25 -19 -3 -55 -10 -80 -15 -25 -6 -70 -11 -100
-12 -44 -1 -49 -3 -25 -8 17 -3 26 -9 20 -12 -18 -11 -75 11 -75 28 0 13 -3
13 -15 3 -11 -9 -32 -11 -69 -6 -53 6 -54 5 -65 -24 -5 -17 -15 -30 -20 -30
-14 0 -14 16 1 39 9 16 6 25 -20 57 -18 21 -32 47 -32 57 0 10 -5 38 -11 63
-8 31 -16 44 -25 40 -8 -3 -14 -1 -14 4 0 6 -4 10 -10 10 -5 0 -6 -7 -3 -17 4
-10 2 -14 -4 -10 -6 4 -13 24 -17 46 -3 22 -12 42 -18 44 -7 3 -3 6 10 6 14 1
21 5 16 12 -3 6 3 23 14 38 10 15 30 47 42 71 13 25 42 70 66 101 24 30 44 59
44 65 0 5 12 23 26 39 31 36 51 73 54 100 7 63 -15 62 -159 -9 -69 -33 -158
-112 -182 -160 -17 -36 -39 -45 -39 -18 0 11 -6 22 -12 25 -9 2 -13 29 -13 86
0 73 -1 79 -12 54 -7 -15 -13 -41 -13 -58 -1 -16 -5 -39 -10 -50 -7 -19 -8
-19 -15 -2 -4 10 -5 42 -3 73 6 65 -7 58 -24 -14 -13 -53 -34 -75 -24 -24 3
15 11 56 17 92 6 36 15 87 20 114 4 28 7 51 6 53 -2 1 -22 -37 -45 -85z m258
-308 c0 -8 -5 -12 -10 -9 -6 4 -8 11 -5 16 9 14 15 11 15 -7z m-106 -114 c5
-20 3 -19 -9 5 -8 17 -14 36 -15 43 0 6 -6 12 -14 12 -19 0 -29 17 -20 32 5 7
11 5 21 -8 11 -14 14 -15 13 -4 -1 8 -1 22 0 30 1 8 6 -8 10 -35 4 -28 10 -62
14 -75z m-189 15 c7 -16 16 -43 20 -59 10 -45 -17 -11 -38 49 -19 55 -24 110
-5 65 5 -14 16 -38 23 -55z m-85 44 c0 -6 7 -9 15 -5 8 3 15 1 15 -5 0 -5 9
-30 21 -55 23 -51 22 -75 -3 -51 -8 9 -19 13 -23 9 -5 -4 -5 -2 -1 5 4 7 -5
35 -19 63 -14 27 -21 50 -15 50 5 0 10 -5 10 -11z m200 2 c0 -5 3 -17 6 -25 4
-12 2 -15 -9 -10 -11 4 -17 -2 -20 -18 -2 -13 -5 -5 -6 20 -1 31 3 42 14 42 8
0 15 -4 15 -9z m133 -74 c-2 -17 -9 -36 -13 -41 -5 -5 -8 -28 -6 -50 2 -23 1
-32 -1 -22 -3 12 -7 15 -12 8 -4 -6 -8 14 -8 46 -1 36 4 66 13 80 20 30 33 20
27 -21z m-93 -64 c0 -13 -7 -10 -29 14 -20 22 -28 39 -24 53 5 19 8 18 29 -14
13 -19 24 -43 24 -53z m-70 37 c0 -13 -1 -13 -10 0 -5 8 -10 22 -10 30 0 13 1
13 10 0 5 -8 10 -22 10 -30z m-25 -27 c10 -35 -12 -27 -24 8 -6 18 -11 35 -11
38 0 12 28 -26 35 -46z m-75 -83 c13 -8 13 -10 -2 -10 -9 0 -20 5 -23 10 -8
13 5 13 25 0z m335 -70 c31 -23 48 -67 32 -82 -7 -6 -11 -24 -9 -40 3 -18 0
-28 -9 -28 -7 0 -9 3 -6 7 4 3 2 12 -3 18 -7 9 -7 21 1 38 15 32 -7 71 -49 90
-26 11 -42 25 -42 38 0 8 55 -19 85 -41z m-5 -160 c0 -5 -4 -10 -10 -10 -5 0
-10 5 -10 10 0 6 5 10 10 10 6 0 10 -4 10 -10z m33 -164 c-16 -9 -33 7 -33 32
0 9 7 8 24 -5 20 -15 22 -19 9 -27z m-728 -516 c-3 -5 -13 -10 -21 -10 -8 0
-12 5 -9 10 3 6 13 10 21 10 8 0 12 -4 9 -10z"/>
<path d="M3107 3932 c-24 -26 -22 -78 2 -92 38 -20 70 -12 91 23 25 40 25 43
-2 61 -41 26 -72 29 -91 8z"/>
<path d="M7410 3923 c-24 -30 -23 -56 2 -61 18 -3 31 16 42 61 9 36 -15 36
-44 0z"/>
<path d="M250 3885 c-26 -26 -31 -38 -22 -47 8 -8 7 -18 -3 -38 -8 -15 -11
-30 -8 -34 11 -11 58 -7 75 7 26 19 40 86 25 116 -18 36 -29 35 -67 -4z"/>
<path d="M3829 3912 c-1 -4 -1 -10 0 -14 0 -5 -4 -8 -10 -8 -5 0 -27 -11 -47
-25 -20 -14 -31 -25 -25 -25 6 0 19 -7 27 -16 14 -14 18 -13 43 10 31 29 41
31 65 12 17 -12 17 -14 0 -30 -10 -9 -36 -17 -58 -17 -21 -1 -30 -3 -19 -6 11
-3 24 -9 30 -14 16 -16 41 -10 63 16 12 14 29 25 37 25 8 0 75 -31 149 -70 73
-38 136 -67 139 -64 14 14 -41 74 -88 96 -27 13 -75 40 -107 61 -58 39 -80 45
-109 33 -11 -5 -24 0 -38 15 -21 22 -50 34 -52 21z"/>
<path d="M6686 3912 c-2 -4 4 -8 15 -8 10 0 19 4 19 8 0 4 -6 8 -14 8 -8 0
-17 -4 -20 -8z"/>
<path d="M115 3890 c-8 -13 -1 -24 14 -19 6 3 7 10 2 18 -6 10 -10 10 -16 1z"/>
<path d="M6256 3879 c-14 -11 -26 -25 -26 -31 0 -7 10 -2 23 10 12 11 33 25
47 31 23 9 23 10 4 10 -12 1 -33 -8 -48 -20z"/>
<path d="M730 3844 c-21 -55 -9 -74 49 -74 l28 0 -16 50 c-17 57 -45 68 -61
24z"/>
<path d="M23 3846 c-21 -10 -23 -18 -23 -88 l0 -77 37 6 c21 3 40 8 43 12 3 3
4 41 2 84 -4 83 -9 88 -59 63z"/>
<path d="M9801 3821 c-49 -50 -79 -58 -134 -37 -51 19 -67 20 -67 3 0 -7 24
-21 53 -31 28 -10 57 -20 63 -23 6 -2 21 7 35 20 13 13 43 29 67 35 34 11 42
17 42 37 0 39 -18 38 -59 -4z"/>
<path d="M2475 3824 c-17 -13 -18 -16 -5 -24 49 -32 91 -20 64 18 -18 26 -31
27 -59 6z"/>
<path d="M8630 3810 c0 -10 -82 -61 -100 -63 -9 0 -37 10 -64 23 l-49 23 -36
-42 c-77 -89 -81 -97 -81 -150 0 -27 -5 -62 -12 -76 -9 -21 -9 -31 1 -47 7
-11 10 -32 6 -48 -5 -23 0 -32 32 -59 22 -18 49 -31 65 -31 24 0 28 4 28 30 0
17 6 33 14 36 8 3 12 12 10 19 -3 7 -1 16 5 20 6 3 11 15 11 26 0 27 53 130
79 153 11 10 41 21 66 24 37 4 57 -1 100 -22 29 -15 56 -34 59 -42 3 -8 0 -35
-6 -60 -10 -38 -17 -46 -41 -51 -28 -6 -30 -17 -16 -68 4 -18 -13 -65 -25 -65
-17 -1 64 -70 83 -70 9 0 25 -3 36 -6 15 -4 25 2 35 20 7 14 21 28 31 31 10 3
21 20 24 37 6 26 3 34 -23 57 -30 25 -36 38 -33 74 1 19 45 24 56 7 4 -6 16
-8 27 -4 18 5 20 3 15 -15 -5 -22 7 -38 18 -21 9 15 71 12 136 -6 32 -9 65
-14 73 -11 19 8 16 49 -7 94 -10 18 -17 47 -17 66 0 60 -52 79 -115 43 -24
-14 -63 -25 -101 -29 -75 -6 -89 9 -79 82 l6 46 -68 32 c-101 46 -143 59 -143
43z"/>
<path d="M1990 3774 c0 -7 10 -23 23 -34 19 -18 22 -19 25 -5 5 25 -4 42 -27
48 -14 3 -21 0 -21 -9z"/>
<path d="M7490 3746 c0 -19 7 -39 16 -47 27 -22 47 -72 55 -132 7 -59 29 -97
57 -97 8 0 12 -6 9 -14 -3 -8 0 -16 6 -19 9 -3 12 19 11 87 -1 50 -2 97 -3
103 -2 18 -101 126 -128 140 -22 11 -23 10 -23 -21z"/>
<path d="M3810 3757 c0 -4 9 -16 20 -27 20 -20 22 -20 38 -3 16 16 16 16 -2
10 -12 -5 -26 -1 -37 9 -11 10 -19 14 -19 11z"/>
<path d="M2687 3692 c-6 -28 -24 -41 -82 -58 -18 -6 -35 -21 -44 -39 -15 -33
-31 -46 -43 -39 -13 8 -21 -46 -8 -61 9 -11 16 -12 30 -3 22 14 50 -4 50 -32
0 -25 -23 -31 -53 -15 -17 9 -28 10 -35 3 -6 -6 -34 -14 -62 -19 -35 -5 -60
-17 -77 -34 -14 -14 -30 -25 -34 -25 -5 0 -9 -9 -9 -20 0 -23 -3 -24 -30 -8
-15 10 -22 10 -32 0 -11 -11 -7 -17 17 -35 35 -26 85 -77 85 -87 0 -4 -13 -13
-30 -20 -23 -10 -30 -18 -29 -39 2 -53 14 -76 40 -77 13 0 31 -4 38 -9 15 -8
41 18 41 41 0 16 89 94 107 94 10 0 12 9 8 33 -4 26 0 38 22 62 47 50 109 72
142 49 21 -15 35 -5 25 20 -5 13 27 41 71 60 6 3 2 12 -9 20 -10 8 -18 28 -18
43 0 15 -7 37 -15 49 -8 14 -13 44 -12 82 2 61 -10 92 -36 92 -7 0 -15 -13
-18 -28z"/>
<path d="M9319 3669 c-20 -64 -8 -72 61 -39 52 24 57 47 17 75 -41 28 -61 19
-78 -36z"/>
<path d="M980 3555 c0 -51 10 -57 34 -20 20 31 20 51 0 59 -29 11 -34 6 -34
-39z"/>
<path d="M376 3582 c-8 -14 -19 -74 -20 -110 -1 -31 3 -35 44 -50 25 -10 56
-17 70 -16 14 1 44 2 67 3 40 1 42 3 49 37 6 32 3 39 -22 60 -35 29 -145 84
-167 84 -9 0 -18 -4 -21 -8z"/>
<path d="M4635 3581 c-61 -7 -105 -26 -105 -47 0 -6 -7 -17 -15 -24 -8 -7 -12
-16 -9 -21 3 -5 -4 -9 -16 -9 -12 0 -19 -4 -16 -9 4 -5 1 -11 -5 -13 -13 -4 5
-47 24 -59 5 -4 13 -43 17 -86 4 -44 10 -85 14 -91 3 -6 3 -13 -2 -16 -5 -3
-7 -19 -4 -37 3 -22 1 -30 -7 -25 -7 5 -10 -12 -10 -57 1 -56 3 -64 19 -60 9
3 24 -2 32 -11 9 -8 19 -12 23 -8 5 4 6 3 3 -3 -3 -5 -3 -18 1 -28 7 -19 31 2
128 116 37 42 50 46 55 15 3 -21 4 -21 21 -4 13 13 17 31 16 65 -1 25 1 54 5
63 6 13 -1 19 -34 29 -24 7 -54 27 -72 48 -23 27 -38 35 -58 33 -39 -4 -68 39
-29 44 5 1 13 2 19 3 17 2 68 61 79 92 12 35 9 36 -23 4 -14 -14 -27 -25 -30
-25 -10 0 34 78 47 83 22 8 29 47 9 45 -10 0 -44 -4 -77 -7z m-75 -325 c0 -3
-4 -8 -10 -11 -5 -3 -10 -1 -10 4 0 6 5 11 10 11 6 0 10 -2 10 -4z m0 -61 c0
-8 -2 -15 -4 -15 -2 0 -6 7 -10 15 -3 8 -1 15 4 15 6 0 10 -7 10 -15z m-3 -77
c-3 -8 -6 -5 -6 6 -1 11 2 17 5 13 3 -3 4 -12 1 -19z"/>
<path d="M0 3495 c0 -57 3 -75 14 -75 22 0 30 83 11 119 -8 17 -18 31 -20 31
-3 0 -5 -34 -5 -75z"/>
<path d="M4306 3559 c-34 -9 -78 -48 -70 -61 3 -5 12 -7 20 -4 8 3 11 0 7 -10
-10 -26 23 -50 62 -46 40 5 44 18 15 55 -24 31 -25 43 -4 55 24 13 4 21 -30
11z"/>
<path d="M7850 3546 c0 -7 6 -29 14 -48 9 -21 12 -50 9 -75 -3 -25 -1 -43 6
-47 6 -4 11 -18 11 -32 0 -24 23 -34 35 -14 3 6 19 10 36 10 16 0 29 4 29 9 0
5 7 17 16 25 14 15 14 17 0 32 -9 8 -16 24 -16 34 0 32 -32 76 -71 98 -43 25
-69 28 -69 8z"/>
<path d="M4371 3524 c0 -11 3 -14 6 -6 3 7 2 16 -1 19 -3 4 -6 -2 -5 -13z"/>
<path d="M3076 3504 c-3 -9 -6 -23 -6 -31 0 -13 3 -13 15 -3 17 14 20 36 6 44
-5 3 -12 -1 -15 -10z"/>
<path d="M1540 3508 c0 -14 39 -100 46 -101 4 -1 13 11 18 26 9 24 7 31 -18
52 -25 21 -46 32 -46 23z"/>
<path d="M3465 3490 c-3 -5 -21 -10 -39 -10 -28 0 -36 -5 -46 -30 -7 -16 -16
-30 -21 -30 -15 0 -10 -38 6 -44 8 -3 23 -21 32 -41 9 -19 19 -35 22 -35 13 1
36 20 37 32 0 7 2 21 2 30 2 18 78 64 100 60 24 -5 11 13 -32 46 -47 35 -52
37 -61 22z"/>
<path d="M965 3460 c-3 -5 -1 -10 4 -10 6 0 11 5 11 10 0 6 -2 10 -4 10 -3 0
-8 -4 -11 -10z"/>
<path d="M5845 3433 c-16 -8 -38 -23 -48 -32 -11 -8 -30 -21 -45 -26 -22 -9
-29 -23 -46 -95 l-21 -83 -55 -12 c-145 -31 -216 -130 -112 -157 36 -10 49
-25 33 -41 -15 -15 -14 -68 2 -106 19 -44 102 -111 137 -111 16 0 36 -3 44 -6
12 -5 15 -2 10 10 -5 12 2 19 25 27 37 13 37 13 11 46 -11 14 -20 21 -20 14 0
-6 -9 -11 -20 -11 -11 0 -20 5 -20 10 0 6 9 10 20 10 32 0 34 1 51 16 15 13
18 13 33 -1 14 -14 18 -14 38 -1 13 8 53 26 90 41 65 26 103 60 133 120 6 11
24 22 40 25 31 6 35 23 14 61 -10 20 -69 33 -107 24 -24 -5 -28 -2 -39 35 -7
22 -13 51 -13 65 0 16 -6 25 -16 25 -8 0 -21 15 -29 34 -8 19 -19 37 -24 41
-6 3 -13 26 -17 50 -7 50 -7 50 -49 28z m85 -180 c0 -17 -11 -17 -35 1 -17 12
-17 16 -5 31 13 16 15 16 27 -1 7 -10 13 -24 13 -31z"/>
<path d="M3033 3427 c-17 -7 -23 -19 -23 -43 0 -36 8 -64 19 -64 11 0 33 73
29 97 -2 17 -6 19 -25 10z"/>
<path d="M2083 3393 c-46 -6 -59 -26 -45 -67 7 -18 12 -40 12 -49 0 -10 8 -17
19 -17 10 0 37 -7 60 -15 l41 -14 15 35 c14 33 13 39 -5 80 -11 24 -25 44 -29
44 -5 0 -15 2 -23 3 -7 2 -27 2 -45 0z"/>
<path d="M5492 3362 c-7 -2 -17 -15 -22 -28 -5 -13 -16 -24 -25 -24 -8 0 -15
-4 -15 -9 0 -10 66 -24 79 -17 5 3 16 -3 26 -14 22 -25 31 -19 39 26 6 28 3
39 -10 49 -10 7 -24 10 -32 7 -8 -3 -17 0 -21 5 -3 6 -12 8 -19 5z"/>
<path d="M7290 3350 c0 -5 -10 -18 -22 -30 -12 -11 -17 -20 -12 -20 11 0 54
42 54 53 0 4 -4 7 -10 7 -5 0 -10 -4 -10 -10z"/>
<path d="M8367 3324 c-9 -10 2 -24 19 -24 8 0 14 7 14 15 0 15 -21 21 -33 9z"/>
<path d="M2905 3290 c-18 -20 -18 -21 1 -35 41 -33 54 -37 54 -18 0 10 -8 30
-18 46 -19 27 -19 27 -37 7z"/>
<path d="M7122 3294 c-22 -15 -30 -44 -12 -44 6 0 10 5 10 12 0 6 7 20 17 30
20 22 15 23 -15 2z"/>
<path d="M7193 3286 c4 -9 1 -13 -6 -10 -13 5 -57 -30 -57 -45 0 -4 -9 -17
-20 -29 -29 -31 -20 -28 47 17 62 41 100 77 69 65 -9 -3 -16 -1 -16 5 0 6 -5
11 -11 11 -6 0 -9 -7 -6 -14z m-18 -36 c-3 -5 -11 -10 -16 -10 -6 0 -7 5 -4
10 3 6 11 10 16 10 6 0 7 -4 4 -10z"/>
<path d="M8247 3275 c-9 -8 -24 -15 -35 -15 -22 0 -38 -18 -36 -40 1 -8 2 -21
3 -27 0 -8 15 -13 34 -14 17 0 25 -3 17 -6 -32 -13 -76 -96 -64 -122 4 -9 8
-24 9 -35 2 -10 10 -23 19 -28 20 -11 22 -81 2 -97 -7 -6 -16 -24 -19 -39 -5
-24 -11 -28 -42 -29 -23 0 -43 -8 -56 -21 -24 -27 -24 -38 1 -70 14 -17 17
-29 11 -35 -7 -7 -3 -20 10 -39 28 -38 59 -125 59 -163 0 -19 7 -35 20 -43 21
-13 26 -41 11 -70 -5 -9 -14 -29 -21 -44 -11 -22 -16 -25 -31 -17 -11 5 -16
16 -12 24 4 13 -1 15 -34 9 -28 -4 -50 -1 -71 10 -33 17 -147 22 -156 7 -8
-12 -55 -20 -62 -10 -7 11 -74 -30 -74 -46 0 -15 51 -55 71 -55 7 0 21 -7 31
-16 16 -16 23 -16 85 0 38 9 79 16 93 16 30 0 80 -29 128 -75 33 -31 39 -33
91 -28 99 8 167 -40 178 -128 8 -56 -20 -124 -58 -141 -37 -16 -36 -28 1 -68
31 -33 48 -35 62 -7 4 9 12 25 16 35 18 35 56 47 119 36 32 -5 66 -8 75 -6 17
3 29 43 31 111 2 48 2 48 -76 78 -36 13 -56 29 -78 63 -43 65 -46 84 -15 124
14 19 35 37 45 41 16 5 19 12 14 43 -3 20 -14 46 -23 57 -10 11 -21 30 -25 43
-6 22 -8 22 -25 7 -15 -14 -22 -15 -41 -4 l-23 12 26 21 c14 12 29 31 33 44 3
12 10 22 15 22 4 0 36 36 71 80 35 43 70 79 77 80 19 0 15 9 -17 36 -16 14
-31 34 -33 46 -5 32 -26 33 -34 2 -9 -34 -52 -73 -80 -74 -12 0 -27 -6 -33
-14 -7 -8 -20 -13 -29 -11 -9 1 -24 -6 -33 -17 -13 -17 -19 -18 -37 -9 -27 15
-28 33 -2 56 20 18 20 18 -5 43 -32 32 -31 38 5 57 l31 16 -21 26 c-14 18 -17
30 -10 37 5 5 10 18 10 27 0 22 40 31 109 25 48 -4 51 -3 39 12 -24 32 -51 52
-67 52 -10 0 -26 7 -36 15 -11 8 -36 25 -55 38 -38 26 -42 52 -9 75 20 14 26
42 9 42 -5 0 -1 9 10 20 23 23 25 48 5 74 -15 19 -45 16 -45 -5 0 -8 -7 -6
-19 5 -17 15 -20 15 -34 1z m16 -100 c-3 -9 -8 -14 -10 -11 -3 3 -2 9 2 15 9
16 15 13 8 -4z m-18 -395 c3 -6 -1 -7 -9 -4 -18 7 -21 14 -7 14 6 0 13 -4 16
-10z m128 -246 c-3 -8 -12 -13 -20 -10 -8 3 -20 6 -26 6 -19 0 16 20 35 20 12
0 15 -5 11 -16z m-143 -183 c0 -11 -4 -22 -9 -25 -11 -7 -23 22 -15 35 9 16
24 10 24 -10z"/>
<path d="M8080 3275 c0 -17 35 -55 51 -55 22 0 26 29 7 48 -12 12 -58 17 -58
7z"/>
<path d="M335 3223 c-44 -23 -65 -44 -80 -79 -7 -18 -36 -50 -65 -71 -61 -45
-62 -67 -7 -96 21 -11 41 -27 45 -36 3 -9 12 -21 20 -27 8 -6 12 -16 8 -22
-12 -20 5 -80 30 -108 24 -25 26 -25 49 -10 13 9 40 16 59 16 19 0 41 7 50 15
8 8 19 15 25 15 19 0 12 29 -9 40 -24 13 -26 28 -5 37 9 3 21 -2 29 -12 10
-14 17 -15 34 -6 30 16 42 14 42 -9 0 -16 7 -20 31 -20 16 0 28 4 25 9 -3 5 1
14 9 21 13 11 15 8 15 -14 0 -16 -5 -26 -15 -26 -8 0 -15 -7 -15 -16 0 -12 -7
-15 -30 -12 -19 3 -29 1 -27 -6 2 -6 31 -10 70 -9 62 2 67 4 101 40 58 62 44
107 -44 143 -26 11 -36 10 -77 -8 -68 -29 -83 -19 -83 61 0 65 5 78 31 93 12
6 14 15 8 29 -6 17 -8 17 -8 3 -1 -10 -4 -18 -8 -19 -5 0 -27 -3 -49 -5 -40
-5 -42 -3 -59 33 -17 35 -50 74 -64 73 -3 -1 -19 -8 -36 -17z m103 -170 c4
-40 -27 -61 -64 -44 -30 13 -31 37 -1 62 33 28 61 21 65 -18z m-32 -179 c-3
-9 2 -14 14 -14 11 0 20 -6 20 -13 0 -8 -12 -14 -30 -14 -18 0 -27 4 -22 11 3
6 5 22 3 35 -2 15 1 21 9 16 6 -4 9 -13 6 -21z"/>
<path d="M5117 3233 c-4 -3 -7 -48 -7 -99 0 -76 3 -92 14 -88 22 8 30 -16 12
-34 -15 -15 -16 -15 -17 3 0 11 -3 14 -6 8 -7 -20 -22 -16 -63 17 -42 33 -50
36 -50 17 0 -7 14 -18 30 -24 23 -9 30 -18 31 -40 3 -60 5 -69 23 -108 20 -42
45 -206 46 -291 0 -43 3 -53 20 -57 13 -3 20 0 20 9 0 10 9 5 24 -13 13 -15
27 -25 30 -22 4 3 2 48 -4 100 -6 52 -11 143 -11 203 1 104 -12 184 -32 197
-5 4 -4 9 2 13 7 5 11 44 11 102 0 91 -1 95 -20 89 -14 -5 -20 -2 -20 9 0 16
-21 22 -33 9z m63 -187 c0 -3 -4 -8 -10 -11 -5 -3 -10 -1 -10 4 0 6 5 11 10
11 6 0 10 -2 10 -4z m-13 -109 c2 -2 -8 -10 -22 -17 -23 -12 -28 -12 -46 6
l-20 20 42 -3 c24 -2 44 -5 46 -6z"/>
<path d="M7043 3218 c-11 -13 -23 -30 -28 -38 -4 -8 7 0 24 19 17 18 31 35 31
37 0 8 -7 3 -27 -18z"/>
<path d="M7100 3230 c0 -5 5 -10 11 -10 5 0 7 5 4 10 -3 6 -8 10 -11 10 -2 0
-4 -4 -4 -10z"/>
<path d="M2663 3217 c-40 -18 -25 -35 69 -75 5 -2 8 6 8 17 0 12 -4 21 -10 21
-5 0 -9 5 -7 11 4 20 -36 38 -60 26z"/>
<path d="M5360 3214 c0 -8 5 -12 10 -9 6 3 10 10 10 16 0 5 -4 9 -10 9 -5 0
-10 -7 -10 -16z"/>
<path d="M7764 3219 c-3 -6 -7 -68 -8 -139 -2 -142 -10 -160 -65 -160 -17 0
-31 -1 -31 -2 0 -2 7 -21 15 -43 8 -22 14 -54 15 -71 0 -18 8 -39 20 -49 11
-10 20 -24 20 -32 0 -7 7 -16 14 -19 8 -3 26 -21 41 -39 25 -33 25 -35 9 -75
-17 -42 -8 -70 21 -70 8 0 16 -18 20 -40 7 -44 26 -59 68 -57 37 3 34 24 -7
62 -27 25 -36 41 -37 71 -2 22 0 45 4 51 4 7 3 14 -3 18 -27 16 -78 173 -64
196 10 16 92 10 127 -10 31 -17 35 -18 54 -2 21 16 41 57 23 46 -6 -3 -10 -2
-10 3 0 6 -11 13 -25 16 -32 8 -32 24 1 36 70 27 72 90 3 90 -20 0 -44 16 -88
60 -50 49 -61 66 -61 93 0 51 -11 77 -31 77 -10 0 -21 -5 -25 -11z m11 -79 c3
-5 1 -10 -4 -10 -6 0 -11 5 -11 10 0 6 2 10 4 10 3 0 8 -4 11 -10z"/>
<path d="M9155 3210 c-8 -26 2 -41 23 -33 22 8 31 23 25 40 -8 20 -41 16 -48
-7z"/>
<path d="M4850 3183 c0 -13 -7 -35 -16 -49 -26 -38 -8 -41 26 -4 42 45 54 69
38 74 -31 10 -48 2 -48 -21z"/>
<path d="M4935 3130 c-4 -6 5 -23 19 -37 30 -30 35 -13 7 23 -12 15 -22 21
-26 14z"/>
<path d="M8841 3065 c-11 -30 -26 -63 -32 -73 -8 -12 -8 -25 -3 -35 17 -29
106 -117 114 -112 4 3 13 -2 20 -10 7 -8 17 -15 23 -15 11 0 47 -39 47 -52 0
-4 -7 -8 -15 -8 -8 0 -15 5 -15 10 0 6 -7 10 -15 10 -8 0 -15 6 -15 13 0 6
-16 -5 -35 -26 -34 -38 -45 -67 -24 -67 5 0 7 -5 3 -12 -4 -6 1 -17 11 -24 15
-11 24 -11 53 2 75 31 131 -33 86 -101 -11 -16 -13 -34 -8 -59 3 -20 8 -36 10
-36 20 0 55 29 70 58 12 22 35 44 60 56 85 43 93 64 37 100 -48 30 -147 125
-156 149 -6 17 -8 17 -23 3 -8 -9 -23 -15 -32 -15 -15 1 -15 2 1 6 9 2 17 11
17 19 0 8 5 14 10 14 6 0 10 9 10 20 0 11 -6 20 -13 20 -30 0 -86 84 -126 193
-16 42 -37 33 -60 -28z"/>
<path d="M1480 3097 c0 -15 55 -77 69 -77 5 0 12 14 16 31 8 37 -7 58 -28 40
-11 -9 -17 -8 -27 4 -15 18 -30 19 -30 2z"/>
<path d="M9662 3080 c-13 -6 -49 -9 -80 -7 -51 2 -57 0 -60 -19 -2 -11 11 -37
28 -58 26 -33 30 -47 30 -98 0 -57 1 -59 23 -52 37 12 68 36 66 53 -3 30 1 38
31 77 24 29 30 46 28 73 -3 39 -23 48 -66 31z"/>
<path d="M6140 3041 c0 -5 7 -28 15 -51 8 -23 12 -52 9 -65 -3 -13 1 -36 10
-52 l15 -28 1 35 c0 19 -3 65 -7 103 -5 56 -9 67 -24 67 -11 0 -19 -4 -19 -9z"/>
<path d="M1998 3006 c-16 -11 -16 -15 -2 -35 9 -12 38 -33 65 -47 58 -29 56
-19 -8 53 -33 36 -40 40 -55 29z"/>
<path d="M2377 2967 c-30 -39 -154 -107 -196 -107 -15 0 -32 5 -39 12 -9 9
-12 8 -12 -8 1 -20 74 -97 122 -127 15 -9 40 -17 56 -17 29 0 72 -31 72 -53 1
-17 41 -62 67 -76 34 -17 82 -13 105 9 31 29 79 26 109 -6 34 -36 82 -54 145
-54 50 0 56 -2 74 -32 11 -18 20 -48 20 -66 0 -39 15 -72 33 -72 7 0 24 20 38
44 24 39 27 53 25 126 -1 66 -5 84 -19 91 -9 6 -17 16 -17 24 0 24 -38 28 -68
7 -15 -10 -32 -22 -38 -25 -15 -8 -109 54 -109 72 0 8 -6 16 -12 19 -8 2 -13
-6 -13 -22 0 -34 -20 -42 -125 -50 l-91 -7 -47 36 c-63 49 -79 79 -60 123 11
27 27 40 79 63 66 30 75 49 23 49 -28 0 -45 14 -82 63 -12 18 -15 17 -40 -16z"/>
<path d="M2840 2944 c0 -8 16 -22 35 -30 19 -8 35 -19 35 -24 0 -6 7 -10 15
-10 22 0 1 30 -39 58 -38 26 -46 27 -46 6z"/>
<path d="M8635 2945 c-79 -23 -95 -29 -95 -36 0 -4 5 -11 11 -14 6 -4 8 -12 6
-19 -10 -26 109 -3 123 24 22 41 3 60 -45 45z"/>
<path d="M7530 2930 c0 -15 31 -25 39 -13 3 6 13 13 21 16 8 3 -2 6 -22 6 -21
1 -38 -4 -38 -9z"/>
<path d="M3088 2904 c-7 -11 -3 -88 7 -135 8 -34 25 -39 25 -6 -1 44 -26 152
-32 141z"/>
<path d="M5336 2841 c5 -24 1 -40 -15 -61 -11 -16 -21 -38 -21 -50 0 -20 0
-20 44 2 51 26 65 55 36 75 -11 8 -20 20 -20 27 0 8 -7 19 -15 26 -13 11 -14
8 -9 -19z"/>
<path d="M7416 2825 c-33 -17 -72 -20 -81 -5 -10 16 -25 12 -25 -7 -1 -29 -56
-83 -85 -83 -18 0 -25 -5 -25 -19 0 -24 30 -35 70 -26 25 5 37 1 66 -24 43
-38 52 -39 59 -3 12 57 27 107 37 119 8 10 22 63 16 63 -2 0 -16 -7 -32 -15z"/>
<path d="M979 2797 c-26 -21 -26 -23 -9 -40 22 -22 35 -86 21 -100 -13 -13
-41 -1 -41 18 0 9 7 18 15 22 14 5 14 7 0 23 -9 9 -17 32 -20 50 -5 41 -5 41
-41 31 -24 -6 -29 -12 -27 -37 6 -66 5 -81 -2 -117 -6 -31 -3 -44 20 -79 15
-23 31 -53 35 -67 9 -34 52 -51 77 -30 10 9 33 16 52 18 43 2 51 7 51 32 0 20
-17 40 -62 73 -39 29 -43 59 -13 123 34 75 33 103 -2 103 -16 -1 -40 -11 -54
-23z"/>
<path d="M6306 2795 c-11 -8 -16 -15 -11 -15 5 0 0 -7 -11 -15 -11 -8 -14 -15
-6 -15 6 0 12 -7 12 -15 0 -23 13 -18 44 14 43 45 19 82 -28 46z"/>
<path d="M7157 2804 c-3 -4 -20 -8 -37 -10 -49 -6 -54 -15 -23 -35 39 -26 49
-24 62 13 11 31 10 44 -2 32z"/>
<path d="M3642 2755 c-43 -44 -47 -65 -14 -65 12 0 31 -25 55 -69 20 -37 37
-71 37 -74 0 -3 -47 20 -103 52 -57 32 -117 61 -133 64 -16 3 -38 9 -49 13
-11 4 16 -21 60 -57 44 -36 87 -79 95 -97 8 -17 21 -32 28 -32 12 0 71 -59 72
-72 0 -3 -8 -9 -17 -11 -14 -4 -13 -5 4 -6 12 0 24 -5 27 -10 3 -5 31 -12 62
-16 32 -4 67 -12 78 -17 12 -6 28 -14 36 -18 8 -4 18 -22 21 -40 9 -43 29 -61
68 -62 40 -1 56 -21 53 -65 -2 -26 4 -43 20 -60 18 -19 20 -27 11 -41 -6 -10
-14 -32 -17 -48 -6 -28 -10 -31 -39 -28 -18 2 -38 6 -45 9 -16 6 -19 -4 -26
-85 l-6 -65 43 47 c23 25 52 60 64 76 12 16 39 37 60 46 21 9 46 21 56 27 14
7 28 2 64 -23 30 -20 48 -27 51 -20 2 7 10 12 17 12 13 0 28 27 22 41 -1 4 6
15 15 26 9 10 16 32 16 50 -1 36 -15 45 -97 62 -53 11 -106 42 -144 85 -19 21
-18 21 7 24 31 4 142 -50 185 -90 36 -33 71 -37 71 -8 0 14 -7 20 -23 20 -35
0 -47 18 -41 64 5 35 0 50 -30 98 l-35 58 25 6 c30 8 32 43 4 69 -20 18 -21
18 -50 -3 -40 -30 -71 -28 -105 8 -16 17 -32 30 -37 30 -15 0 -8 -37 17 -84
l25 -47 -25 -11 c-22 -10 -29 -8 -55 17 -35 34 -38 45 -10 45 11 0 20 -7 20
-15 0 -8 5 -15 10 -15 11 0 13 11 4 34 -3 9 -15 16 -26 16 -11 0 -22 8 -25 20
-3 11 -13 20 -22 20 -10 0 -28 10 -41 23 -14 12 -29 21 -34 19 -5 -2 -21 8
-35 21 -14 14 -36 30 -48 36 -12 6 -27 26 -33 45 -9 28 -20 38 -55 52 -39 15
-44 20 -39 40 3 13 5 24 3 24 -2 0 -23 -20 -47 -45z m388 -382 c0 -2 -17 4
-37 13 -21 9 -46 16 -55 16 -21 -1 -24 28 -6 46 9 9 22 3 55 -30 24 -23 43
-44 43 -45z m210 -63 c0 -19 -20 -27 -33 -13 -8 7 11 33 24 33 5 0 9 -9 9 -20z"/>
<path d="M8755 2730 c3 -5 16 -10 28 -10 18 0 19 2 7 10 -20 13 -43 13 -35 0z"/>
<path d="M9694 2690 c-16 -22 -35 -40 -42 -40 -7 0 -24 -11 -37 -24 -15 -15
-46 -28 -89 -37 -40 -8 -66 -18 -66 -26 0 -7 9 -31 21 -53 12 -22 19 -47 16
-54 -6 -16 -15 -17 -189 -18 -97 -1 -108 -4 -114 -21 -8 -26 6 -38 61 -48 40
-7 51 -6 75 11 36 25 101 27 123 3 8 -10 19 -31 23 -46 3 -16 14 -31 23 -34 9
-2 24 -9 33 -14 10 -5 26 -9 37 -9 11 0 29 -12 41 -27 20 -25 22 -37 17 -103
-5 -81 4 -105 49 -135 23 -15 28 -15 48 -1 20 13 23 24 25 88 3 124 23 173 73
183 62 12 68 16 68 40 0 17 -9 29 -30 40 -23 12 -30 22 -30 45 0 16 6 35 14
43 8 7 20 33 27 57 12 40 12 44 -10 61 -13 11 -34 19 -47 19 -33 0 -54 36 -54
92 0 40 -3 48 -18 48 -10 0 -31 -18 -48 -40z m-134 -290 c0 -11 -4 -20 -10
-20 -5 0 -10 9 -10 20 0 11 5 20 10 20 6 0 10 -9 10 -20z"/>
<path d="M3170 2706 c0 -30 21 -69 31 -59 6 6 4 20 -7 41 -17 35 -24 40 -24
18z"/>
<path d="M6173 2702 c-15 -10 -19 -47 -10 -102 9 -48 -11 -125 -31 -125 -6 0
-14 -3 -18 -7 -13 -14 -42 -9 -48 8 -3 9 -6 26 -6 39 0 16 -9 26 -30 35 -37
15 -39 13 -51 -41 -9 -37 -7 -46 16 -80 24 -34 29 -36 56 -28 96 30 89 30 115
2 l24 -26 19 24 c17 21 19 34 14 102 -5 64 -3 80 11 96 25 28 17 68 -19 91
-17 10 -36 16 -42 12z"/>
<path d="M1421 2681 c-9 -6 -10 -14 -5 -23 13 -23 62 -78 68 -78 13 0 5 62
-10 85 -17 26 -30 30 -53 16z"/>
<path d="M3059 2639 c-23 -24 -38 -48 -35 -56 4 -8 6 -17 6 -19 0 -3 5 -2 10
1 6 3 10 -1 10 -9 0 -9 6 -16 14 -16 9 0 16 -12 18 -27 2 -22 9 -29 32 -31 26
-3 28 -1 22 20 -4 13 -10 56 -13 96 -3 40 -10 75 -14 78 -5 3 -27 -14 -50 -37z"/>
<path d="M0 2615 c0 -35 6 -65 16 -81 15 -23 15 -26 0 -43 -9 -9 -16 -32 -16
-50 0 -30 3 -33 23 -27 12 3 43 6 69 6 38 0 54 6 82 30 19 17 48 35 66 41 37
13 32 19 -32 43 -27 10 -62 34 -81 56 -20 21 -46 41 -59 45 -12 4 -33 13 -45
21 -23 14 -23 14 -23 -41z"/>
<path d="M1992 2635 c-27 -34 -25 -41 11 -63 24 -15 29 -15 37 -2 15 23 12 45
-8 70 l-18 23 -22 -28z"/>
<path d="M5328 2597 c5 -34 28 -77 49 -90 7 -4 13 -20 13 -35 0 -30 16 -52 37
-52 7 0 13 9 13 20 0 30 24 35 72 16 33 -14 43 -15 49 -4 13 20 11 32 -11 46
-11 6 -28 29 -39 51 -23 44 -44 56 -70 39 -15 -9 -26 -7 -55 11 -20 13 -36 19
-36 16 0 -4 -6 -3 -13 4 -11 8 -13 4 -9 -22z"/>
<path d="M6105 2617 c-4 -10 -5 -21 -1 -24 10 -10 18 4 13 24 -4 17 -4 17 -12
0z"/>
<path d="M3256 2594 c-18 -48 0 -64 64 -54 l35 5 -35 33 c-38 36 -55 40 -64
16z"/>
<path d="M2557 2541 c6 -22 29 -35 38 -21 9 15 -6 40 -25 40 -13 0 -17 -6 -13
-19z"/>
<path d="M4745 2551 c-27 -5 -48 -31 -26 -31 19 0 71 23 71 31 0 5 -3 8 -7 8
-5 -1 -21 -4 -38 -8z"/>
<path d="M1488 2464 c-6 -91 -15 -103 -60 -82 -32 15 -98 38 -110 38 -3 0 -20
-25 -37 -55 -33 -58 -71 -85 -119 -85 -31 0 -92 -54 -92 -82 0 -19 45 -58 67
-58 8 0 28 -7 44 -16 32 -16 52 -11 121 26 10 6 23 10 29 10 6 0 28 10 48 23
35 21 75 32 66 17 -2 -4 28 -13 68 -20 40 -7 81 -19 92 -26 11 -8 32 -14 47
-14 14 0 38 -4 52 -9 17 -7 26 -7 29 2 7 23 -6 47 -26 47 -11 0 -36 6 -55 12
-31 12 -33 15 -28 47 3 19 12 41 20 49 20 20 62 3 110 -44 32 -31 40 -34 73
-28 21 4 39 8 41 9 2 1 -12 12 -31 23 -19 11 -41 35 -48 53 -47 110 -63 131
-113 150 -27 10 -61 30 -76 44 -14 14 -33 25 -42 25 -9 0 -20 5 -23 10 -3 6
-14 10 -24 10 -16 0 -19 -11 -23 -76z m-106 -266 c-10 -10 -15 -10 -21 1 -5 8
-7 21 -4 28 5 12 8 12 21 -1 13 -13 14 -18 4 -28z"/>
<path d="M4357 2513 c-13 -12 -7 -33 8 -33 8 0 15 9 15 20 0 20 -11 26 -23 13z"/>
<path d="M880 2486 c0 -2 7 -6 15 -10 8 -3 15 -1 15 4 0 6 -7 10 -15 10 -8 0
-15 -2 -15 -4z"/>
<path d="M3443 2454 c19 -10 27 -23 27 -42 0 -17 14 -42 38 -68 20 -23 42 -49
47 -59 6 -9 19 -17 30 -18 15 -2 21 6 26 38 10 55 3 73 -35 89 -17 7 -47 27
-66 45 -23 21 -44 31 -65 31 l-30 -1 28 -15z"/>
<path d="M5300 2449 c0 -11 5 -17 10 -14 6 3 10 13 10 21 0 8 -4 14 -10 14 -5
0 -10 -9 -10 -21z"/>
<path d="M2734 2444 c-12 -38 -26 -61 -59 -97 -38 -41 -68 -47 -99 -18 -12 10
-48 27 -80 37 -56 17 -61 17 -88 1 -37 -21 -47 -21 -70 0 -18 16 -20 15 -42
-8 -16 -16 -26 -41 -30 -76 -6 -46 -4 -52 14 -58 11 -3 20 -10 20 -15 0 -5 13
-7 28 -4 19 4 35 -1 52 -15 l25 -20 -26 -1 -26 0 31 -36 c17 -19 55 -61 84
-92 28 -31 52 -63 52 -70 0 -7 16 -43 36 -79 33 -62 35 -68 19 -80 -10 -7 -22
-14 -28 -16 -22 -7 6 -28 29 -23 21 6 24 3 24 -19 0 -33 11 -26 49 32 26 39
31 56 31 106 0 40 5 66 15 77 12 13 13 23 6 43 -16 43 5 74 51 74 30 0 38 -4
38 -17 0 -11 12 -22 31 -29 44 -15 51 -14 44 9 -4 13 2 31 15 51 21 28 21 31
6 48 -24 26 -73 34 -99 16 -48 -33 -83 -6 -86 66 -2 50 9 65 49 71 24 3 25 5
22 68 -4 69 -25 112 -38 74z m-234 -304 c0 -5 -7 -10 -16 -10 -8 0 -12 5 -9
10 3 6 10 10 16 10 5 0 9 -4 9 -10z"/>
<path d="M6481 2446 c-10 -12 -9 -18 8 -35 24 -24 44 -27 58 -8 13 16 12 47
-1 47 -6 0 -20 3 -32 6 -12 3 -26 -1 -33 -10z"/>
<path d="M867 2443 c-4 -3 -7 -19 -7 -35 0 -21 5 -28 20 -28 24 0 24 -1 7 39
-7 17 -16 28 -20 24z"/>
<path d="M4624 2432 c-6 -4 -19 -22 -29 -39 -11 -18 -22 -33 -26 -33 -4 0 -5
-9 -2 -20 4 -14 14 -20 34 -20 16 0 32 -1 37 -2 9 -4 12 111 3 116 -4 3 -12 2
-17 -2z"/>
<path d="M927 2395 c-15 -14 -34 -25 -42 -25 -17 0 -108 -127 -100 -140 3 -6
1 -10 -4 -10 -6 0 -11 -11 -11 -25 0 -19 -5 -25 -23 -25 -13 0 -32 7 -43 15
-10 8 -27 15 -37 15 -9 0 -26 6 -38 13 -17 10 -23 9 -40 -13 l-20 -25 2 25 c1
14 -3 39 -10 55 -6 17 -14 36 -16 43 -7 19 -46 11 -59 -12 -8 -14 -8 -20 2
-23 7 -3 19 -21 27 -40 11 -27 19 -34 32 -29 16 5 15 4 -1 -9 -18 -14 -18 -15
8 -24 23 -9 26 -16 26 -55 0 -55 -14 -91 -54 -134 -26 -27 -28 -34 -16 -42 8
-5 27 -10 41 -10 31 0 59 -28 59 -58 0 -26 7 -28 29 -7 86 80 132 105 200 105
12 0 30 14 44 35 13 19 47 47 78 63 62 33 64 42 33 149 l-18 62 23 25 c19 20
23 32 18 61 -11 69 -42 82 -90 40z"/>
<path d="M4434 2408 c-4 -6 -3 -13 3 -15 14 -5 5 -42 -14 -65 -8 -9 -12 -21
-8 -27 4 -7 -5 -9 -24 -7 -17 2 -31 -1 -31 -5 0 -5 4 -9 9 -9 5 0 7 -10 3 -22
-5 -20 -4 -21 11 -9 9 7 14 17 11 22 -3 5 4 9 14 9 11 0 22 9 25 20 3 11 18
24 33 30 27 11 27 11 7 25 -14 10 -19 22 -16 40 5 26 -10 34 -23 13z"/>
<path d="M1880 2384 c0 -18 28 -49 37 -40 9 8 -14 56 -27 56 -5 0 -10 -7 -10
-16z"/>
<path d="M3174 2345 c-9 -23 14 -45 26 -25 5 8 8 19 7 24 -6 17 -27 18 -33 1z"/>
<path d="M8760 2340 c0 -13 -7 -20 -19 -20 -26 0 -33 -26 -22 -85 12 -64 52
-95 71 -54 35 75 34 74 83 77 59 4 59 25 1 32 -34 4 -40 9 -49 38 -7 26 -14
32 -37 32 -21 0 -28 -5 -28 -20z"/>
<path d="M9200 2280 c0 -35 23 -41 40 -10 13 25 5 40 -21 40 -14 0 -19 -7 -19
-30z"/>
<path d="M3098 2218 c-14 -18 -28 -43 -32 -55 -4 -12 -20 -31 -35 -42 -16 -12
-31 -34 -34 -50 -9 -45 -45 -74 -84 -67 -37 5 -37 6 -22 -28 10 -21 7 -31 -20
-72 -36 -55 -29 -74 17 -50 17 9 44 16 60 16 20 0 32 7 42 25 23 43 78 45 64
3 -9 -29 17 -19 34 13 9 17 12 60 10 144 -3 111 -2 120 17 130 43 22 46 25 35
46 -15 26 -24 24 -52 -13z"/>
<path d="M3247 2243 c-17 -17 6 -79 41 -110 44 -40 59 -41 72 -8 10 26 17 29
44 19 22 -8 20 -26 -5 -58 -23 -30 -23 -81 1 -81 24 -1 60 -16 60 -26 0 -12
51 -11 108 2 61 15 72 25 45 44 -19 13 -40 67 -35 87 1 4 -8 10 -19 13 -18 6
-20 12 -14 46 5 31 3 40 -9 45 -9 3 -23 1 -30 -5 -11 -9 -19 -9 -34 0 -16 10
-23 10 -36 0 -20 -17 -88 -6 -117 20 -22 19 -59 25 -72 12z"/>
<path d="M5780 2206 c0 -16 28 -42 36 -33 8 7 -14 47 -26 47 -6 0 -10 -6 -10
-14z"/>
<path d="M9298 2163 c-10 -2 -18 -10 -18 -18 0 -7 -17 -25 -37 -40 -21 -16
-50 -39 -65 -53 -26 -24 -27 -28 -14 -47 11 -17 12 -25 3 -34 -13 -13 -44 -15
-49 -3 -1 5 -19 11 -39 15 -32 5 -36 3 -32 -13 3 -10 0 -20 -5 -24 -5 -3 -7
-28 -4 -56 5 -57 -11 -106 -38 -115 -27 -9 -32 -33 -9 -45 10 -6 24 -8 29 -5
6 4 19 3 30 0 15 -5 19 -12 14 -29 -3 -14 1 -27 10 -35 13 -11 13 -16 -2 -47
-20 -43 -54 -54 -91 -30 -14 10 -33 20 -43 23 -9 2 -18 13 -21 24 -6 24 -30
24 -53 2 -9 -10 -28 -25 -42 -35 -23 -15 -26 -15 -42 0 -10 10 -21 28 -25 42
-11 39 -86 160 -105 170 -20 11 -30 4 -30 -21 0 -25 -65 -72 -98 -71 -15 0
-51 4 -79 7 -64 9 -73 -4 -54 -74 17 -66 50 -95 108 -97 28 -1 51 -8 57 -16 6
-8 26 -15 44 -15 37 0 82 -36 82 -66 0 -10 -14 -64 -31 -119 -17 -54 -29 -102
-26 -105 3 -2 21 -6 40 -8 59 -6 74 -19 80 -73 3 -26 3 -66 0 -88 -5 -37 -3
-40 41 -71 87 -61 47 -117 -76 -106 -68 7 -108 -12 -108 -52 0 -29 -16 -31
-86 -14 -45 12 -46 11 -81 -25 -33 -33 -63 -47 -63 -28 0 4 -14 16 -31 26 -24
14 -30 24 -26 42 2 13 1 21 -3 19 -4 -3 -10 3 -12 13 -4 14 -16 17 -74 16 -38
0 -77 4 -86 10 -12 7 -24 6 -43 -2 -41 -19 -69 -14 -110 18 -21 16 -46 30 -56
30 -10 0 -21 5 -24 11 -4 5 -12 8 -18 6 -7 -2 -20 3 -30 12 -17 14 -21 14 -49
-2 -39 -22 -64 -22 -99 4 -36 25 -40 72 -8 90 17 9 20 17 15 42 -3 18 -13 37
-21 43 -8 6 -15 19 -15 29 0 10 3 15 6 12 9 -9 44 11 44 25 0 6 -3 8 -7 5 -3
-4 -14 11 -24 33 -18 40 -65 71 -78 52 -3 -5 -16 -14 -28 -21 -15 -7 -20 -17
-16 -28 5 -12 0 -10 -15 5 -12 12 -26 22 -31 22 -14 0 -21 -43 -10 -56 15 -18
1 -62 -19 -60 -10 1 -18 -8 -20 -21 -4 -28 -18 -29 -34 -3 -15 24 -24 25 -46
4 -14 -15 -14 -17 1 -25 9 -5 22 -15 29 -23 7 -7 24 -18 37 -25 12 -7 39 -27
59 -45 25 -23 51 -35 80 -39 66 -8 72 -17 72 -113 l0 -84 43 -22 c23 -12 66
-25 96 -29 44 -6 62 -15 95 -47 52 -50 113 -60 202 -33 49 16 62 24 78 55 31
57 40 49 87 -71 6 -16 16 -21 38 -21 32 1 64 -18 55 -33 -3 -5 -14 -9 -24 -9
-11 0 -50 -21 -88 -47 -56 -39 -67 -51 -59 -63 7 -12 5 -25 -6 -47 -21 -41
-12 -75 18 -67 12 3 37 -1 56 -8 20 -8 56 -12 87 -10 45 3 52 7 52 25 0 18 -2
20 -11 7 -9 -12 -10 -12 -7 -1 6 21 24 24 41 6 17 -17 47 -10 47 11 0 14 54
109 73 128 32 32 127 25 127 -9 0 -8 12 -23 26 -34 30 -24 27 -26 -10 -9 -21
9 -29 8 -44 -5 -10 -10 -25 -17 -34 -17 -8 0 -25 -11 -38 -25 -20 -22 -22 -29
-12 -43 18 -24 30 -53 37 -86 5 -26 9 -28 38 -22 111 22 129 20 182 -21 27
-21 61 -48 75 -60 14 -13 29 -23 33 -23 5 0 6 -13 2 -29 -6 -26 0 -36 46 -80
l53 -51 103 0 c91 0 105 2 124 21 17 17 20 28 14 57 -4 21 -8 39 -10 41 -2 2
-22 -6 -45 -18 -54 -28 -101 -27 -151 4 -45 29 -54 44 -45 79 9 35 61 50 142
41 43 -4 64 -3 64 4 0 14 35 14 58 0 12 -8 35 -8 72 -2 47 7 55 11 52 28 -1
13 7 24 24 32 23 11 29 9 50 -12 13 -13 24 -29 24 -35 0 -11 73 -13 132 -4 22
4 38 13 41 24 3 13 12 16 38 12 19 -3 44 -11 56 -19 12 -8 28 -11 35 -7 10 6
9 3 -1 -9 -12 -15 -11 -17 3 -17 10 0 26 4 36 10 15 8 17 15 8 47 -22 85 -21
102 6 137 l26 35 0 449 0 450 -26 6 c-14 4 -39 17 -55 28 -29 21 -30 22 -77 5
-28 -10 -57 -15 -68 -11 -16 6 -68 40 -97 64 -9 8 12 60 25 60 4 0 8 30 8 66
0 59 3 68 29 95 31 31 67 37 103 18 35 -19 83 -72 98 -109 15 -37 27 -50 48
-50 9 0 12 24 12 88 0 81 -2 89 -28 117 -35 39 -77 61 -132 70 -65 10 -71 19
-50 62 15 31 16 39 4 51 -8 7 -14 22 -14 33 0 31 -42 23 -85 -16 -39 -34 -39
-34 -20 -55 16 -18 17 -23 5 -30 -18 -12 -61 -13 -76 -2 -6 4 -13 15 -17 24
-7 21 -113 72 -131 65 -19 -8 -96 30 -96 47 0 8 27 27 60 42 43 19 62 35 66
51 7 26 -10 53 -33 53 -7 0 -13 6 -12 13 3 22 -1 37 -8 36 -5 -1 -16 -3 -25
-6z m187 -451 c56 -39 71 -70 60 -119 l-10 -38 -69 -8 c-56 -6 -72 -4 -86 8
-16 14 -16 22 -4 78 8 42 9 66 2 74 -33 40 50 44 107 5z m-330 -239 c3 -40 -6
-42 -22 -6 -17 36 -16 45 3 41 11 -2 18 -15 19 -35z m62 -35 c7 19 23 14 23
-8 0 -10 -9 -24 -20 -30 -16 -8 -20 -8 -20 4 0 8 -5 16 -12 18 -7 3 -8 10 -4
17 7 11 10 11 18 0 7 -11 11 -11 15 -1z m-337 -54 c0 -14 -38 -44 -56 -44 -24
0 -23 31 2 56 20 21 28 23 39 14 8 -7 15 -18 15 -26z m403 -36 c-2 -5 -15 -8
-28 -8 l-23 0 21 24 c19 22 23 23 28 8 4 -9 5 -20 2 -24z m-244 -132 c15 -8
37 -12 49 -9 28 7 79 -25 87 -55 14 -58 -65 -102 -119 -67 -14 10 -26 21 -26
26 0 5 -8 9 -19 9 -14 0 -20 10 -25 46 -9 67 1 76 53 50z m623 -11 c25 -55
-34 -101 -76 -59 -21 20 -20 43 2 65 26 26 60 24 74 -6z m-484 -307 c2 -28 -1
-39 -17 -47 -35 -19 -121 10 -121 42 0 6 8 19 17 29 13 15 28 18 67 16 51 -3
51 -3 54 -40z m-1178 -75 c0 -24 -25 -9 -28 17 -3 21 -2 22 12 11 9 -7 16 -20
16 -28z m282 -15 c-9 -9 -12 -7 -12 12 0 19 3 21 12 12 9 -9 9 -15 0 -24z
m1392 -24 c40 -41 35 -73 -19 -108 -53 -33 -85 -30 -112 10 -23 35 -8 70 42
99 52 30 57 30 89 -1z m-1039 -24 c26 -16 31 -24 27 -49 -2 -16 -11 -32 -19
-36 -19 -7 -42 11 -42 33 0 9 -3 29 -7 45 -8 32 -2 33 41 7z m565 -120 c11
-11 20 -26 20 -33 0 -25 51 -87 71 -87 12 0 33 -8 47 -17 15 -10 36 -23 47
-29 13 -8 19 -21 18 -39 -3 -39 -21 -55 -60 -55 -38 0 -65 12 -94 41 -39 39
-116 7 -103 -45 3 -14 0 -29 -11 -39 -17 -18 -45 -12 -45 9 0 18 -32 34 -67
34 -21 -1 -34 -10 -50 -36 -13 -20 -23 -40 -23 -45 0 -16 -58 0 -97 27 -20 13
-42 24 -49 24 -18 0 -32 29 -26 54 3 11 20 36 39 55 18 19 33 44 33 57 0 33
30 34 71 2 20 -15 39 -25 42 -22 3 4 19 -3 35 -15 37 -26 53 -27 46 -3 -5 14
-2 13 13 -4 27 -30 43 -20 32 19 -11 38 -12 118 -1 133 24 36 83 43 112 14z
m-385 -99 c3 -5 1 -12 -5 -16 -5 -3 -10 1 -10 9 0 18 6 21 15 7z m842 -288
c-3 -3 -11 -2 -17 2 -9 6 -9 10 1 16 14 8 27 -7 16 -18z"/>
<path d="M9025 440 c-3 -5 -1 -10 4 -10 6 0 11 5 11 10 0 6 -2 10 -4 10 -3 0
-8 -4 -11 -10z"/>
<path d="M407 2143 c-4 -3 -7 -12 -7 -19 0 -7 -11 -24 -25 -38 -14 -14 -25
-34 -25 -45 0 -18 -6 -19 -75 -14 -61 4 -79 2 -94 -11 -17 -15 -20 -15 -40 1
-13 10 -26 34 -30 52 -7 39 -43 58 -87 47 -23 -6 -25 -10 -22 -59 l3 -51 55
-3 c79 -4 92 -6 114 -23 32 -25 86 -82 86 -92 0 -5 23 -19 50 -32 57 -27 90
-53 90 -72 0 -7 19 -18 43 -24 74 -20 90 -76 37 -132 -25 -26 -30 -39 -30 -79
0 -27 -4 -49 -9 -49 -10 0 32 -114 50 -136 6 -8 20 -14 30 -14 24 0 24 -21 -1
-70 -15 -29 -29 -42 -53 -48 -40 -11 -50 -6 -43 21 3 13 -2 29 -14 41 -11 12
-31 33 -44 48 -22 25 -29 27 -78 21 -29 -3 -64 -14 -79 -24 -16 -11 -48 -19
-92 -21 -73 -3 -83 -10 -37 -27 31 -10 41 -31 16 -31 -11 0 -13 -10 -9 -39 4
-30 2 -39 -12 -45 -9 -3 -20 -4 -25 -1 -4 3 -10 -2 -14 -10 -10 -28 -28 -16
-21 14 3 17 2 32 -4 36 -12 7 -14 -93 -2 -135 9 -31 38 -38 56 -13 13 17 16
17 71 -10 40 -20 60 -25 67 -18 6 6 19 11 29 11 9 0 21 6 25 14 7 13 37 20 71
17 7 -1 12 -14 12 -31 0 -23 -6 -33 -25 -40 -20 -8 -25 -16 -25 -44 0 -19 -5
-38 -10 -41 -6 -3 -10 -15 -10 -25 0 -10 -7 -25 -15 -33 -8 -8 -22 -30 -33
-48 -10 -18 -23 -34 -30 -37 -18 -6 -82 63 -82 88 0 12 -4 18 -10 15 -6 -4 -8
-11 -4 -16 11 -18 -16 -40 -37 -29 -13 7 -25 7 -39 -2 -19 -12 -19 -13 3 -25
l22 -13 -22 -6 c-22 -6 -23 -10 -23 -131 0 -87 3 -122 11 -117 6 3 27 -1 47
-11 27 -12 43 -29 60 -64 12 -26 22 -53 22 -60 0 -15 -42 -31 -82 -31 l-31 0
21 -23 c19 -20 20 -27 10 -60 -10 -31 -14 -36 -35 -31 l-23 6 0 -136 0 -136
151 0 150 0 -27 36 c-27 35 -27 37 -12 67 35 69 29 99 -29 152 -20 18 -22 23
-10 45 17 33 59 47 97 33 18 -7 30 -7 30 -2 0 5 -7 12 -15 15 -11 5 -15 22
-15 65 0 51 3 61 24 74 17 11 35 14 60 10 33 -7 37 -5 57 29 12 20 29 41 39
46 11 6 24 26 31 45 7 19 16 35 20 35 4 0 22 12 39 26 l31 27 62 -17 61 -17
56 58 c82 87 99 95 173 87 34 -4 70 -11 80 -16 21 -11 127 35 127 55 0 7 18
36 40 65 22 29 40 59 40 66 0 16 -83 76 -106 76 -9 0 -14 10 -14 27 0 15 -9
36 -20 48 -24 25 -18 55 11 55 12 0 21 9 25 28 3 15 7 33 10 40 10 34 -69 31
-107 -4 -15 -13 -17 -13 -23 1 -11 29 -6 82 8 94 8 6 16 21 19 31 5 18 0 20
-50 20 -52 0 -57 2 -94 42 -22 24 -39 46 -39 49 0 12 -33 20 -42 11 -5 -5 -12
-38 -15 -73 -7 -82 -13 -90 -61 -77 -20 6 -64 7 -98 4 -53 -5 -63 -4 -79 14
-28 31 -17 153 19 215 27 45 27 47 11 82 -13 27 -15 48 -10 95 7 57 6 61 -11
53 -11 -4 -39 -10 -64 -12 -39 -4 -48 -1 -69 21 -15 16 -35 26 -53 26 -24 0
-28 4 -28 29 0 17 -4 33 -10 36 -5 3 -10 19 -10 36 0 23 4 29 21 29 18 0 20 5
18 39 -2 21 2 45 8 53 24 30 24 95 0 71z m678 -951 c-6 -16 -7 -16 -17 2 -8
14 -7 21 3 27 17 10 24 -4 14 -29z m-130 -144 c49 1 65 -8 65 -37 0 -24 -5
-29 -32 -35 -17 -3 -39 -13 -47 -20 -9 -8 -27 -16 -41 -18 -29 -4 -40 -15 -40
-44 0 -31 -73 -94 -108 -94 -15 0 -33 5 -40 12 -19 19 -14 62 9 78 39 27 66
55 87 90 24 39 89 82 112 73 8 -3 24 -6 35 -5z m-364 -70 c35 -40 37 -61 4
-82 -51 -33 -124 -12 -139 40 -5 16 1 28 24 48 42 35 74 33 111 -6z m107 -41
c-25 -9 -38 -1 -38 23 0 27 23 31 42 6 16 -20 16 -21 -4 -29z m-238 -267 c0
-4 9 -10 20 -13 25 -6 27 -43 3 -69 -17 -19 -58 -24 -68 -8 -3 6 -15 10 -26
10 -31 0 -24 44 11 74 28 23 60 26 60 6z"/>
<path d="M5572 2128 c5 -15 28 -18 29 -3 0 6 -7 12 -17 13 -10 3 -15 -1 -12
-10z"/>
<path d="M5760 2126 c0 -9 7 -16 16 -16 9 0 14 5 12 12 -6 18 -28 21 -28 4z"/>
<path d="M9020 2050 c0 -5 5 -10 10 -10 6 0 10 5 10 10 0 6 -4 10 -10 10 -5 0
-10 -4 -10 -10z"/>
<path d="M4281 1991 c-7 -13 -6 -32 3 -62 l14 -44 -1 62 c-1 35 -3 63 -4 63
-1 0 -7 -8 -12 -19z"/>
<path d="M1073 1929 c-5 -18 -11 -20 -39 -16 -38 6 -46 1 -35 -22 4 -9 16 -32
26 -53 16 -33 46 -54 59 -41 3 3 3 32 -1 63 -4 38 -2 60 6 64 14 9 14 26 0 26
-6 0 -13 -9 -16 -21z"/>
<path d="M3180 1935 c0 -8 15 -17 34 -20 57 -11 110 -111 70 -133 -16 -9 -16
-15 -7 -46 13 -43 1 -55 -24 -23 -23 30 -53 42 -53 22 0 -8 -5 -15 -11 -15 -5
0 -17 -16 -25 -35 -12 -29 -20 -35 -43 -35 -46 0 -81 48 -78 109 1 30 -3 54
-13 65 -13 17 -14 17 -21 -1 -3 -10 -3 -25 2 -34 5 -10 0 -31 -13 -57 -20 -39
-21 -43 -5 -94 9 -29 20 -68 23 -86 l7 -33 19 21 c18 20 21 20 38 5 9 -8 24
-13 33 -9 12 4 18 -2 23 -21 l7 -26 33 32 c28 27 37 31 68 25 40 -8 41 -4 37
77 -2 28 1 37 13 37 10 0 19 12 23 30 7 35 16 37 43 10 15 -15 20 -33 20 -72
0 -53 22 -103 59 -138 23 -22 37 -45 81 -136 45 -92 46 -96 26 -127 -21 -33
-10 -73 25 -87 30 -13 37 -38 17 -58 -10 -10 -10 -15 1 -21 8 -5 20 -7 28 -4
7 3 20 0 28 -7 12 -10 17 -7 26 16 13 36 4 106 -21 159 -35 74 -50 130 -50
186 0 54 2 59 50 108 27 28 56 51 65 51 27 0 56 36 66 80 5 24 8 45 5 47 -9 9
-48 -9 -82 -39 -49 -43 -100 -36 -158 21 -23 23 -45 41 -50 41 -14 0 6 -65 40
-129 27 -49 32 -66 23 -77 -24 -29 -53 11 -133 187 -19 42 -32 58 -51 63 -17
4 -32 21 -47 51 -20 41 -20 45 -5 68 15 24 15 26 -6 40 -32 20 -137 30 -137
12z"/>
<path d="M4270 1858 c0 -10 -4 -18 -10 -18 -5 0 -10 -5 -10 -11 0 -15 63 -6
68 10 3 9 0 11 -7 6 -7 -4 -18 1 -26 11 -13 18 -14 18 -15 2z"/>
<path d="M3937 1696 c-36 -43 -37 -45 -24 -83 11 -33 16 -38 41 -36 37 3 41 8
28 37 -7 15 -7 27 -1 33 14 14 15 71 2 84 -7 7 -22 -5 -46 -35z"/>
<path d="M7655 1730 c-4 -6 -2 -17 5 -25 7 -9 8 -15 0 -20 -13 -8 -13 -52 0
-60 11 -7 39 50 43 87 1 17 -4 24 -20 26 -11 2 -24 -2 -28 -8z"/>
<path d="M1722 1673 c-16 -3 -25 -14 -29 -34 -5 -27 -7 -28 -23 -14 -19 17
-30 19 -30 5 0 -5 -16 -31 -36 -57 -56 -73 -83 -135 -90 -207 -6 -61 -5 -69
17 -92 l23 -25 -73 3 c-67 3 -75 1 -88 -19 -17 -25 -35 -31 -32 -10 6 48 -25
41 -46 -10 -13 -30 -13 -38 0 -64 17 -32 25 -35 43 -17 9 9 17 9 36 -2 20 -10
29 -10 39 -1 12 9 16 8 21 -4 3 -8 16 -15 30 -15 14 0 28 -5 31 -11 4 -6 19
-7 35 -4 16 4 38 1 52 -7 12 -7 24 -14 26 -14 2 -1 -6 -16 -16 -34 -11 -17
-21 -28 -23 -23 -7 14 -135 54 -153 47 -12 -5 -16 -14 -13 -31 3 -19 -2 -27
-24 -39 -21 -10 -29 -22 -29 -40 0 -33 -27 -91 -50 -107 -9 -7 -22 -22 -29
-34 -10 -20 -5 -30 48 -97 32 -41 67 -96 77 -123 27 -70 22 -169 -13 -239 -13
-24 -21 -29 -42 -26 -19 2 -37 -4 -58 -22 -17 -15 -47 -33 -66 -41 -31 -13
-37 -13 -47 0 -7 8 -18 15 -25 15 -6 0 -26 7 -44 16 -49 24 -145 15 -169 -15
-9 -13 -26 -32 -37 -43 -56 -53 -55 -53 -75 -40 -16 10 -21 9 -29 -6 -9 -15
-15 -12 -51 24 -37 37 -41 43 -29 61 7 11 9 28 6 37 -8 21 -60 21 -77 1 -11
-13 -15 -13 -21 -3 -5 7 -6 -30 -3 -82 4 -81 8 -98 27 -115 12 -11 30 -33 41
-49 19 -30 11 -45 -24 -46 -8 0 -22 -5 -30 -10 -10 -7 6 -10 54 -10 63 0 68 1
63 20 -3 11 -1 20 4 20 4 0 19 12 32 26 31 33 43 17 23 -31 l-15 -35 222 2
222 3 -2 60 c-1 33 -2 75 -3 94 -1 48 7 66 35 79 19 9 27 8 37 -2 13 -13 74
-13 114 -1 24 8 54 -17 54 -44 0 -10 -7 -32 -16 -49 -8 -18 -14 -42 -12 -54 3
-20 9 -23 43 -21 22 0 66 2 97 3 47 1 64 7 95 32 67 53 214 105 272 96 11 -2
21 2 22 7 0 6 16 25 35 42 35 35 85 44 125 22 11 -6 41 -12 66 -14 38 -3 52
-10 77 -38 17 -19 48 -40 68 -46 29 -10 39 -20 48 -47 23 -69 -12 -111 -80
-98 -23 5 -30 3 -30 -10 0 -14 24 -16 230 -16 152 0 230 4 230 10 0 10 -28 59
-40 70 -3 3 -18 24 -34 47 -29 44 -62 56 -72 28 -9 -23 -37 -18 -103 17 -56
30 -64 31 -96 19 -70 -25 -106 19 -137 169 -20 98 -26 115 -43 118 -15 2 -25
-8 -40 -40 -15 -33 -32 -49 -70 -70 -27 -14 -58 -34 -68 -44 -21 -21 -109 -24
-145 -5 -19 10 -21 18 -17 64 2 31 10 56 19 63 9 6 14 13 11 16 -3 2 7 11 21
18 19 11 32 11 55 3 27 -10 30 -9 35 12 3 13 3 28 0 34 -3 5 5 22 18 38 32 38
43 82 25 94 -23 14 -93 10 -117 -7 -18 -12 -22 -25 -22 -65 0 -27 -4 -49 -10
-49 -5 0 -10 -6 -10 -14 0 -11 -9 -13 -37 -9 -62 9 -70 18 -78 78 -4 37 -14
62 -28 75 -27 26 -35 25 -62 -4 -12 -13 -28 -25 -36 -28 -11 -4 -10 -11 9 -36
41 -57 24 -101 -53 -141 -46 -24 -63 -26 -89 -6 -14 10 -17 21 -12 42 13 52
29 79 56 95 28 16 46 70 34 101 -3 8 2 29 10 46 24 45 20 51 -29 51 -37 0 -51
5 -71 27 -23 25 -25 25 -43 9 -24 -21 -57 -14 -66 15 -5 15 -12 18 -27 13 -15
-4 -19 -2 -16 7 3 8 17 15 31 17 22 3 27 8 27 33 0 18 5 29 14 29 11 0 13 -10
9 -40 -5 -34 -3 -40 13 -40 11 0 25 9 32 21 8 13 21 19 35 17 12 -1 39 5 60
15 31 15 41 16 59 5 23 -12 29 -14 48 -17 6 0 10 -11 10 -24 0 -15 -9 -26 -30
-35 -54 -24 -33 -52 28 -36 20 6 22 12 22 75 0 53 4 71 15 75 8 4 15 16 15 29
0 19 4 21 28 17 15 -3 30 -9 33 -15 13 -19 36 1 33 28 -2 25 0 27 28 21 30 -6
143 -69 153 -85 2 -5 -24 -8 -59 -7 -68 1 -96 -12 -96 -46 0 -21 6 -24 72 -33
26 -3 63 -17 84 -31 34 -24 37 -24 55 -8 11 9 19 27 19 40 0 13 4 25 9 28 5 3
51 -22 102 -57 124 -83 238 -154 332 -207 42 -24 77 -47 77 -52 0 -11 -13 -10
-45 2 -49 19 -47 -2 2 -25 34 -15 55 -20 70 -14 13 5 31 6 40 2 19 -7 166
-108 248 -170 27 -21 74 -56 105 -77 116 -83 276 -204 288 -219 11 -13 7 -20
-25 -46 l-38 -31 123 0 c120 0 128 2 123 33 -2 14 29 20 43 8 10 -9 16 -7 26
4 11 13 10 22 -3 50 -15 31 -19 33 -50 28 -19 -3 -44 0 -55 6 -29 16 -19 68
19 101 16 14 29 34 29 45 0 80 121 88 136 9 8 -42 2 -50 -41 -58 -40 -8 -42
-14 -19 -58 13 -25 15 -47 10 -100 l-6 -68 71 0 c66 0 72 2 95 30 14 16 48 44
75 62 27 17 60 48 72 67 26 44 42 61 56 61 6 0 11 8 11 19 0 10 9 30 20 44
l21 26 -36 16 c-20 8 -55 29 -76 46 -35 28 -40 36 -37 68 4 49 27 50 71 4 30
-30 39 -35 49 -25 9 9 10 15 2 20 -19 12 -32 46 -39 105 -4 31 -15 67 -25 80
-10 13 -20 50 -24 87 -11 109 -67 156 -101 85 -9 -20 -15 -45 -12 -56 4 -14 0
-19 -14 -19 -10 0 -19 4 -19 8 0 16 -36 51 -63 61 -24 9 -27 16 -27 55 0 25 5
57 12 71 9 20 9 28 -1 38 -21 21 -52 -26 -41 -63 7 -23 4 -35 -12 -56 l-21
-26 26 -21 c51 -44 57 -64 52 -180 -5 -106 -6 -108 -42 -156 -36 -47 -66 -66
-85 -55 -14 9 2 196 18 215 21 23 17 37 -15 53 -16 9 -31 21 -34 28 -9 24 -84
69 -138 83 -29 8 -54 13 -56 12 -4 -5 50 -60 74 -76 28 -18 49 -156 34 -221
-15 -65 -14 -74 14 -104 35 -38 32 -52 -12 -59 -21 -3 -52 -8 -68 -12 -24 -5
-36 -1 -56 17 -13 13 -26 28 -27 33 -1 6 -48 10 -115 10 l-114 0 -74 56 c-126
96 -156 125 -141 140 6 7 12 20 12 29 0 23 -80 85 -104 81 -14 -2 -17 1 -12
14 11 30 -6 39 -26 14 -10 -13 -18 -19 -17 -14 1 6 1 22 0 38 -1 24 -5 27 -34
27 -34 0 -67 -27 -67 -55 0 -8 -3 -15 -8 -15 -12 0 -111 53 -182 98 -133 84
-181 112 -208 118 -43 11 -122 67 -122 86 0 22 9 23 35 4 11 -7 30 -16 42 -20
48 -15 33 72 -19 108 -12 9 -17 16 -11 16 12 0 113 116 113 131 0 5 -9 9 -20
9 -25 0 -27 35 -3 49 16 8 14 11 -10 22 -31 14 -36 29 -8 29 26 0 32 34 17
100 l-12 55 -18 -70 c-19 -77 -39 -115 -61 -115 -19 0 12 108 54 181 40 71 39
78 -4 40 -20 -17 -41 -31 -48 -31 -7 0 -25 -19 -40 -43 -15 -24 -52 -67 -82
-97 -69 -68 -79 -62 -115 68 -14 52 -25 47 -26 -11 -1 -23 -6 -55 -13 -71
l-11 -28 -25 26 c-14 15 -28 39 -31 54 -4 15 -10 32 -14 37 -4 6 -13 35 -19
65 -7 30 -23 72 -36 92 -14 21 -25 40 -25 42 0 2 16 10 35 16 59 19 43 36 -23
23z m215 -569 c-3 -3 -12 -4 -19 -1 -8 3 -5 6 6 6 11 1 17 -2 13 -5z m-137
-38 c25 -7 45 -18 45 -25 0 -6 -3 -11 -8 -12 -16 -1 -97 34 -97 42 0 12 7 11
60 -5z m-40 -26 c0 -5 -2 -10 -4 -10 -3 0 -8 5 -11 10 -3 6 -1 10 4 10 6 0 11
-4 11 -10z m2043 -612 c60 -42 79 -93 51 -136 -28 -43 -76 -15 -155 90 l-20
27 21 21 c26 26 64 25 103 -2z m-2108 -138 c3 -5 14 -10 24 -10 22 0 35 -38
19 -57 -15 -19 -32 -16 -54 8 -10 11 -26 18 -36 16 -25 -7 -22 11 5 34 25 21
33 23 42 9z m103 -14 c3 -13 -1 -17 -14 -14 -11 2 -20 11 -22 22 -3 13 1 17
14 14 11 -2 20 -11 22 -22z m1585 -32 c33 -7 51 -37 43 -74 -3 -18 0 -33 9
-40 14 -11 10 -40 -5 -40 -4 0 -13 14 -19 30 -5 17 -15 30 -21 30 -15 0 -100
65 -118 91 -14 20 -13 20 34 14 27 -3 61 -9 77 -11z m-2259 -67 c-8 -23 -50
-38 -63 -24 -12 16 -1 35 30 51 27 14 44 0 33 -27z m2731 24 c8 -25 -4 -51
-28 -60 -11 -4 -28 -27 -37 -52 -14 -35 -23 -45 -45 -47 -32 -4 -45 11 -45 51
0 21 13 42 48 77 51 52 96 65 107 31z m-305 -116 c0 -8 -4 -15 -10 -15 -5 0
-10 7 -10 15 0 8 5 15 10 15 6 0 10 -7 10 -15z m-2798 -20 c-2 -14 -8 -25 -12
-25 -10 0 -8 20 3 38 12 18 15 15 9 -13z"/>
<path d="M2560 1632 c0 -16 -8 -37 -19 -46 -17 -15 -27 -38 -58 -133 -11 -32
-10 -33 16 -30 15 2 32 7 39 11 7 4 12 2 12 -3 0 -6 7 -11 15 -11 8 0 24 -6
35 -12 17 -11 22 -10 30 1 5 9 5 22 0 32 -5 9 -6 19 -3 23 7 6 -47 56 -61 56
-4 0 -5 15 -2 33 16 78 17 95 7 101 -7 5 -11 -3 -11 -22z"/>
<path d="M8191 1637 c-6 -6 -11 -19 -11 -30 0 -10 -4 -27 -10 -37 -8 -16 -5
-20 25 -30 36 -12 75 -62 75 -97 0 -27 -50 -50 -65 -31 -5 7 -19 12 -30 10
-13 -2 -24 5 -30 20 -7 16 -17 22 -32 20 -19 -3 -23 2 -23 22 0 29 -3 28 -89
-11 -102 -46 -146 -42 -56 6 l40 21 -33 0 c-40 0 -41 10 -1 32 43 25 28 42
-30 33 -25 -4 -53 -13 -61 -20 -44 -37 -170 -36 -170 2 0 9 -3 14 -6 11 -9 -9
7 -126 20 -143 10 -14 15 -13 46 4 19 10 55 22 78 26 39 6 43 5 40 -11 -2 -11
-18 -21 -44 -28 -22 -6 -50 -18 -62 -27 -19 -14 -20 -20 -11 -53 10 -36 11
-37 47 -30 20 4 45 11 54 15 9 5 26 9 37 9 28 0 72 21 65 31 -8 14 -77 10
-123 -6 -39 -14 -71 -12 -71 5 0 4 22 10 48 14 27 3 77 22 113 41 35 19 77 35
92 35 26 0 27 -2 16 -22 -7 -13 -17 -26 -23 -30 -6 -4 -7 -10 -3 -14 4 -4 21
3 38 15 35 26 48 21 31 -12 -6 -12 -11 -42 -11 -67 0 -25 0 -54 0 -65 -1 -32
3 -60 11 -65 3 -3 8 -25 11 -50 3 -32 0 -48 -11 -56 -22 -16 -6 -57 19 -49 25
8 167 -31 201 -55 15 -11 38 -20 52 -20 14 0 41 -8 61 -17 36 -17 36 -17 108
20 77 40 96 44 115 25 9 -9 12 -9 12 1 0 7 -7 19 -15 27 -25 25 -19 84 12 116
22 23 25 32 17 46 -18 27 -43 26 -54 -2 -12 -32 -50 -36 -50 -6 0 13 -7 20
-20 20 -11 0 -20 4 -20 10 0 5 -17 20 -37 33 -36 23 -37 25 -34 78 2 50 0 55
-29 74 -36 24 -39 59 -13 141 l16 52 -36 35 c-33 31 -44 35 -106 39 -43 3 -74
1 -80 -5z m176 -124 c-9 -44 -26 -83 -36 -83 -16 0 -33 28 -21 35 6 4 8 16 5
26 -8 25 11 49 37 49 17 0 20 -5 15 -27z m-11 -402 c16 -16 40 -31 54 -33 29
-3 39 -43 20 -78 -15 -28 -40 -25 -73 9 -15 17 -36 33 -47 36 -15 5 -20 15
-20 44 0 61 21 68 66 22z"/>
<path d="M6820 1613 c0 -11 5 -24 12 -31 17 -17 2 -28 -17 -12 -12 10 -15 10
-15 -3 0 -9 6 -20 13 -24 7 -4 19 -22 26 -39 10 -26 10 -40 -3 -83 -21 -71
-26 -78 -42 -50 l-13 24 -1 -28 c0 -44 -83 -82 -105 -47 -2 3 -7 48 -10 98 -5
78 -3 98 14 137 21 48 9 63 -21 28 -19 -23 -58 -108 -58 -128 0 -8 -9 -38 -20
-67 -11 -29 -20 -61 -20 -70 0 -10 -6 -18 -13 -18 -26 0 -47 37 -68 116 -11
43 -24 82 -28 86 -4 5 -5 -22 -3 -58 5 -76 -1 -77 -50 -11 -27 37 -30 39 -24
15 3 -15 20 -50 36 -78 17 -28 30 -53 30 -57 0 -3 -13 -3 -30 1 -38 7 -39 -9
-2 -28 30 -15 79 -76 62 -76 -6 0 -8 -4 -5 -10 3 -5 17 -10 31 -10 14 0 23 -4
20 -9 -10 -15 82 -44 120 -37 36 7 44 20 19 30 -35 13 -10 24 50 21 58 -3 65
-1 65 16 0 11 11 24 26 31 31 15 39 5 54 -70 13 -61 10 -87 -10 -87 -9 0 -14
-8 -13 -20 4 -26 -4 -36 -56 -74 -38 -27 -46 -29 -53 -16 -6 9 -22 14 -41 14
-18 -1 -53 2 -78 6 -34 5 -54 3 -77 -9 -17 -9 -42 -16 -56 -16 -30 0 -57 -25
-50 -45 8 -20 -20 -19 -37 1 -11 14 -14 12 -27 -12 -12 -22 -12 -31 -1 -50 10
-19 10 -27 1 -36 -16 -16 -15 -43 3 -58 12 -10 13 -16 4 -26 -17 -20 -40 -17
-46 6 -3 11 -10 20 -15 20 -5 0 -6 5 -3 10 3 6 -3 10 -14 10 -30 0 -54 83 -47
163 3 34 5 94 5 132 0 55 6 80 26 119 14 27 25 66 25 87 0 21 4 49 9 62 9 23
7 26 -27 35 -20 5 -63 21 -94 35 -59 27 -72 25 -80 -18 -3 -16 -12 -20 -56
-22 -59 -2 -77 -16 -113 -90 -25 -52 -84 -115 -126 -137 -18 -9 -33 -20 -33
-25 0 -5 -12 -14 -27 -20 -54 -22 -114 -57 -122 -69 -4 -7 -18 -14 -31 -17
-12 -2 -31 -12 -41 -21 -10 -9 -34 -22 -55 -29 -32 -11 -37 -17 -39 -46 -1
-19 -5 -48 -9 -65 -7 -31 -7 -31 66 -58 40 -14 93 -26 118 -26 49 0 62 12 74
67 9 39 34 63 46 44 9 -16 4 -87 -11 -153 -6 -27 -8 -74 -5 -105 8 -75 1 -86
-44 -70 -19 7 -41 16 -47 20 -16 10 -17 -18 -2 -62 14 -40 42 -57 63 -36 17
18 18 17 41 -55 10 -30 28 -71 41 -91 27 -43 31 -39 -86 -114 -41 -27 -83 -56
-94 -66 -10 -10 -35 -26 -54 -35 -31 -14 -43 -15 -84 -5 -47 13 -48 13 -78
-20 -16 -19 -30 -37 -30 -42 0 -4 -4 -5 -10 -2 -5 3 -10 -1 -10 -9 0 -9 -4
-16 -10 -16 -5 0 -10 -6 -10 -13 0 -9 15 -14 48 -16 60 -2 102 7 102 22 0 17
31 35 55 31 11 -2 32 9 47 23 16 15 28 23 28 19 0 -5 8 2 19 15 10 13 16 30
13 37 -4 11 0 13 15 8 12 -4 25 -1 33 9 9 11 9 15 1 15 -23 0 -1 17 28 23 16
3 41 18 56 32 16 14 34 25 43 25 9 0 12 6 8 16 -3 9 -2 12 5 9 14 -9 39 13 33
29 -3 8 3 16 13 19 17 6 42 21 67 40 31 23 242 150 262 157 39 15 29 -11 -24
-66 -27 -27 -51 -57 -55 -66 -6 -17 -20 -22 -57 -19 -10 0 -11 -1 -2 -5 19 -9
14 -26 -5 -20 -18 5 -98 -56 -87 -66 2 -3 0 -32 -5 -64 -8 -50 -7 -61 6 -69 8
-5 32 -23 53 -40 21 -16 52 -38 69 -47 17 -9 36 -29 41 -43 l10 -25 225 0
c204 0 248 5 216 24 -5 3 -12 22 -15 42 -4 19 -9 41 -12 48 -7 19 31 56 58 56
14 0 32 -7 39 -16 8 -9 31 -27 51 -40 33 -21 74 -84 70 -106 -1 -5 199 -8 446
-8 l447 0 -33 27 c-33 25 -34 28 -30 87 l3 61 -40 6 c-22 4 -65 8 -95 9 -75 2
-110 9 -110 23 0 6 -7 18 -15 27 -9 10 -18 34 -20 54 -6 42 -21 76 -35 76 -5
0 -20 -12 -34 -26 l-24 -27 -43 32 c-72 53 -109 36 -109 -49 0 -34 4 -42 26
-50 14 -6 40 -10 59 -10 51 0 52 -25 1 -55 -54 -32 -71 -31 -107 2 -23 22 -46
30 -104 40 -81 12 -105 25 -105 54 0 10 -4 21 -10 24 -5 3 -10 15 -10 25 0 14
-11 22 -42 30 -70 17 -93 32 -96 66 -2 20 4 36 18 49 11 10 20 30 20 45 0 15
7 33 15 40 17 14 92 18 118 6 13 -6 17 -4 15 10 -3 44 4 64 34 94 17 18 41 36
53 40 27 10 38 70 18 89 -12 11 -11 33 2 77 2 5 20 15 42 22 21 6 51 25 67 41
24 25 28 37 28 95 2 76 -4 70 138 141 88 44 106 52 140 60 63 16 78 26 72 48
-3 12 -11 26 -19 30 -22 13 -15 27 14 27 21 0 24 3 15 12 -9 9 -8 16 5 30 19
21 12 22 -56 6 -37 -8 -51 -16 -51 -29 0 -9 -6 -20 -12 -22 -10 -4 -10 -6 0
-6 6 -1 12 -5 12 -10 0 -9 -105 -81 -119 -81 -9 0 -98 -55 -136 -84 -16 -12
-17 -17 -6 -24 10 -8 9 -13 -9 -25 -14 -10 -18 -17 -10 -22 17 -10 -18 -45
-44 -44 -20 0 -20 1 2 11 12 6 22 15 22 20 0 11 -27 10 -35 -2 -3 -5 -15 -10
-26 -10 -22 0 -24 -11 -7 -28 9 -9 9 -12 0 -12 -7 0 -28 -18 -48 -40 -20 -22
-41 -40 -46 -40 -5 0 -16 -7 -24 -15 -9 -8 -25 -15 -36 -15 -16 0 -10 9 30 48
68 63 73 88 33 164 -17 34 -31 73 -31 89 l0 28 78 -2 c97 -2 107 4 82 46 -10
18 -23 67 -28 110 -11 81 -48 163 -80 174 -9 3 -30 16 -47 28 -46 34 -75 41
-75 18z m-25 -743 c-6 -18 -2 -20 27 -18 32 3 33 2 33 -32 0 -32 -4 -37 -54
-63 -70 -36 -95 -33 -99 11 -3 28 -7 33 -23 29 -44 -12 -19 11 81 71 43 27 43
27 35 2z m-278 -77 c-3 -10 -5 -4 -5 12 0 17 2 24 5 18 2 -7 2 -21 0 -30z
m100 -24 c-20 -11 -52 -69 -38 -69 5 0 16 -15 25 -34 9 -19 23 -37 33 -40 18
-7 27 2 49 52 16 36 25 39 48 16 19 -19 13 -52 -21 -111 -19 -34 -30 -43 -51
-43 -15 0 -33 -4 -40 -9 -7 -4 -36 -4 -65 1 -35 6 -64 5 -88 -3 -32 -10 -40
-9 -63 7 -14 11 -26 25 -26 32 0 6 -4 12 -8 12 -4 0 -14 -6 -22 -12 -7 -7 -3
1 11 19 28 37 100 74 107 55 6 -19 40 -14 47 8 3 11 3 29 0 40 -3 11 -2 20 2
20 5 0 29 20 54 44 29 30 47 42 54 35 7 -7 4 -14 -8 -20z m-127 -50 c0 -5 -7
-9 -15 -9 -8 0 -15 7 -15 15 0 9 6 12 15 9 8 -4 15 -10 15 -15z m-218 -34 c6
-30 -7 -42 -20 -19 -10 19 -4 57 8 49 4 -3 10 -16 12 -30z m-279 -79 c15 -22
14 -25 -9 -45 -13 -11 -26 -21 -29 -21 -7 0 -6 55 1 74 9 22 19 20 37 -8z
m333 -63 c3 -10 11 -29 17 -43 14 -31 16 -118 2 -124 -19 -7 -74 6 -92 23 -10
9 -25 16 -33 16 -24 0 -13 57 16 78 13 10 24 25 24 33 0 8 10 19 23 24 32 13
37 12 43 -7z m-348 -69 c27 -8 28 -15 1 -45 -20 -23 -21 -24 -35 -5 -15 21
-18 39 -7 49 8 8 12 8 41 1z m478 -49 c-4 -24 -23 -38 -43 -31 -16 7 -16 9 7
26 30 24 39 25 36 5z m-563 -52 c4 -3 -2 -13 -14 -21 -24 -17 -37 -9 -19 13
14 16 23 19 33 8z m282 -97 c38 -16 40 -18 25 -44 -5 -9 -14 -29 -20 -44 -7
-21 -16 -28 -36 -28 -56 0 -83 59 -48 108 18 26 32 27 79 8z m615 -51 c6 -8
12 -31 12 -50 0 -39 -22 -64 -58 -65 -39 0 -61 82 -32 118 14 17 63 15 78 -3z
m-122 -14 c-4 -19 -46 -27 -60 -13 -16 16 0 31 33 30 22 -1 29 -5 27 -17z
m667 -88 c-40 -32 -127 -73 -159 -73 -55 0 -34 47 34 77 34 15 140 33 150 25
3 -2 -8 -15 -25 -29z m193 -30 c16 -16 16 -16 -1 -10 -10 4 -23 7 -28 7 -6 0
-7 5 -4 10 9 14 14 13 33 -7z m-2058 -8 c0 -8 -6 -15 -14 -15 -8 0 -16 -6 -19
-12 -2 -7 -7 -10 -11 -6 -11 10 12 48 29 48 8 0 15 -7 15 -15z"/>
<path d="M6715 1610 c3 -5 15 -10 26 -10 11 0 17 5 14 10 -3 6 -15 10 -26 10
-11 0 -17 -4 -14 -10z"/>
<path d="M7723 1613 c9 -2 17 -13 17 -24 0 -34 56 -37 67 -3 4 11 -55 35 -83
33 -17 -1 -17 -2 -1 -6z"/>
<path d="M7596 1539 c-10 -53 -8 -63 9 -49 27 23 25 5 -6 -42 -26 -40 -29 -52
-21 -75 5 -15 13 -27 18 -26 45 12 82 31 75 39 -5 5 -19 46 -31 92 -12 45 -26
84 -30 87 -4 3 -10 -9 -14 -26z"/>
<path d="M4535 1548 c-22 -5 -66 -7 -98 -4 -54 5 -57 5 -47 -13 5 -10 24 -24
42 -30 54 -19 67 -37 62 -84 -3 -23 -10 -45 -16 -48 -6 -4 -6 -8 -2 -10 5 -2
19 -26 32 -52 21 -45 21 -48 4 -42 -16 5 -20 -1 -26 -37 -6 -37 -4 -46 15 -60
11 -10 27 -18 35 -18 8 0 14 -3 15 -7 0 -5 2 -15 4 -23 1 -8 6 -35 9 -60 4
-25 10 -54 13 -65 4 -11 7 -33 7 -49 1 -28 5 -30 71 -49 39 -10 76 -24 83 -29
19 -16 14 -45 -10 -62 -19 -13 -24 -14 -37 -2 -9 8 -26 17 -37 20 -18 5 -24 1
-32 -23 -7 -19 -19 -32 -34 -35 -13 -2 -49 -9 -80 -16 -60 -12 -78 -8 -78 15
0 17 50 45 82 45 13 1 37 7 53 14 l30 13 -30 15 c-16 9 -55 21 -86 27 -31 7
-65 18 -75 26 -27 20 -44 18 -44 -4 0 -11 -4 -23 -10 -26 -17 -10 -11 -44 15
-85 30 -48 30 -50 6 -50 -15 0 -19 -6 -18 -27 2 -21 -5 -30 -25 -40 -15 -8
-30 -22 -33 -33 -5 -15 -15 -20 -39 -20 -29 0 -35 5 -51 40 -10 22 -23 40 -29
40 -6 0 -31 -14 -56 -30 -25 -16 -50 -30 -56 -30 -17 0 -47 -37 -39 -50 3 -5
24 -19 46 -30 39 -20 39 -20 67 -1 15 11 53 22 87 25 32 4 69 9 82 12 16 4 23
2 23 -8 0 -7 9 -19 21 -26 22 -14 31 -9 82 40 29 29 63 32 107 10 46 -22 51
-18 65 48 12 63 16 69 48 79 18 5 52 17 77 26 51 19 111 14 200 -16 30 -10 62
-19 72 -19 11 0 18 -12 23 -41 5 -27 10 -37 15 -29 5 8 8 -2 8 -26 0 -21 3
-66 7 -99 7 -59 7 -61 -19 -73 -23 -10 -26 -17 -26 -64 1 -29 7 -64 15 -78 15
-26 21 -173 8 -218 -5 -20 -11 -23 -33 -18 -25 4 -28 2 -34 -25 -9 -48 11 -60
94 -58 l71 2 -6 31 c-5 23 -4 27 4 16 6 -8 11 -10 12 -5 0 6 3 22 5 38 3 17 0
27 -7 27 -8 0 -6 7 4 18 10 10 17 35 17 56 0 23 5 39 15 42 17 7 21 44 5 44
-5 0 -10 -5 -10 -11 0 -6 -6 -17 -14 -24 -12 -12 -15 -12 -20 0 -3 8 -3 22 0
30 4 9 0 15 -9 15 -20 0 -29 24 -32 83 -2 40 1 47 17 47 10 0 18 7 18 17 0 24
-23 87 -35 95 -6 5 -5 8 3 8 10 0 10 5 1 22 -10 19 -31 113 -43 193 -1 11 -7
29 -13 40 -6 11 -8 25 -6 31 2 6 -6 15 -19 18 -14 5 -18 9 -10 13 18 7 15 53
-3 53 -8 0 -15 7 -15 15 0 8 -9 15 -21 15 -12 0 -17 4 -14 11 4 6 19 7 38 3
26 -5 34 -2 54 22 l24 29 -6 -30 c-5 -25 -4 -28 7 -15 17 20 70 20 85 1 9 -13
16 -14 45 -3 19 6 53 12 76 12 23 0 42 5 42 11 0 5 -5 7 -10 4 -6 -4 -16 -2
-23 3 -12 11 -16 12 -44 13 -15 0 -15 2 2 9 19 8 19 9 -2 9 -12 1 -46 10 -75
22 -63 25 -57 24 -72 3 -7 -9 -18 -14 -24 -10 -21 13 -13 44 20 82 31 36 32
37 8 29 -14 -4 -40 -16 -58 -27 -36 -22 -77 -18 -99 10 -16 22 -16 126 1 173
7 20 25 52 40 72 41 54 19 45 -39 -15 -58 -60 -101 -125 -113 -170 -4 -17 -15
-36 -23 -41 -21 -13 -69 -1 -69 18 0 7 -27 31 -59 52 -65 41 -101 96 -101 151
0 17 -4 33 -10 37 -5 3 -7 12 -4 19 3 8 1 31 -5 51 -9 34 -8 40 14 57 46 36
33 44 -40 26z m187 -470 c-7 -7 -12 -8 -12 -2 0 14 12 26 19 19 2 -3 -1 -11
-7 -17z m103 -18 c3 -5 -1 -10 -9 -10 -9 0 -16 5 -16 10 0 6 4 10 9 10 6 0 13
-4 16 -10z m49 -26 c9 -8 16 -11 16 -5 0 6 5 11 10 11 6 0 10 -9 10 -20 0 -13
-7 -20 -18 -20 -21 0 -56 33 -45 43 9 9 9 9 27 -9z m125 -46 c9 -15 8 -18 -9
-18 -11 0 -20 6 -20 14 0 7 -10 21 -22 29 -22 15 -22 16 8 5 17 -6 36 -20 43
-30z m-161 15 c5 -18 -10 -16 -34 2 -18 15 -18 15 5 13 14 -2 26 -9 29 -15z
m209 1 c-3 -3 -12 -4 -19 -1 -8 3 -5 6 6 6 11 1 17 -2 13 -5z m-170 -56 c-3
-8 -6 -5 -6 6 -1 11 2 17 5 13 3 -3 4 -12 1 -19z m58 -38 c3 -5 1 -10 -4 -10
-6 0 -11 5 -11 10 0 6 2 10 4 10 3 0 8 -4 11 -10z m48 -35 c15 7 27 10 27 4 0
-5 -4 -9 -10 -9 -5 0 -10 -8 -10 -18 0 -30 -11 -33 -42 -11 -24 17 -27 23 -16
36 11 13 13 13 18 -1 4 -14 8 -14 33 -1z"/>
<path d="M3280 1495 c-12 -59 -7 -95 14 -95 7 0 30 -16 50 -36 44 -43 74 -41
51 3 -8 15 -15 37 -15 48 -1 53 -47 135 -76 135 -7 0 -17 -23 -24 -55z"/>
<path d="M3003 1503 c-7 -2 -13 -11 -13 -19 0 -8 -8 -14 -18 -14 -10 0 -28
-13 -40 -30 -25 -33 -28 -50 -9 -50 21 0 40 17 33 29 -4 6 0 11 9 11 8 0 21
11 27 25 8 17 14 22 19 14 9 -16 46 -22 54 -10 3 5 -4 12 -15 16 -11 3 -20 13
-20 21 0 14 -6 16 -27 7z"/>
<path d="M8161 1481 c-17 -11 -7 -41 14 -41 8 0 15 4 15 9 0 5 3 16 6 25 7 18
-12 21 -35 7z"/>
<path d="M3790 1445 c0 -34 2 -36 28 -33 23 3 27 8 27 33 0 25 -4 30 -27 33
-26 3 -28 1 -28 -33z"/>
<path d="M2740 1420 c-8 -5 -10 -10 -5 -10 6 0 17 5 25 10 8 5 11 10 5 10 -5
0 -17 -5 -25 -10z"/>
<path d="M3946 1405 c-3 -8 -3 -29 1 -46 4 -22 0 -36 -14 -52 -25 -27 -43 -79
-43 -122 0 -56 -19 -93 -60 -116 -48 -27 -57 -54 -25 -75 17 -11 32 -13 57 -6
31 8 33 11 38 63 3 31 14 67 26 84 36 53 74 134 74 159 0 14 5 28 10 31 14 9
12 57 -4 78 -16 21 -52 22 -60 2z"/>
<path d="M2720 1384 c0 -8 5 -12 10 -9 6 4 8 11 5 16 -9 14 -15 11 -15 -7z"/>
<path d="M2898 1335 c-10 -13 -18 -28 -18 -32 0 -15 -57 -43 -88 -43 -17 0
-32 6 -36 15 -3 8 -12 15 -20 15 -7 0 -27 7 -42 15 -27 14 -29 13 -37 -8 -8
-22 -53 -67 -67 -67 -13 0 -19 -44 -8 -57 6 -7 21 -13 33 -13 12 0 28 -6 34
-14 6 -7 25 -16 41 -20 25 -4 30 -10 30 -34 0 -27 4 -30 58 -41 84 -19 114
-31 144 -59 24 -22 39 -25 120 -30 104 -5 111 -1 134 64 9 28 9 37 -5 56 -9
12 -29 49 -46 82 -27 55 -33 61 -65 64 -42 4 -67 24 -75 62 -6 25 -46 70 -63
70 -4 0 -15 -11 -24 -25z"/>
<path d="M0 1335 c0 -8 7 -15 15 -15 19 0 19 16 0 24 -9 3 -15 0 -15 -9z"/>
<path d="M2354 1335 c-10 -8 -32 -15 -49 -15 -28 0 -30 -3 -30 -35 0 -19 3
-35 8 -35 4 0 7 7 7 15 0 8 15 22 33 31 46 24 83 54 65 54 -8 0 -23 -7 -34
-15z"/>
<path d="M2475 1332 c-15 -10 -37 -53 -31 -59 11 -12 56 8 56 25 0 24 -14 42
-25 34z"/>
<path d="M5628 1295 c-7 -9 -20 -24 -29 -33 -9 -9 -26 -34 -37 -55 -18 -34
-49 -76 -99 -133 -10 -12 -44 -32 -75 -44 -31 -13 -55 -27 -52 -31 7 -13 91
-22 130 -14 21 3 49 20 68 38 36 37 86 136 86 172 0 38 25 55 83 56 66 1 112
17 52 19 -22 0 -49 7 -59 15 -10 8 -23 12 -27 9 -5 -3 -9 0 -9 5 0 16 -17 13
-32 -4z"/>
<path d="M7796 1252 c-8 -13 22 -92 35 -92 5 0 9 12 9 26 0 21 4 24 20 19 29
-9 42 2 30 26 -13 23 -48 25 -57 3 -5 -14 -8 -13 -18 6 -7 14 -15 18 -19 12z"/>
<path d="M7761 1111 c-16 -10 -6 -31 13 -31 8 0 20 8 27 18 7 9 9 14 5 10 -5
-4 -14 -4 -20 2 -7 5 -18 5 -25 1z"/>
<path d="M3456 1082 c-6 -11 70 -82 87 -82 19 0 36 21 30 36 -3 8 -13 14 -22
14 -9 0 -29 9 -46 20 -33 22 -41 24 -49 12z"/>
<path d="M2450 1042 c-46 -26 -52 -32 -82 -86 -23 -39 -7 -60 21 -29 11 11 17
24 13 28 -4 4 2 5 13 3 11 -2 20 -8 20 -15 0 -6 3 -15 8 -19 4 -4 7 0 7 10 0
10 14 23 34 31 33 14 34 17 29 52 -3 21 -8 41 -12 44 -3 3 -26 -6 -51 -19z"/>
<path d="M3360 999 c0 -39 25 -86 50 -94 11 -3 40 -3 64 0 l44 7 -17 29 c-17
27 -59 56 -118 79 -21 9 -23 7 -23 -21z"/>
<path d="M5078 915 c-9 -20 -8 -46 6 -122 25 -141 36 -148 31 -18 -3 61 -5
122 -5 138 0 34 -17 35 -32 2z"/>
<path d="M5141 845 c1 -142 11 -275 20 -275 5 0 7 28 4 63 -2 35 -5 110 -6
168 -1 57 -6 113 -10 124 -5 12 -8 -19 -8 -80z"/>
<path d="M5327 932 c-19 -2 -36 -16 -53 -42 -14 -21 -34 -40 -45 -43 -17 -5
-19 -14 -18 -84 1 -43 4 -103 7 -133 l7 -55 41 3 c34 3 51 -4 107 -41 37 -25
67 -44 67 -42 0 2 -11 21 -25 41 -38 55 -34 65 23 57 l47 -6 -26 29 c-34 38
-66 92 -83 142 -12 34 -13 52 -3 97 13 64 2 83 -46 77z"/>
<path d="M2882 788 c3 -7 13 -15 24 -17 16 -3 17 -1 5 13 -16 19 -34 21 -29 4z"/>
<path d="M660 621 c-25 -48 8 -71 45 -31 15 16 15 22 5 35 -17 21 -37 19 -50
-4z"/>
<path d="M2481 625 c-1 -27 17 -45 44 -45 18 1 18 2 -4 14 -14 8 -28 22 -32
32 -7 18 -8 18 -8 -1z"/>
<path d="M592 588 c-6 -8 -7 -19 -3 -26 6 -10 11 -9 21 3 9 11 10 19 3 26 -7
7 -14 5 -21 -3z"/>
<path d="M5540 539 c0 -5 5 -7 10 -4 6 3 10 8 10 11 0 2 -4 4 -10 4 -5 0 -10
-5 -10 -11z"/>
<path d="M578 464 c-9 -9 -39 -19 -67 -22 l-51 -5 0 -37 c0 -25 5 -40 16 -44
10 -4 14 -15 12 -33 -2 -23 -11 -30 -45 -41 -48 -15 -50 -21 -27 -57 14 -21
19 -23 38 -13 11 7 24 12 28 13 3 0 17 11 31 25 39 39 50 45 75 42 19 -3 22 1
22 31 0 19 7 40 15 47 17 14 21 60 5 60 -5 0 -12 11 -16 25 -7 29 -14 31 -36
9z"/>
<path d="M2771 441 c-17 -30 -13 -58 11 -86 27 -31 45 -32 59 -2 15 33 -9 101
-38 105 -14 2 -26 -4 -32 -17z"/>
<path d="M6963 445 c-3 -9 -2 -19 1 -23 8 -8 38 10 44 26 6 18 -38 14 -45 -3z"/>
<path d="M5135 399 l-29 -32 30 16 c16 8 42 13 57 10 31 -6 35 4 10 23 -26 20
-35 17 -68 -17z"/>
<path d="M2420 388 c0 -7 14 -33 31 -58 38 -56 83 -73 163 -64 35 4 56 3 60
-5 9 -13 46 -15 46 -2 0 5 -11 18 -25 29 -17 13 -25 30 -25 49 0 53 -24 63
-143 63 -78 0 -107 -3 -107 -12z"/>
<path d="M4224 385 c-19 -15 -19 -15 0 -30 23 -17 62 -20 71 -5 3 6 3 19 0 30
-8 24 -43 26 -71 5z"/>
<path d="M5185 350 c-17 -19 -12 -26 18 -21 4 0 6 -5 5 -11 -2 -8 5 -12 17
-10 19 4 19 3 -2 -18 -13 -11 -23 -26 -23 -33 0 -7 16 5 36 26 44 47 44 81 -2
85 -20 2 -36 -4 -49 -18z m70 -1 c12 -18 -1 -20 -31 -4 l-29 15 27 0 c15 0 30
-5 33 -11z"/>
<path d="M5110 330 c0 -5 5 -10 11 -10 5 0 7 5 4 10 -3 6 -8 10 -11 10 -2 0
-4 -4 -4 -10z"/>
<path d="M5852 237 c-8 -10 -6 -16 9 -25 17 -11 19 -9 19 13 0 27 -12 32 -28
12z"/>
<path d="M5799 203 c-13 -16 -12 -17 4 -4 16 13 21 21 13 21 -2 0 -10 -8 -17
-17z"/>
<path d="M4384 190 c-36 -14 -37 -29 -2 -43 33 -14 48 -38 78 -119 9 -27 12
-28 85 -28 41 0 75 3 75 8 0 4 -18 20 -40 36 -22 17 -40 34 -40 38 0 14 -109
118 -123 117 -6 0 -22 -4 -33 -9z"/>
<path d="M8533 181 c-32 -27 -29 -36 20 -59 24 -11 49 -27 56 -36 8 -9 19 -16
25 -16 6 0 28 -9 49 -20 20 -11 43 -20 51 -20 7 0 19 -7 26 -15 13 -15 60 -21
60 -7 0 19 -73 83 -123 107 -31 14 -66 39 -77 56 -25 34 -55 37 -87 10z"/>
<path d="M2872 154 c-11 -12 -9 -14 8 -14 11 0 20 4 20 9 0 17 -15 19 -28 5z"/>
<path d="M9480 159 c0 -5 5 -7 10 -4 6 3 10 8 10 11 0 2 -4 4 -10 4 -5 0 -10
-5 -10 -11z"/>
<path d="M9813 137 c-18 -5 -35 -18 -38 -28 -4 -10 -19 -26 -35 -36 -16 -9
-26 -21 -23 -26 10 -17 95 -47 134 -47 38 0 39 1 39 34 0 19 -4 38 -10 41 -5
3 -10 14 -10 24 0 34 -22 49 -57 38z"/>
<path d="M2908 43 c-33 -39 -31 -43 21 -43 56 0 61 6 32 38 -22 27 -33 27 -53
5z"/>
<path d="M9477 33 c-19 -18 -5 -33 31 -33 l37 0 -25 20 c-27 21 -33 23 -43 13z"/>
<path d="M5525 15 c-19 -14 -17 -15 25 -13 25 2 44 8 43 13 -4 17 -47 17 -68
0z"/>
<path d="M355 10 c-4 -6 10 -10 35 -10 25 0 39 4 35 10 -3 6 -19 10 -35 10
-16 0 -32 -4 -35 -10z"/>
<path d="M2808 3 c7 -3 16 -2 19 1 4 3 -2 6 -13 5 -11 0 -14 -3 -6 -6z"/>
</g>
</svg>
